<svg width="61" height="60" viewBox="0 0 61 60" fill="none" xmlns="http://www.w3.org/2000/svg">
<path d="M59.781 2.30305C59.6543 1.22728 58.7684 0.341364 57.6926 0.214684C52.7565 -0.354769 38.3911 -0.671267 23.9624 11.3525C22.3803 12.6817 20.355 13.3778 18.3933 12.9978C15.2923 12.3648 10.2299 12.3016 6.11626 16.3518L0.863704 21.6044C-0.591709 23.0598 -0.148938 25.4647 1.74965 26.3507L10.4194 30.2741L7.57176 34.7675C6.68581 36.2229 6.87562 38.0584 8.07809 39.2609L20.9247 52.0442C22.1272 53.2467 24.0257 53.4364 25.4181 52.5505C27.4434 51.285 29.9114 49.7029 29.9114 49.7029L33.8984 58.3095C34.7213 60.1445 37.1893 60.5877 38.6447 59.1323L43.8973 53.8797C47.9474 49.8296 47.8207 44.7037 47.1881 41.6027C46.8085 39.7041 47.378 37.7424 48.5804 36.2233C60.7309 21.7314 60.3512 7.23937 59.7813 2.30324L59.781 2.30305ZM43.2639 26.4774C40.606 29.1984 36.2394 29.1984 33.5185 26.4774C30.7975 23.7565 30.7975 19.4529 33.5185 16.732C36.1764 14.011 40.543 14.011 43.2639 16.732C45.9849 19.3899 45.9849 23.756 43.2639 26.4774Z" fill="#BFDCFF"/>
<path d="M0.610596 58.499C0.610596 59.0685 1.0538 59.5117 1.62324 59.5117C4.15436 59.4485 11.179 58.9422 16.0519 54.7654L5.29381 44.0703C1.18014 48.9433 0.673754 55.9677 0.610697 58.499L0.610596 58.499Z" fill="#BFDCFF"/>
</svg>
