<svg width="177" height="51" viewBox="0 0 177 51" fill="none" xmlns="http://www.w3.org/2000/svg">
<path d="M175.558 45.1183C175.558 47.8361 173.31 50.0376 170.53 50.0376H6.01444C3.23599 50.0376 0.980713 47.8361 0.980713 45.1183V5.88794C0.980713 3.17138 3.23599 0.962158 6.01444 0.962158H170.529C173.31 0.962158 175.556 3.17138 175.556 5.88794L175.558 45.1183Z" fill="#02000B"/>
<path d="M170 1.0216C173.027 1.0216 175.491 3.42338 175.491 6.375V44.625C175.491 47.5766 173.027 49.9784 170 49.9784H6.53846C3.51115 49.9784 1.04779 47.5766 1.04779 44.625V6.375C1.04779 3.42338 3.51115 1.0216 6.53846 1.0216H170ZM170 3.8147e-06H6.53846C2.94394 3.8147e-06 0 2.87035 0 6.375V44.625C0 48.1297 2.94394 51 6.53846 51H170C173.595 51 176.538 48.1297 176.538 44.625V6.375C176.538 2.87035 173.595 3.8147e-06 170 3.8147e-06Z" fill="#A6A6A6"/>
<path d="M39.3982 25.2247C39.3603 21.1154 42.8492 19.1162 43.0087 19.0231C41.0328 16.2143 37.9702 15.8305 36.894 15.7999C34.3217 15.536 31.8266 17.3006 30.5163 17.3006C29.1799 17.3006 27.1621 15.8254 24.9874 15.8687C22.189 15.9108 19.571 17.4905 18.1351 19.9436C15.1719 24.9455 17.3819 32.2958 20.2209 36.3389C21.641 38.3189 23.3005 40.5298 25.4726 40.452C27.5976 40.3666 28.3913 39.1311 30.9557 39.1311C33.4966 39.1311 34.242 40.452 36.4572 40.4023C38.7378 40.3666 40.1736 38.4133 41.5441 36.4154C43.1853 34.1459 43.8443 31.9108 43.8705 31.796C43.8169 31.7782 39.4413 30.15 39.3982 25.2247Z" fill="white"/>
<path d="M35.2136 13.1402C36.3565 11.7467 37.1385 9.85073 36.9214 7.92676C35.2672 7.99816 33.1984 9.04238 32.0071 10.4054C30.9531 11.6064 30.0116 13.575 30.2548 15.4263C32.113 15.5615 34.021 14.5121 35.2136 13.1402Z" fill="white"/>
<path d="M64.1423 12.7616C64.1423 14.2623 63.6807 15.3919 62.7588 16.1505C61.9048 16.8505 60.6913 17.2011 59.1194 17.2011C58.3401 17.2011 57.6731 17.168 57.1147 17.1017V8.90216C57.8431 8.78741 58.6277 8.72876 59.4751 8.72876C60.9724 8.72876 62.101 9.04623 62.8621 9.68118C63.7147 10.399 64.1423 11.4254 64.1423 12.7616ZM62.6973 12.7986C62.6973 11.8257 62.4331 11.0799 61.9048 10.5597C61.3765 10.0407 60.605 9.78063 59.5889 9.78063C59.1574 9.78063 58.7899 9.80868 58.4852 9.86733V16.1008C58.6539 16.1263 58.9625 16.1378 59.4111 16.1378C60.4598 16.1378 61.2693 15.8535 61.8394 15.2848C62.4096 14.7162 62.6973 13.8874 62.6973 12.7986Z" fill="white"/>
<path d="M71.8041 14.0722C71.8041 14.9966 71.5334 15.754 70.992 16.3481C70.4245 16.9588 69.6726 17.2636 68.7336 17.2636C67.8287 17.2636 67.1082 16.9716 66.5707 16.3851C66.0346 15.7999 65.7665 15.0616 65.7665 14.1717C65.7665 13.2409 66.0424 12.4772 66.5969 11.8843C67.1513 11.2915 67.8967 10.9944 68.8356 10.9944C69.7406 10.9944 70.4676 11.2864 71.0182 11.8716C71.5413 12.4402 71.8041 13.1746 71.8041 14.0722ZM70.3826 14.1156C70.3826 13.561 70.2597 13.0854 70.0152 12.6889C69.7275 12.2095 69.3182 11.9698 68.7859 11.9698C68.2354 11.9698 67.8169 12.2095 67.5292 12.6889C67.2834 13.0854 67.1618 13.5686 67.1618 14.1398C67.1618 14.6944 67.2847 15.17 67.5292 15.5665C67.8261 16.0459 68.2393 16.2856 68.7729 16.2856C69.2959 16.2856 69.7066 16.0421 70.0021 15.5538C70.2558 15.1496 70.3826 14.6702 70.3826 14.1156Z" fill="white"/>
<path d="M82.0773 11.1167L80.1484 17.127H78.8931L78.0941 14.5171C77.8914 13.8656 77.7266 13.2179 77.5984 12.5753H77.5736C77.4546 13.2357 77.2898 13.8822 77.078 14.5171L76.2293 17.127H74.9595L73.1458 11.1167H74.5541L75.2511 13.974C75.4198 14.6497 75.5584 15.2936 75.6696 15.903H75.6944C75.7964 15.4007 75.9651 14.7606 76.2031 13.9867L77.078 11.118H78.1947L79.033 13.9255C79.2357 14.6102 79.4004 15.2694 79.5273 15.9043H79.5652C79.6581 15.2859 79.798 14.6268 79.9837 13.9255L80.7317 11.118H82.0773V11.1167Z" fill="white"/>
<path d="M89.1819 17.1271H87.8115V13.6846C87.8115 12.6238 87.3982 12.0934 86.5692 12.0934C86.1625 12.0934 85.8343 12.2387 85.5793 12.5307C85.3269 12.8227 85.1987 13.1669 85.1987 13.5609V17.1258H83.8282V12.8341C83.8282 12.3063 83.8113 11.7338 83.7786 11.1142H84.9829L85.047 12.0538H85.0849C85.2445 11.7619 85.4825 11.5209 85.795 11.3284C86.1664 11.104 86.5822 10.9905 87.0373 10.9905C87.6127 10.9905 88.0913 11.1715 88.4719 11.5349C88.9452 11.9799 89.1819 12.6442 89.1819 13.5265V17.1271Z" fill="white"/>
<path d="M92.9612 17.1271H91.592V8.35889H92.9612V17.1271Z" fill="white"/>
<path d="M101.03 14.0722C101.03 14.9966 100.759 15.754 100.218 16.3481C99.6501 16.9588 98.8968 17.2636 97.9592 17.2636C97.053 17.2636 96.3324 16.9716 95.7963 16.3851C95.2601 15.7999 94.9921 15.0616 94.9921 14.1717C94.9921 13.2409 95.268 12.4772 95.8225 11.8843C96.3769 11.2915 97.1223 10.9944 98.0599 10.9944C98.9661 10.9944 99.6919 11.2864 100.244 11.8716C100.767 12.4402 101.03 13.1746 101.03 14.0722ZM99.6069 14.1156C99.6069 13.561 99.484 13.0854 99.2395 12.6889C98.9531 12.2095 98.5424 11.9698 98.0115 11.9698C97.4597 11.9698 97.0412 12.2095 96.7548 12.6889C96.509 13.0854 96.3874 13.5686 96.3874 14.1398C96.3874 14.6944 96.5103 15.17 96.7548 15.5665C97.0517 16.0459 97.4649 16.2856 97.9985 16.2856C98.5215 16.2856 98.9308 16.0421 99.2264 15.5538C99.4814 15.1496 99.6069 14.6702 99.6069 14.1156Z" fill="white"/>
<path d="M107.662 17.1271H106.432L106.33 16.4348H106.292C105.871 16.9869 105.271 17.2636 104.491 17.2636C103.909 17.2636 103.438 17.0812 103.084 16.7191C102.762 16.3902 102.602 15.9809 102.602 15.4951C102.602 14.7607 102.915 14.201 103.547 13.8134C104.177 13.4258 105.064 13.2358 106.206 13.2448V13.1326C106.206 12.3408 105.779 11.9455 104.925 11.9455C104.317 11.9455 103.781 12.0947 103.318 12.3905L103.04 11.5133C103.612 11.1678 104.32 10.9944 105.154 10.9944C106.765 10.9944 107.573 11.8231 107.573 13.4806V15.694C107.573 16.2946 107.603 16.7727 107.662 17.1271ZM106.24 15.0616V14.1347C104.728 14.1092 103.972 14.5134 103.972 15.346C103.972 15.6596 104.058 15.8942 104.235 16.051C104.411 16.2079 104.636 16.2856 104.904 16.2856C105.205 16.2856 105.486 16.1926 105.743 16.0077C106 15.8215 106.158 15.5857 106.217 15.2962C106.232 15.2312 106.24 15.1522 106.24 15.0616Z" fill="white"/>
<path d="M115.45 17.1271H114.233L114.169 16.1619H114.131C113.743 16.8963 113.081 17.2635 112.152 17.2635C111.409 17.2635 110.79 16.9792 110.3 16.4105C109.809 15.8419 109.565 15.1036 109.565 14.1971C109.565 13.2243 109.83 12.4363 110.364 11.8345C110.88 11.2735 111.513 10.993 112.267 10.993C113.094 10.993 113.674 11.2646 114.003 11.809H114.029V8.35889H115.401V15.5078C115.401 16.093 115.417 16.6324 115.45 17.1271ZM114.029 14.5924V13.5902C114.029 13.4168 114.016 13.2766 113.991 13.1695C113.914 12.8482 113.748 12.5779 113.496 12.3598C113.241 12.1418 112.934 12.0322 112.579 12.0322C112.068 12.0322 111.668 12.2298 111.373 12.6263C111.082 13.0228 110.934 13.529 110.934 14.1474C110.934 14.7415 111.074 15.2235 111.355 15.5945C111.652 15.9898 112.052 16.1874 112.553 16.1874C113.003 16.1874 113.362 16.0229 113.636 15.6927C113.9 15.388 114.029 15.0208 114.029 14.5924Z" fill="white"/>
<path d="M127.17 14.0722C127.17 14.9966 126.9 15.754 126.358 16.3481C125.791 16.9588 125.04 17.2636 124.1 17.2636C123.196 17.2636 122.476 16.9716 121.937 16.3851C121.401 15.7999 121.133 15.0616 121.133 14.1717C121.133 13.2409 121.409 12.4772 121.963 11.8843C122.518 11.2915 123.263 10.9944 124.203 10.9944C125.107 10.9944 125.835 11.2864 126.385 11.8716C126.908 12.4402 127.17 13.1746 127.17 14.0722ZM125.75 14.1156C125.75 13.561 125.627 13.0854 125.383 12.6889C125.094 12.2095 124.686 11.9698 124.152 11.9698C123.603 11.9698 123.185 12.2095 122.896 12.6889C122.65 13.0854 122.528 13.5686 122.528 14.1398C122.528 14.6944 122.651 15.17 122.896 15.5665C123.192 16.0459 123.606 16.2856 124.139 16.2856C124.662 16.2856 125.074 16.0421 125.37 15.5538C125.622 15.1496 125.75 14.6702 125.75 14.1156Z" fill="white"/>
<path d="M134.539 17.1271H133.17V13.6846C133.17 12.6238 132.757 12.0934 131.927 12.0934C131.52 12.0934 131.192 12.2387 130.938 12.5307C130.684 12.8227 130.557 13.1669 130.557 13.5609V17.1258H129.186V12.8341C129.186 12.3063 129.17 11.7338 129.137 11.1142H130.34L130.404 12.0538H130.442C130.603 11.7619 130.841 11.5209 131.152 11.3284C131.525 11.104 131.94 10.9905 132.396 10.9905C132.97 10.9905 133.449 11.1715 133.829 11.5349C134.304 11.9799 134.539 12.6442 134.539 13.5265V17.1271Z" fill="white"/>
<path d="M143.762 12.1176H142.253V15.0373C142.253 15.7794 142.521 16.1504 143.052 16.1504C143.298 16.1504 143.502 16.13 143.663 16.0879L143.698 17.1016C143.428 17.201 143.072 17.2507 142.634 17.2507C142.093 17.2507 141.671 17.0901 141.367 16.7688C141.061 16.4475 140.909 15.9069 140.909 15.1483V12.1176H140.008V11.1167H140.909V10.0151L142.252 9.61987V11.1154H143.761V12.1176H143.762Z" fill="white"/>
<path d="M151.018 17.1271H149.646V13.7101C149.646 12.6327 149.233 12.0934 148.405 12.0934C147.769 12.0934 147.335 12.4057 147.097 13.0305C147.057 13.1618 147.033 13.3225 147.033 13.5112V17.1258H145.664V8.35889H147.033V11.9812H147.059C147.491 11.322 148.109 10.993 148.911 10.993C149.478 10.993 149.948 11.1741 150.321 11.5375C150.785 11.9901 151.018 12.6633 151.018 13.5532V17.1271Z" fill="white"/>
<path d="M158.501 13.8376C158.501 14.0773 158.483 14.2788 158.45 14.4433H154.34C154.359 15.0374 154.555 15.49 154.935 15.8037C155.283 16.0842 155.732 16.2244 156.281 16.2244C156.889 16.2244 157.443 16.1301 157.943 15.9401L158.157 16.8683C157.573 17.1157 156.885 17.2393 156.089 17.2393C155.134 17.2393 154.382 16.9652 153.838 16.417C153.292 15.8687 153.021 15.133 153.021 14.2099C153.021 13.3034 153.273 12.5486 153.782 11.9468C154.313 11.3042 155.031 10.9829 155.937 10.9829C156.824 10.9829 157.497 11.3042 157.952 11.9468C158.32 12.4568 158.501 13.0879 158.501 13.8376ZM157.194 13.4921C157.204 13.0956 157.114 12.7539 156.928 12.4657C156.69 12.0947 156.328 11.9086 155.838 11.9086C155.39 11.9086 155.026 12.0896 154.747 12.453C154.519 12.7424 154.385 13.0879 154.34 13.4921H157.194Z" fill="white"/>
<path d="M70.1511 40.1674H67.1814L65.5546 35.1834H59.9001L58.3505 40.1674H55.4592L61.0614 23.1997H64.5215L70.1511 40.1674ZM65.0642 33.0924L63.5931 28.6618C63.4375 28.2092 63.1458 27.1433 62.7156 25.4654H62.6633C62.492 26.187 62.2161 27.2529 61.8368 28.6618L60.3918 33.0924H65.0642Z" fill="white"/>
<path d="M84.558 33.8996C84.558 35.9804 83.9813 37.6251 82.8279 38.8325C81.7949 39.9074 80.512 40.4441 78.9807 40.4441C77.3278 40.4441 76.1404 39.8653 75.4172 38.7076H75.3649V45.1527H72.5769V31.9603C72.5769 30.6521 72.5416 29.3096 72.4736 27.9326H74.9256L75.0812 29.8718H75.1335C76.0632 28.4107 77.4742 27.6814 79.3678 27.6814C80.8481 27.6814 82.0839 28.2513 83.0725 29.3924C84.0637 30.5348 84.558 32.0368 84.558 33.8996ZM81.7177 33.999C81.7177 32.8082 81.4431 31.8264 80.8913 31.0538C80.2884 30.248 79.4789 29.8451 78.4642 29.8451C77.7763 29.8451 77.1512 30.0695 76.5929 30.5119C76.0332 30.9581 75.667 31.5408 75.4957 32.2625C75.4094 32.5991 75.3662 32.8745 75.3662 33.0912V35.1312C75.3662 36.0212 75.6461 36.7721 76.2058 37.3854C76.7655 37.9987 77.4926 38.3047 78.387 38.3047C79.4371 38.3047 80.2544 37.9094 80.8389 37.1215C81.4248 36.3323 81.7177 35.2919 81.7177 33.999Z" fill="white"/>
<path d="M98.991 33.8996C98.991 35.9804 98.4143 37.6251 97.2597 38.8325C96.2279 39.9074 94.945 40.4441 93.4137 40.4441C91.7608 40.4441 90.5734 39.8653 89.8516 38.7076H89.7993V45.1527H87.0113V31.9603C87.0113 30.6521 86.976 29.3096 86.908 27.9326H89.3599L89.5155 29.8718H89.5678C90.4963 28.4107 91.9073 27.6814 93.8021 27.6814C95.2811 27.6814 96.5169 28.2513 97.5081 29.3924C98.4954 30.5348 98.991 32.0368 98.991 33.8996ZM96.1507 33.999C96.1507 32.8082 95.8748 31.8264 95.323 31.0538C94.7201 30.248 93.9133 29.8451 92.8972 29.8451C92.208 29.8451 91.5843 30.0695 91.0246 30.5119C90.4649 30.9581 90.1 31.5408 89.9287 32.2625C89.8437 32.5991 89.7993 32.8745 89.7993 33.0912V35.1312C89.7993 36.0212 90.0791 36.7721 90.6362 37.3854C91.1959 37.9974 91.923 38.3047 92.82 38.3047C93.8701 38.3047 94.6874 37.9094 95.272 37.1215C95.8578 36.3323 96.1507 35.2919 96.1507 33.999Z" fill="white"/>
<path d="M115.128 35.4092C115.128 36.8525 114.614 38.0268 113.582 38.9333C112.449 39.924 110.87 40.4187 108.842 40.4187C106.969 40.4187 105.468 40.0668 104.332 39.3617L104.978 37.096C106.202 37.8177 107.545 38.1798 109.008 38.1798C110.058 38.1798 110.875 37.9477 111.463 37.4862C112.047 37.0246 112.339 36.405 112.339 35.6323C112.339 34.9438 112.098 34.3637 111.616 33.8932C111.136 33.4227 110.334 32.9854 109.215 32.5812C106.168 31.4733 104.646 29.8502 104.646 27.7158C104.646 26.321 105.179 25.1773 106.247 24.2874C107.312 23.3961 108.732 22.9512 110.508 22.9512C112.092 22.9512 113.407 23.2202 114.457 23.757L113.76 25.9729C112.779 25.4527 111.67 25.1926 110.429 25.1926C109.449 25.1926 108.682 25.4285 108.133 25.8977C107.669 26.3172 107.436 26.8284 107.436 27.4341C107.436 28.1047 107.702 28.6593 108.235 29.0954C108.699 29.4983 109.543 29.9343 110.767 30.4048C112.264 30.9926 113.364 31.6798 114.071 32.4678C114.776 33.2532 115.128 34.2362 115.128 35.4092Z" fill="white"/>
<path d="M124.346 29.9726H121.273V35.9128C121.273 37.4237 121.814 38.1785 122.9 38.1785C123.398 38.1785 123.811 38.1364 124.138 38.0522L124.215 40.1165C123.666 40.3166 122.943 40.4174 122.047 40.4174C120.946 40.4174 120.085 40.0897 119.464 39.4356C118.846 38.7803 118.534 37.6812 118.534 36.1372V29.97H116.704V27.93H118.534V25.6898L121.273 24.884V27.93H124.346V29.9726Z" fill="white"/>
<path d="M138.211 33.9492C138.211 35.8299 137.659 37.3739 136.558 38.5813C135.404 39.8244 133.871 40.4441 131.961 40.4441C130.119 40.4441 128.653 39.8487 127.56 38.6578C126.467 37.467 125.92 35.9637 125.92 34.152C125.92 32.256 126.483 30.7031 127.611 29.4957C128.737 28.287 130.257 27.6826 132.167 27.6826C134.008 27.6826 135.49 28.278 136.608 29.4702C137.678 30.6266 138.211 32.1196 138.211 33.9492ZM135.319 34.0372C135.319 32.9088 135.072 31.9411 134.571 31.134C133.986 30.1574 133.151 29.6703 132.068 29.6703C130.947 29.6703 130.096 30.1587 129.511 31.134C129.01 31.9424 128.763 32.9254 128.763 34.0882C128.763 35.2166 129.01 36.1843 129.511 36.9901C130.114 37.9668 130.956 38.4538 132.043 38.4538C133.107 38.4538 133.943 37.9566 134.546 36.9646C135.06 36.1422 135.319 35.1643 135.319 34.0372Z" fill="white"/>
<path d="M147.274 30.3232C146.998 30.2735 146.704 30.248 146.395 30.248C145.414 30.248 144.656 30.6088 144.122 31.3317C143.658 31.9692 143.425 32.775 143.425 33.7478V40.1675H140.638L140.665 31.7856C140.665 30.3755 140.629 29.0915 140.56 27.9338H142.988L143.09 30.2747H143.167C143.462 29.4702 143.926 28.8225 144.561 28.3367C145.183 27.8994 145.853 27.6814 146.577 27.6814C146.834 27.6814 147.067 27.6992 147.274 27.7311V30.3232Z" fill="white"/>
<path d="M159.742 33.4712C159.742 33.9582 159.71 34.3688 159.64 34.7041H151.276C151.309 35.9128 151.713 36.8372 152.49 37.4747C153.195 38.0446 154.106 38.3302 155.226 38.3302C156.464 38.3302 157.594 38.1377 158.61 37.7513L159.047 39.6383C157.859 40.1432 156.458 40.3944 154.84 40.3944C152.894 40.3944 151.367 39.836 150.255 38.7203C149.146 37.6047 148.59 36.1066 148.59 34.2272C148.59 32.3823 149.107 30.8459 150.141 29.6207C151.224 28.3125 152.687 27.6584 154.529 27.6584C156.337 27.6584 157.706 28.3125 158.636 29.6207C159.372 30.6598 159.742 31.945 159.742 33.4712ZM157.084 32.7661C157.102 31.9603 156.92 31.2641 156.543 30.6764C156.06 29.9203 155.319 29.5429 154.321 29.5429C153.409 29.5429 152.668 29.9114 152.102 30.6509C151.637 31.2386 151.361 31.9437 151.276 32.7648H157.084V32.7661Z" fill="white"/>
</svg>
