<svg width="60" height="60" viewBox="0 0 60 60" fill="none" xmlns="http://www.w3.org/2000/svg">
<circle cx="30" cy="30" r="30" fill="#BFDCFF"/>
<path d="M41.683 22.4733H36.603V20.8328C36.6021 20.0319 36.2836 19.2644 35.7175 18.6981C35.1513 18.1319 34.3836 17.8134 33.5827 17.8125H26.4176C25.6167 17.8134 24.849 18.132 24.2829 18.6981C23.7168 19.2644 23.3982 20.0319 23.3973 20.8328V22.4735L18.3174 22.4733C17.4381 22.4747 16.595 22.8245 15.9731 23.4464C15.3512 24.0683 15.0011 24.9114 15 25.7909V39.5292C15.0012 40.4087 15.3512 41.2516 15.9731 41.8735C16.595 42.4953 17.4381 42.8452 18.3174 42.8466H41.6826C42.5619 42.8452 43.405 42.4954 44.0269 41.8735C44.6488 41.2516 44.9989 40.4087 45 39.5292V25.7909C44.9988 24.9114 44.6488 24.0683 44.0269 23.4464C43.405 22.8245 42.5619 22.4747 41.6826 22.4733L41.683 22.4733ZM35.209 22.4733H24.7911V20.8328C24.7916 20.4016 24.9631 19.9883 25.2678 19.6833C25.5728 19.3785 25.9861 19.207 26.4173 19.2065H33.5825C34.0137 19.207 34.427 19.3785 34.732 19.6833C35.0367 19.9883 35.2083 20.4015 35.2087 20.8328L35.209 22.4733Z" fill="#02000B"/>
</svg>
