<svg width="714" height="634" viewBox="0 0 714 634" fill="none" xmlns="http://www.w3.org/2000/svg">
<g opacity="0.5">
<mask id="mask0_462_76" style="mask-type:alpha" maskUnits="userSpaceOnUse" x="0" y="0" width="714" height="634">
<rect width="714" height="634" fill="#D9D9D9"/>
</mask>
<g mask="url(#mask0_462_76)">
<g opacity="0.05">
<path d="M-86.3846 374.916C-86.2301 372.025 -85.1106 369.23 -83.1568 366.86L230.912 -14.8806C233.651 -18.2028 237.827 -20.4672 242.527 -21.1776C247.226 -21.8881 252.066 -20.9867 255.985 -18.671L706.47 247.608C708.408 248.753 710.062 250.212 711.335 251.901C712.608 253.59 713.476 255.477 713.889 257.452C714.302 259.427 714.253 261.452 713.743 263.41C713.233 265.369 712.273 267.223 710.918 268.865L396.849 650.606C394.107 653.928 389.927 656.191 385.225 656.9C380.523 657.608 375.683 656.704 371.764 654.385L-78.7219 388.107C-81.2081 386.638 -83.2152 384.658 -84.5554 382.351C-85.8955 380.044 -86.5249 377.486 -86.3846 374.916ZM712.741 260.761C712.87 258.391 712.287 256.032 711.048 253.906C709.808 251.78 707.953 249.956 705.657 248.607L255.171 -17.6667C251.566 -19.8003 247.112 -20.6319 242.786 -19.979C238.46 -19.3262 234.615 -17.2422 232.094 -14.1841L-81.975 367.556C-83.7723 369.736 -84.8015 372.306 -84.9423 374.964C-85.0705 377.334 -84.4877 379.693 -83.2484 381.819C-82.0091 383.946 -80.1542 385.769 -77.8578 387.118L372.628 653.397C376.235 655.527 380.689 656.356 385.014 655.703C389.339 655.049 393.183 652.966 395.705 649.909L709.774 268.169C711.571 265.989 712.601 263.42 712.741 260.761Z" fill="#02000B"/>
<path d="M-88.7799 360.143C-88.6295 357.263 -87.4921 354.484 -85.5077 352.146L226.198 -16.6354C228.918 -19.8518 233.027 -22.021 237.625 -22.6677C242.223 -23.3144 246.936 -22.3859 250.73 -20.0856L685.922 244.185C687.799 245.32 689.394 246.76 690.615 248.421C691.836 250.082 692.659 251.932 693.036 253.864C693.413 255.796 693.338 257.773 692.814 259.68C692.289 261.587 691.327 263.387 689.982 264.978L378.27 633.76C375.545 636.969 371.436 639.133 366.841 639.776C362.245 640.419 357.537 639.491 353.744 637.194L-81.454 372.923C-83.8358 371.484 -85.7547 369.56 -87.0346 367.327C-88.3145 365.094 -88.9146 362.624 -88.7799 360.143ZM691.812 256.906C691.935 254.628 691.383 252.362 690.207 250.313C689.032 248.264 687.27 246.498 685.083 245.178L249.885 -19.0921C246.408 -21.2007 242.089 -22.0533 237.874 -21.4634C233.659 -20.8735 229.89 -18.8891 227.392 -15.9443L-84.3132 352.837C-86.1354 354.988 -87.1799 357.544 -87.3185 360.191C-87.4405 362.469 -86.8885 364.737 -85.713 366.786C-84.5375 368.836 -82.7761 370.603 -80.5898 371.924L354.608 636.195C358.09 638.303 362.412 639.155 366.631 638.565C370.85 637.976 374.623 635.992 377.126 633.047L688.832 264.265C690.649 262.112 691.685 259.553 691.812 256.906Z" fill="#02000B"/>
<path d="M-91.1882 345.375C-91.0436 342.495 -89.8836 339.719 -87.8588 337.406L221.483 -18.4281C224.192 -21.5266 228.234 -23.5884 232.725 -24.163C237.217 -24.7377 241.794 -23.7785 245.456 -21.4949L665.367 240.761C667.178 241.892 668.707 243.316 669.869 244.95C671.031 246.584 671.802 248.397 672.138 250.285C672.474 252.173 672.368 254.099 671.826 255.952C671.285 257.805 670.319 259.549 668.982 261.085L359.641 616.908C356.935 620.011 352.892 622.077 348.399 622.653C343.905 623.23 339.325 622.271 335.661 619.985L-84.2308 357.724C-86.4961 356.311 -88.3162 354.444 -89.5298 352.29C-90.7434 350.136 -91.313 347.761 -91.1882 345.375ZM670.889 253.056C671.011 250.867 670.495 248.687 669.386 246.709C668.278 244.731 666.611 243.016 664.535 241.717L244.605 -20.5176C241.25 -22.6112 237.058 -23.4917 232.942 -22.9666C228.826 -22.4415 225.122 -20.5536 222.64 -17.7153L-86.7024 338.108C-88.5532 340.23 -89.6153 342.774 -89.7523 345.413C-89.8685 347.596 -89.3494 349.77 -88.2412 351.742C-87.1329 353.715 -85.4696 355.424 -83.3984 356.72L336.506 618.987C339.862 621.081 344.057 621.961 348.174 621.432C352.291 620.904 355.993 619.011 358.471 616.168L667.839 260.356C669.692 258.237 670.754 255.694 670.889 253.056Z" fill="#02000B"/>
<path d="M-93.5961 330.613C-93.4542 327.736 -92.2741 324.965 -90.2159 322.676L216.762 -20.1991C218.088 -21.6853 219.747 -22.9338 221.644 -23.8726C223.54 -24.8113 225.636 -25.4218 227.812 -25.6687C229.986 -25.9256 232.199 -25.8151 234.323 -25.3435C236.447 -24.8719 238.44 -24.0484 240.189 -22.9204L644.838 237.343C646.584 238.468 648.052 239.874 649.157 241.481C650.262 243.088 650.983 244.865 651.278 246.71C651.573 248.554 651.437 250.43 650.877 252.23C650.317 254.03 649.344 255.718 648.015 257.197L341.037 600.062C338.343 603.048 334.369 605.008 329.982 605.514C325.594 606.02 321.149 605.03 317.617 602.761L-87.0072 342.508C-89.1548 341.126 -90.876 339.321 -92.0235 337.25C-93.171 335.178 -93.7106 332.901 -93.5961 330.613ZM649.972 249.206C650.078 247.112 649.585 245.027 648.535 243.13C647.485 241.233 645.909 239.581 643.942 238.315L239.318 -21.9431C237.725 -22.9744 235.907 -23.7276 233.969 -24.1594C232.031 -24.5912 230.012 -24.6931 228.028 -24.4592C226.036 -24.2355 224.117 -23.6783 222.381 -22.8201C220.645 -21.9619 219.126 -20.8196 217.912 -19.4593L-89.0659 323.405C-90.9468 325.496 -92.0269 328.027 -92.1602 330.656C-92.2667 332.751 -91.7737 334.836 -90.7234 336.733C-89.6732 338.63 -88.0971 340.282 -86.1304 341.547L318.493 601.8C321.723 603.872 325.786 604.774 329.796 604.308C333.805 603.843 337.435 602.048 339.893 599.316L646.878 256.452C648.754 254.361 649.834 251.833 649.972 249.206Z" fill="#02000B"/>
<path d="M-96.017 315.84C-95.8726 312.967 -94.6678 310.205 -92.5732 307.946L212.041 -21.9593C213.357 -23.3949 214.995 -24.5943 216.86 -25.4878C218.725 -26.3813 220.78 -26.9512 222.906 -27.1643C225.03 -27.3902 227.186 -27.256 229.248 -26.7694C231.31 -26.2829 233.239 -25.4536 234.922 -24.3296L624.252 233.898C625.936 235.013 627.345 236.4 628.398 237.978C629.45 239.557 630.126 241.296 630.385 243.097C630.645 244.898 630.484 246.725 629.911 248.473C629.338 250.22 628.365 251.855 627.047 253.283L322.433 583.242C319.763 586.126 315.857 587.995 311.57 588.438C307.284 588.881 302.965 587.863 299.559 585.607L-89.7775 327.309C-91.8138 325.955 -93.4416 324.209 -94.5266 322.215C-95.6115 320.221 -96.1224 318.036 -96.017 315.84ZM629.049 245.356C629.151 243.351 628.689 241.355 627.699 239.533C626.71 237.711 625.223 236.116 623.362 234.881L234.032 -23.3685C232.498 -24.3916 230.741 -25.1468 228.862 -25.5906C226.983 -26.0345 225.02 -26.1583 223.084 -25.9549C221.148 -25.7592 219.277 -25.24 217.578 -24.4273C215.879 -23.6147 214.386 -22.5245 213.185 -21.2195L-91.4295 308.686C-93.3506 310.741 -94.4621 313.257 -94.6064 315.878C-94.7019 317.885 -94.233 319.882 -93.2385 321.704C-92.2439 323.525 -90.7525 325.119 -88.888 326.353L300.461 584.619C303.566 586.675 307.502 587.602 311.409 587.197C315.317 586.793 318.876 585.089 321.308 582.459L625.923 252.554C627.829 250.493 628.923 247.975 629.049 245.356Z" fill="#02000B"/>
<path d="M-98.4251 301.073C-98.2835 298.201 -97.0532 295.446 -94.9178 293.217L207.333 -23.7303C209.981 -26.5087 213.817 -28.2811 218.001 -28.6587C222.184 -29.0363 226.373 -27.9881 229.648 -25.7443L603.697 230.502C605.623 231.827 607.158 233.517 608.179 235.436C609.199 237.355 609.677 239.451 609.574 241.555C609.438 244.427 608.212 247.185 606.08 249.417L303.829 566.364C301.179 569.14 297.342 570.911 293.159 571.286C288.975 571.662 284.788 570.612 281.514 568.367L-92.5351 312.12C-94.4629 310.797 -95.9996 309.109 -97.0223 307.19C-98.045 305.272 -98.5254 303.177 -98.4251 301.073ZM608.119 241.501C608.214 239.588 607.78 237.682 606.852 235.938C605.924 234.193 604.528 232.657 602.776 231.453L228.746 -24.794C225.767 -26.8297 221.961 -27.781 218.16 -27.44C214.359 -27.0991 210.871 -25.4936 208.458 -22.9744L-93.7995 293.973C-95.7372 295.998 -96.8517 298.502 -96.9764 301.111C-97.0703 303.025 -96.636 304.931 -95.7081 306.676C-94.7803 308.422 -93.3847 309.959 -91.6328 311.164L282.416 567.411C285.393 569.451 289.2 570.405 293.003 570.064C296.806 569.723 300.294 568.114 302.704 565.591L604.955 248.644C606.897 246.618 608.014 244.112 608.138 241.501H608.119Z" fill="#02000B"/>
<path d="M-100.846 286.306C-100.712 283.436 -99.4604 280.686 -97.2878 278.487L202.612 -25.5013C203.914 -26.8244 205.511 -27.915 207.312 -28.7102C209.112 -29.5054 211.08 -29.9893 213.103 -30.134C215.12 -30.2957 217.156 -30.116 219.092 -29.6053C221.028 -29.0947 222.825 -28.2632 224.381 -27.1589L583.143 227.079C584.701 228.178 585.988 229.528 586.931 231.051C587.874 232.574 588.454 234.24 588.637 235.954C588.82 237.667 588.603 239.395 587.998 241.037C587.393 242.68 586.412 244.204 585.112 245.524L285.212 549.512C282.572 552.169 278.801 553.831 274.724 554.134C270.647 554.438 266.594 553.358 263.45 551.132L-95.3244 296.932C-97.1542 295.648 -98.6062 294.018 -99.5647 292.174C-100.523 290.329 -100.962 288.32 -100.846 286.306ZM587.228 237.678C587.33 235.853 586.93 234.032 586.062 232.36C585.193 230.688 583.878 229.211 582.221 228.046L223.459 -26.2248C222.047 -27.2242 220.416 -27.9771 218.661 -28.4404C216.905 -28.9036 215.06 -29.0682 213.23 -28.9245C211.392 -28.7951 209.602 -28.3561 207.966 -27.633C206.33 -26.91 204.879 -25.9173 203.699 -24.713L-96.2013 279.275C-98.1792 281.265 -99.3215 283.757 -99.4481 286.359C-99.5441 288.188 -99.1376 290.011 -98.2608 291.683C-97.384 293.355 -96.0611 294.83 -94.3968 295.992L264.365 550.235C267.218 552.253 270.894 553.229 274.591 552.95C278.288 552.671 281.705 551.159 284.094 548.745L583.994 244.757C585.964 242.766 587.101 240.277 587.228 237.678Z" fill="#02000B"/>
<path d="M-103.273 271.538C-103.135 268.667 -101.843 265.923 -99.6132 263.763L197.911 -27.2669C199.199 -28.5375 200.772 -29.5776 202.538 -30.3266C204.304 -31.0756 206.228 -31.5186 208.198 -31.6297C210.167 -31.7599 212.148 -31.5568 214.025 -31.0322C215.902 -30.5077 217.638 -29.672 219.132 -28.5736L562.588 223.64C564.081 224.733 565.305 226.066 566.19 227.562C567.075 229.058 567.603 230.688 567.744 232.359C567.885 234.029 567.636 235.707 567.012 237.295C566.388 238.883 565.4 240.351 564.107 241.614L266.583 532.644C263.968 535.201 260.267 536.773 256.291 537.014C252.315 537.254 248.389 536.145 245.374 533.929L-98.0946 281.732C-99.8117 280.479 -101.17 278.909 -102.068 277.143C-102.965 275.376 -103.377 273.46 -103.273 271.538ZM566.324 233.801C566.418 232.064 566.045 230.331 565.234 228.734C564.422 227.137 563.194 225.718 561.641 224.585L218.173 -27.6503C216.829 -28.6419 215.267 -29.3984 213.579 -29.8765C211.89 -30.3546 210.106 -30.5449 208.331 -30.4364C206.551 -30.333 204.812 -29.9309 203.215 -29.2535C201.619 -28.576 200.196 -27.6366 199.029 -26.4894L-98.4949 264.54C-100.505 266.492 -101.67 268.968 -101.799 271.56C-101.894 273.297 -101.522 275.03 -100.712 276.627C-99.9019 278.224 -98.6743 279.643 -97.1225 280.777L246.32 533.028C249.045 535.038 252.597 536.047 256.197 535.832C259.796 535.618 263.148 534.197 265.515 531.883L563.039 240.853C565.054 238.893 566.214 236.403 566.324 233.801Z" fill="#02000B"/>
<path d="M-105.7 256.771C-105.557 253.895 -104.236 251.152 -101.964 249.017L193.196 -29.0541C194.481 -30.266 196.035 -31.2507 197.769 -31.952C199.502 -32.6533 201.381 -33.0575 203.299 -33.1415C205.215 -33.2314 207.134 -32.9982 208.944 -32.4551C210.755 -31.9121 212.42 -31.07 213.846 -29.9774L542.033 220.243C543.46 221.33 544.62 222.645 545.448 224.113C546.275 225.582 546.754 227.175 546.855 228.8C546.957 230.426 546.68 232.053 546.04 233.588C545.4 235.122 544.41 236.534 543.126 237.743L247.966 515.814C245.368 518.259 241.736 519.729 237.866 519.902C233.995 520.075 230.201 518.937 227.316 516.737L-100.871 266.527C-102.478 265.307 -103.744 263.799 -104.58 262.111C-105.415 260.424 -105.798 258.599 -105.7 256.771ZM545.42 229.952C545.51 228.302 545.166 226.656 544.413 225.133C543.66 223.611 542.517 222.25 541.068 221.15L212.88 -29.0541C211.593 -30.0413 210.087 -30.8012 208.451 -31.2897C206.815 -31.7782 205.081 -31.9855 203.349 -31.8996C201.627 -31.8288 199.938 -31.4695 198.38 -30.8421C196.822 -30.2148 195.425 -29.3319 194.27 -28.2442L-100.897 249.827C-102.937 251.75 -104.128 254.216 -104.264 256.803C-104.351 258.453 -104.005 260.099 -103.252 261.621C-102.498 263.143 -101.355 264.504 -99.9056 265.604L228.275 515.852C230.877 517.834 234.297 518.859 237.786 518.703C241.275 518.547 244.549 517.223 246.892 515.02L542.052 236.949C544.1 235.021 545.291 232.546 545.42 229.952Z" fill="#02000B"/>
<path d="M-108.14 241.998C-107.988 239.126 -106.636 236.394 -104.328 234.293L188.469 -30.8198C189.746 -31.9743 191.279 -32.9027 192.98 -33.5514C194.681 -34.2001 196.517 -34.5563 198.381 -34.5994C200.243 -34.6562 202.1 -34.3992 203.845 -33.8432C205.59 -33.2872 207.188 -32.4431 208.547 -31.3597L521.479 216.825C522.84 217.906 523.937 219.205 524.706 220.647C525.476 222.089 525.902 223.646 525.961 225.228C526.02 226.811 525.711 228.387 525.05 229.868C524.39 231.348 523.392 232.703 522.114 233.855L229.343 499.011C226.757 501.337 223.193 502.7 219.429 502.801C215.664 502.902 212.006 501.734 209.252 499.551L-103.642 251.333C-105.14 250.146 -106.318 248.696 -107.095 247.085C-107.872 245.473 -108.228 243.738 -108.14 241.998ZM524.529 226.091C524.612 224.527 524.294 222.967 523.597 221.518C522.901 220.07 521.842 218.767 520.494 217.7L207.594 -30.5066C206.371 -31.4816 204.932 -32.2413 203.362 -32.7417C201.792 -33.2421 200.12 -33.4734 198.444 -33.4223C196.769 -33.3801 195.12 -33.0558 193.593 -32.4682C192.066 -31.8806 190.691 -31.0413 189.549 -29.9991L-103.248 235.113C-105.332 236.997 -106.551 239.453 -106.685 242.035C-106.765 243.598 -106.445 245.156 -105.749 246.604C-105.052 248.051 -103.995 249.353 -102.65 250.421L210.237 498.66C212.715 500.62 216.004 501.667 219.388 501.573C222.771 501.479 225.973 500.251 228.295 498.158L521.091 233.045C523.182 231.155 524.402 228.688 524.529 226.096V226.091Z" fill="#02000B"/>
<path d="M-110.58 227.23C-110.427 224.353 -109.031 221.625 -106.66 219.568L183.773 -32.5854C186.331 -34.8117 189.821 -36.0874 193.482 -36.134C197.143 -36.1805 200.677 -34.994 203.311 -32.8338L500.924 213.381C502.223 214.454 503.26 215.734 503.975 217.148C504.69 218.562 505.069 220.083 505.091 221.622C505.113 223.161 504.777 224.689 504.102 226.117C503.427 227.546 502.427 228.847 501.159 229.946L210.726 482.1C208.161 484.321 204.665 485.589 201.003 485.627C197.34 485.664 193.809 484.468 191.182 482.3L-106.425 236.085C-107.808 234.938 -108.892 233.558 -109.608 232.032C-110.324 230.507 -110.655 228.871 -110.58 227.23ZM503.637 222.247C503.712 220.771 503.42 219.298 502.779 217.925C502.139 216.551 501.164 215.308 499.92 214.277L202.307 -31.9374C199.953 -33.8718 196.795 -34.9378 193.52 -34.9034C190.245 -34.869 187.119 -33.7371 184.822 -31.7539L-105.63 220.4C-107.755 222.242 -109.004 224.686 -109.138 227.263C-109.214 228.739 -108.921 230.212 -108.28 231.586C-107.638 232.96 -106.661 234.202 -105.414 235.232L192.192 481.447C194.547 483.386 197.71 484.455 200.989 484.421C204.268 484.386 207.399 483.251 209.697 481.263L500.13 229.109C502.254 227.267 503.503 224.823 503.637 222.247Z" fill="#02000B"/>
<path d="M-113.026 212.463C-112.878 209.58 -111.442 206.853 -109.011 204.839L179.059 -34.3887C181.608 -36.4966 185.035 -37.6621 188.592 -37.6307C192.149 -37.5994 195.547 -36.3738 198.044 -34.2214L480.369 209.99C481.606 211.054 482.582 212.316 483.242 213.703C483.902 215.089 484.233 216.573 484.215 218.069C484.197 219.564 483.831 221.042 483.139 222.417C482.446 223.792 481.44 225.037 480.179 226.08L192.109 465.302C189.56 467.41 186.133 468.576 182.576 468.544C179.019 468.513 175.622 467.287 173.124 465.135L-109.201 220.94C-110.487 219.824 -111.49 218.496 -112.148 217.038C-112.806 215.58 -113.105 214.023 -113.026 212.463ZM482.752 218.402C482.823 217.011 482.556 215.622 481.969 214.322C481.382 213.021 480.487 211.837 479.34 210.843L197.021 -33.3736C194.79 -35.295 191.756 -36.3886 188.58 -36.416C185.404 -36.4433 182.345 -35.402 180.069 -33.5194L-108 205.708C-110.174 207.508 -111.456 209.946 -111.584 212.522C-111.655 213.914 -111.389 215.303 -110.802 216.603C-110.215 217.903 -109.32 219.087 -108.172 220.081L174.147 464.282C176.378 466.203 179.412 467.297 182.588 467.324C185.764 467.351 188.823 466.31 191.099 464.428L479.169 225.205C481.341 223.407 482.623 220.972 482.752 218.397V218.402Z" fill="#02000B"/>
<path d="M-115.479 197.722C-115.336 194.83 -113.854 192.103 -111.355 190.136L174.351 -36.1598C175.6 -37.1555 177.069 -37.9306 178.674 -38.4404C180.278 -38.9502 181.985 -39.1844 183.697 -39.1295C185.408 -39.0845 187.092 -38.7522 188.652 -38.1517C190.211 -37.5512 191.615 -36.6944 192.783 -35.6306L459.815 206.572C460.983 207.632 461.894 208.877 462.494 210.237C463.095 211.596 463.373 213.043 463.314 214.494C463.255 215.946 462.86 217.373 462.15 218.694C461.441 220.015 460.431 221.204 459.179 222.193L173.486 448.456C170.954 450.453 167.595 451.516 164.142 451.415C160.69 451.314 157.425 450.056 155.06 447.916L-111.978 205.724C-113.161 204.657 -114.08 203.399 -114.682 202.025C-115.283 200.65 -115.554 199.187 -115.479 197.722ZM461.88 214.574C461.951 213.266 461.711 211.96 461.175 210.733C460.639 209.505 459.818 208.382 458.76 207.431L191.728 -34.7937C190.691 -35.7416 189.442 -36.505 188.055 -37.0398C186.667 -37.5746 185.169 -37.8701 183.646 -37.9092C182.124 -37.9575 180.606 -37.749 179.18 -37.2958C177.753 -36.8427 176.447 -36.1537 175.335 -35.2689L-110.37 191C-112.593 192.751 -113.91 195.177 -114.036 197.749C-114.11 199.057 -113.873 200.364 -113.338 201.591C-112.803 202.819 -111.981 203.942 -110.923 204.893L156.109 447.09C158.213 448.993 161.118 450.111 164.19 450.2C167.261 450.289 170.249 449.342 172.502 447.565L458.207 221.296C460.431 219.546 461.751 217.12 461.88 214.547V214.574Z" fill="#02000B"/>
<path d="M-117.938 182.928C-117.869 181.49 -117.458 180.079 -116.73 178.779C-116.001 177.48 -114.971 176.32 -113.7 175.369L169.642 -37.9362C172.158 -39.8214 175.448 -40.7851 178.796 -40.6172C182.144 -40.4493 185.279 -39.1634 187.516 -37.0399L439.267 203.16C440.371 204.212 441.219 205.439 441.764 206.77C442.309 208.102 442.539 209.511 442.441 210.918C442.343 212.326 441.919 213.702 441.193 214.97C440.467 216.238 439.454 217.371 438.212 218.305L154.863 431.621C152.346 433.505 149.055 434.466 145.707 434.296C142.359 434.126 139.225 432.839 136.99 430.714L-114.754 190.525C-116.945 188.445 -118.088 185.717 -117.938 182.928ZM441.008 210.681C441.139 208.211 440.126 205.796 438.186 203.953L186.436 -36.2246C184.456 -38.1087 181.68 -39.2505 178.713 -39.4002C175.746 -39.5499 172.83 -38.6955 170.602 -37.0237L-112.74 176.287C-113.869 177.127 -114.784 178.154 -115.43 179.305C-116.075 180.457 -116.438 181.708 -116.495 182.982C-116.628 185.452 -115.615 187.868 -113.674 189.71L138.07 429.898C140.051 431.783 142.828 432.925 145.796 433.074C148.764 433.224 151.681 432.369 153.91 430.697L437.252 217.387C438.381 216.544 439.295 215.515 439.941 214.362C440.586 213.209 440.949 211.957 441.008 210.681Z" fill="#02000B"/>
<path d="M-120.409 168.16C-120.333 166.719 -119.906 165.307 -119.155 164.013C-118.403 162.72 -117.344 161.572 -116.044 160.644L164.934 -39.7126C166.169 -40.5969 167.597 -41.2649 169.137 -41.6782C170.677 -42.0915 172.297 -42.2419 173.906 -42.1208C175.518 -42.0097 177.088 -41.628 178.526 -40.9978C179.963 -40.3676 181.239 -39.5013 182.28 -38.4492L418.712 199.742C419.75 200.788 420.536 201.998 421.023 203.302C421.51 204.606 421.689 205.98 421.55 207.343C421.412 208.706 420.958 210.033 420.214 211.247C419.471 212.461 418.453 213.538 417.219 214.417L136.24 414.78C133.744 416.556 130.521 417.421 127.277 417.184C124.032 416.947 121.03 415.629 118.926 413.516L-117.531 175.315C-119.516 173.323 -120.544 170.768 -120.409 168.16ZM420.148 206.847C420.264 204.545 419.357 202.29 417.607 200.53L181.149 -37.6608C180.233 -38.5871 179.11 -39.3501 177.845 -39.9061C176.58 -40.4621 175.198 -40.8 173.779 -40.9005C172.359 -41.0072 170.929 -40.8742 169.57 -40.5091C168.211 -40.144 166.951 -39.554 165.862 -38.7731L-115.117 161.578C-116.262 162.399 -117.196 163.412 -117.859 164.554C-118.521 165.696 -118.899 166.942 -118.967 168.214C-119.083 170.517 -118.176 172.772 -116.425 174.532L120.013 412.717C121.87 414.581 124.519 415.745 127.382 415.954C130.245 416.164 133.089 415.402 135.294 413.835L416.291 213.483C417.439 212.664 418.375 211.651 419.038 210.509C419.702 209.367 420.08 208.12 420.148 206.847Z" fill="#02000B"/>
<path d="M-122.887 153.388C-122.815 151.936 -122.376 150.514 -121.598 149.22C-120.821 147.925 -119.724 146.789 -118.382 145.888L160.232 -41.4729C161.454 -42.3078 162.859 -42.9286 164.365 -43.2993C165.871 -43.67 167.449 -43.7833 169.007 -43.6326C170.565 -43.4825 172.073 -43.0711 173.443 -42.4223C174.813 -41.7735 176.018 -40.9002 176.987 -39.853L398.157 196.329C399.132 197.367 399.855 198.558 400.287 199.834C400.719 201.111 400.85 202.447 400.672 203.766C400.495 205.085 400.014 206.361 399.255 207.522C398.496 208.683 397.476 209.705 396.251 210.53L117.636 397.928C115.158 399.594 112.005 400.359 108.866 400.055C105.726 399.752 102.856 398.405 100.881 396.308L-120.295 160.126C-122.086 158.218 -123.006 155.826 -122.887 153.388ZM399.295 202.992C399.405 200.858 398.604 198.762 397.039 197.091L175.856 -39.0917C175.006 -40.0072 173.95 -40.7705 172.751 -41.3376C171.551 -41.9048 170.231 -42.2645 168.867 -42.3962C167.5 -42.5346 166.115 -42.4412 164.791 -42.1214C163.467 -41.8017 162.231 -41.2619 161.154 -40.5334L-117.461 146.87C-118.641 147.659 -119.606 148.655 -120.292 149.79C-120.977 150.925 -121.366 152.172 -121.432 153.447C-121.537 155.581 -120.734 157.676 -119.17 159.348L102 395.531C103.736 397.371 106.257 398.554 109.014 398.822C111.771 399.09 114.542 398.421 116.722 396.962L395.336 209.601C396.517 208.807 397.482 207.805 398.165 206.664C398.849 205.524 399.234 204.271 399.295 202.992Z" fill="#02000B"/>
<path d="M-125.371 138.62C-125.299 137.163 -124.844 135.737 -124.039 134.449C-123.234 133.161 -122.1 132.042 -120.72 131.174L155.524 -43.2655C157.989 -44.8151 161.075 -45.4736 164.109 -45.0973C167.143 -44.7211 169.879 -43.3405 171.72 -41.2569L377.584 192.917C378.491 193.949 379.15 195.124 379.523 196.373C379.895 197.622 379.974 198.921 379.754 200.196C379.535 201.471 379.021 202.697 378.243 203.803C377.465 204.909 376.438 205.874 375.22 206.642L98.9945 381.087C96.5296 382.637 93.4435 383.295 90.4095 382.919C87.3755 382.543 84.6396 381.162 82.7986 379.079L-123.065 144.905C-124.659 143.097 -125.473 140.878 -125.371 138.62ZM378.448 199.148C378.548 197.173 377.843 195.23 376.453 193.646L170.589 -40.528C168.978 -42.352 166.584 -43.5606 163.928 -43.8904C161.273 -44.2201 158.572 -43.6442 156.414 -42.2882L-119.863 132.157C-121.071 132.916 -122.063 133.895 -122.767 135.023C-123.471 136.151 -123.868 137.398 -123.929 138.674C-124.024 140.648 -123.32 142.59 -121.934 144.176L83.9296 378.35C85.5415 380.173 87.9364 381.381 90.5918 381.709C93.2473 382.038 95.948 381.461 98.105 380.105L374.382 205.665C375.589 204.905 376.581 203.926 377.284 202.798C377.988 201.67 378.386 200.423 378.448 199.148Z" fill="#02000B"/>
<path d="M-127.869 123.847C-127.799 122.381 -127.328 120.948 -126.493 119.663C-125.658 118.378 -124.482 117.276 -123.059 116.445L150.822 -45.0419C153.271 -46.4796 156.289 -47.0361 159.218 -46.59C162.148 -46.1439 164.751 -44.7314 166.459 -42.6607L357.074 189.515C357.916 190.541 358.512 191.698 358.827 192.919C359.142 194.141 359.17 195.404 358.91 196.635C358.65 197.866 358.106 199.041 357.31 200.093C356.514 201.145 355.481 202.053 354.272 202.765L80.3649 364.246C77.917 365.682 74.9004 366.238 71.9725 365.792C69.0447 365.346 66.443 363.934 64.7345 361.865L-125.88 129.689C-127.285 127.982 -127.984 125.928 -127.869 123.847ZM357.646 195.298C357.741 193.483 357.127 191.693 355.898 190.206L165.284 -41.9696C163.795 -43.7755 161.526 -45.0073 158.973 -45.3959C156.419 -45.7844 153.788 -45.298 151.655 -44.043L-122.239 117.449C-123.479 118.174 -124.503 119.135 -125.231 120.255C-125.959 121.375 -126.37 122.623 -126.433 123.901C-126.528 125.716 -125.913 127.506 -124.685 128.993L65.9291 361.169C67.4185 362.975 69.6886 364.207 72.2435 364.595C74.7983 364.984 77.4303 364.497 79.5644 363.242L353.433 201.756C354.678 201.033 355.708 200.072 356.439 198.951C357.171 197.83 357.584 196.579 357.646 195.298Z" fill="#02000B"/>
<path d="M-130.378 109.08C-130.301 107.603 -129.808 106.163 -128.942 104.88C-128.075 103.598 -126.86 102.511 -125.397 101.71L146.121 -46.8182C148.551 -48.1451 151.501 -48.6003 154.325 -48.0843C157.149 -47.5683 159.618 -46.123 161.192 -44.0645L336.506 186.097C337.283 187.116 337.815 188.255 338.073 189.449C338.33 190.643 338.307 191.869 338.005 193.055C337.703 194.242 337.129 195.366 336.315 196.364C335.5 197.361 334.462 198.212 333.26 198.867L61.7355 347.4C59.3047 348.726 56.3555 349.18 53.5318 348.664C50.7081 348.148 48.2392 346.704 46.6643 344.646L-128.65 114.485C-129.875 112.88 -130.479 110.99 -130.378 109.08ZM336.799 191.454C336.89 189.794 336.363 188.152 335.293 186.762L159.985 -43.4058C158.617 -45.1909 156.473 -46.4438 154.022 -46.8909C151.571 -47.338 149.012 -46.9431 146.902 -45.7923L-124.609 102.735C-125.879 103.431 -126.934 104.375 -127.687 105.488C-128.44 106.601 -128.868 107.851 -128.936 109.134C-129.021 110.792 -128.492 112.431 -127.424 113.82L47.8842 343.988C49.251 345.773 51.3932 347.025 53.8432 347.472C56.2931 347.92 58.8518 347.525 60.9604 346.374L332.478 197.841C333.747 197.147 334.801 196.205 335.553 195.094C336.305 193.983 336.732 192.734 336.799 191.454Z" fill="#02000B"/>
<path d="M-132.869 94.3069C-132.798 92.816 -132.287 91.3641 -131.385 90.0841C-130.482 88.8042 -129.217 87.7368 -127.704 86.9798L141.425 -48.5947C143.839 -49.8067 146.719 -50.1582 149.436 -49.5725C152.154 -48.9868 154.489 -47.5115 155.931 -45.4684L315.952 182.69C316.664 183.702 317.133 184.824 317.333 185.991C317.533 187.157 317.459 188.346 317.117 189.489C316.775 190.631 316.17 191.705 315.337 192.648C314.505 193.591 313.461 194.385 312.267 194.985L43.1315 330.549C40.7182 331.762 37.8378 332.114 35.1197 331.529C32.4016 330.943 30.0669 329.466 28.6258 327.422L-131.427 99.2743C-132.467 97.7733 -132.968 96.0467 -132.869 94.3069ZM315.99 187.604C316.067 186.1 315.625 184.61 314.719 183.317L154.692 -44.8421C153.446 -46.6071 151.43 -47.8817 149.082 -48.3875C146.735 -48.8933 144.247 -48.5893 142.162 -47.5418L-126.998 88.0273C-128.302 88.6843 -129.392 89.6078 -130.169 90.714C-130.946 91.8201 -131.385 93.0738 -131.446 94.3609C-131.522 95.8645 -131.08 97.3544 -130.175 98.648L29.8521 326.807C31.0964 328.573 33.1131 329.848 35.4612 330.354C37.8092 330.86 40.2975 330.555 42.3818 329.506L311.529 193.943C312.837 193.287 313.931 192.364 314.71 191.256C315.489 190.149 315.929 188.893 315.99 187.604Z" fill="#02000B"/>
<path d="M-135.411 79.534C-135.327 78.0289 -134.789 76.5675 -133.847 75.2907C-132.906 74.014 -131.593 72.9649 -130.035 72.2448L136.761 -50.3711C139.155 -51.4618 141.958 -51.7061 144.562 -51.051C147.166 -50.3959 149.361 -48.8943 150.67 -46.8723L295.378 179.283C296.024 180.289 296.429 181.393 296.57 182.532C296.712 183.672 296.587 184.824 296.202 185.922C295.818 187.02 295.182 188.042 294.33 188.93C293.479 189.819 292.429 190.555 291.242 191.097L24.445 313.719C22.0473 314.818 19.2348 315.066 16.6225 314.409C14.0101 313.751 11.8105 312.241 10.5047 310.209L-134.203 84.0587C-135.079 82.6707 -135.496 81.1072 -135.411 79.534ZM295.232 183.743C295.301 182.387 294.932 181.041 294.165 179.85L149.399 -46.2837C148.269 -48.0239 146.378 -49.3157 144.135 -49.8796C141.892 -50.4435 139.478 -50.2341 137.416 -49.2966L-129.381 73.3192C-130.728 73.9308 -131.863 74.8311 -132.673 75.9309C-133.483 77.0306 -133.941 78.2914 -134 79.588C-134.068 80.9417 -133.702 82.2856 -132.939 83.4756L11.8009 309.626C12.9227 311.373 14.8134 312.672 17.0592 313.237C19.305 313.803 21.7231 313.59 23.7842 312.644L290.581 190.023C291.927 189.412 293.062 188.513 293.872 187.414C294.683 186.315 295.14 185.055 295.2 183.759L295.232 183.743Z" fill="#02000B"/>
<path d="M-137.99 64.7557C-137.914 63.2331 -137.354 61.7565 -136.371 60.4819C-135.388 59.2073 -134.018 58.1822 -132.405 57.5151L132.034 -52.1475C134.411 -53.1269 137.147 -53.2684 139.646 -52.5412C142.146 -51.8141 144.205 -50.2772 145.377 -48.2653L274.855 175.882C275.434 176.881 275.774 177.969 275.857 179.081C275.939 180.193 275.762 181.308 275.336 182.361C274.909 183.415 274.242 184.387 273.372 185.221C272.503 186.055 271.448 186.734 270.268 187.22L5.83464 296.872C3.45795 297.853 0.721283 297.995 -1.77838 297.268C-4.27805 296.541 -6.33783 295.003 -7.50838 292.99L-136.986 68.8431C-137.718 67.5735 -138.064 66.1681 -137.99 64.7557ZM274.411 179.904C274.473 178.696 274.176 177.495 273.546 176.411L144.106 -47.7254C143.105 -49.4525 141.34 -50.7721 139.196 -51.3955C137.053 -52.0189 134.706 -51.8952 132.67 -51.0514L-131.764 58.6112C-133.145 59.1818 -134.32 60.0591 -135.163 61.1501C-136.006 62.2412 -136.487 63.5056 -136.554 64.8097C-136.613 66.0189 -136.316 67.2214 -135.69 68.3085L-6.23761 292.45C-5.23523 294.176 -3.46962 295.495 -1.32661 296.118C0.816406 296.741 3.16258 296.618 5.19926 295.776L269.639 186.119C271.019 185.544 272.191 184.663 273.031 183.57C273.871 182.476 274.348 181.209 274.411 179.904Z" fill="#02000B"/>
</g>
</g>
</g>
</svg>
