<svg width="1440" height="1323" viewBox="0 0 1440 1323" fill="none" xmlns="http://www.w3.org/2000/svg">
<rect y="3.17761" width="1440" height="1311.74" fill="#02000B"/>
<g opacity="0.15">
<mask id="mask0_870_3134" style="mask-type:alpha" maskUnits="userSpaceOnUse" x="0" y="3" width="1440" height="1312">
<rect y="3.17761" width="1440" height="1311.74" fill="url(#paint0_linear_870_3134)"/>
</mask>
<g mask="url(#mask0_870_3134)">
<path d="M1219.53 645.807L1132.56 803.314L959.171 881.883H958.896L871.925 1039.39L698.532 1117.96H698.257L611.286 1275.47L494.59 1328.46H498.168L612.387 1276.58H612.662L699.633 1119.07L873.026 1040.5H873.301L960.272 882.994L1133.66 804.426H1133.94L1220.91 646.919L1394.3 568.351H1394.58L1451.83 464.581V461.246L1392.93 567.239L1219.53 645.807ZM1197.79 626.165L1110.82 783.672L937.428 862.241H937.153L850.182 1019.75L676.789 1098.32H676.514L589.268 1256.19L429.086 1328.83H432.664L590.093 1257.31H590.369L677.34 1099.8L850.732 1021.23H851.008L937.979 863.723L1111.37 785.155H1111.65L1198.62 627.647L1372.01 549.079H1372.29L1451.28 406.026V402.69L1371.18 547.967L1197.79 626.165ZM1284.49 232.212L1197.52 389.719L1024.12 468.287H1023.85L936.878 625.794L763.486 704.363H763.21L676.239 861.87L502.847 940.438H502.572L415.6 1097.95L242.208 1176.51H241.933L158.539 1327.72H160.19L243.033 1177.26L416.426 1098.69H416.701L503.672 941.18L677.065 862.611H677.34L764.311 705.104L937.704 626.536H937.979L1024.95 469.028L1198.34 390.46H1198.62L1285.59 233.323L1451.28 158.091V156.608L1284.49 232.212ZM1306.23 251.854L1219.26 409.361L1045.87 487.929H1045.59L958.621 645.437L785.229 724.005H784.953L697.982 881.512L524.59 960.08H524.314L437.343 1117.59L263.951 1196.16H263.675L191.016 1327.72H192.667L264.776 1197.27L438.169 1118.7H438.444L525.415 961.192L698.807 882.624H699.083L786.054 725.117L959.446 646.548H959.722L1046.69 489.041L1220.09 410.473H1220.36L1307.33 252.966L1451.28 187.739V186.257L1306.23 251.854ZM1414.67 822.956L1327.7 980.464L1154.31 1059.03H1154.03L1067.06 1216.54L893.667 1295.11H893.392L874.952 1328.46H876.603L894.218 1296.22L1067.61 1217.65H1067.89L1154.86 1060.14L1328.25 981.576H1328.52L1415.5 824.068L1451 808.132V806.65L1414.67 822.956ZM1436.41 842.969L1349.44 1000.48L1176.05 1079.04H1175.77L1088.8 1236.55L915.41 1315.12H915.135L907.704 1328.46H909.355L916.236 1315.86L1089.63 1237.29H1089.9L1176.87 1079.79L1350.27 1001.22H1350.54L1437.51 843.71L1451.28 837.41V835.928L1436.41 842.969ZM1263.02 685.091L1176.05 842.599L1002.66 921.167H1002.38L915.41 1078.67L742.018 1157.24H741.743L654.771 1314.75L625.047 1328.09H628.625L655.872 1315.86H656.148L743.119 1158.35L916.511 1079.79H916.786L1003.76 922.279L1177.15 843.71H1177.43L1264.4 686.203L1437.79 607.635H1438.06L1451.83 582.804V579.469L1436.96 606.523L1263.02 685.091ZM1241.28 665.449L1154.31 822.956L980.914 901.525H980.639L893.392 1059.4L720 1137.97H719.725L632.753 1295.48L559.543 1328.83H563.121L633.854 1296.96H634.129L721.101 1139.45L894.493 1060.89H894.768L981.74 903.378L1155.13 824.809H1155.41L1242.38 667.302L1415.77 588.734H1416.05L1451.55 524.619V521.284L1414.95 587.622L1241.28 665.449ZM1392.93 330.793L1305.96 488.3L1132.56 566.868H1132.29L1045.32 724.375L871.925 802.944H871.649L784.678 960.451L611.286 1039.02H611.01L524.039 1196.53L350.647 1275.09H350.372L321.198 1328.09H322.849L351.473 1276.21L524.865 1197.64H525.14L612.111 1040.13L785.504 961.563H785.779L872.75 804.056L1046.14 725.487H1046.42L1133.39 567.98L1306.78 489.412H1307.06L1394.03 331.904L1451.28 305.962V304.48L1392.93 330.793ZM1436.41 370.077L1349.44 527.584L1176.05 606.152H1175.77L1088.8 763.66L915.41 842.228H915.135L828.164 999.735L654.771 1078.3H654.496L567.525 1235.81L394.133 1314.38H393.857L386.426 1327.72H388.078L394.958 1315.12L568.35 1236.55H568.626L655.597 1079.04L828.989 1000.48H829.265L916.236 842.969L1089.63 764.401H1089.9L1176.87 606.894L1350.27 528.325H1350.54L1437.51 370.818L1451.28 364.518V363.035L1436.41 370.077ZM1414.67 350.435L1327.7 507.942L1154.31 586.51H1154.03L1067.34 744.388L893.943 822.956H893.667L806.696 980.834L633.304 1059.4H633.029L546.057 1216.91L372.665 1295.48H372.39L353.95 1328.83H355.601L373.215 1296.59L546.608 1218.02H546.883L633.854 1060.51L807.247 981.946H807.522L894.493 824.439L1067.89 745.871H1068.16L1155.13 588.363L1328.52 509.795H1328.8L1415.77 351.547L1451.28 335.611V334.128L1414.67 350.435ZM1327.7 271.496L1241 429.374L1067.61 507.942H1067.34L980.364 665.449L806.696 744.388H806.421L719.449 901.895L546.057 980.464H545.782L458.811 1137.97L285.418 1216.54H285.143L223.492 1328.46H225.144L286.244 1217.65L459.636 1139.08H459.911L546.883 981.576L720.275 903.007H720.55L807.522 745.5L980.914 666.932H981.189L1068.16 509.424L1241.55 430.856H1241.83L1328.8 273.349L1451 217.758V216.276L1327.7 271.496ZM1263.02 212.57L1175.77 370.077L1002.38 448.645H1002.11L915.135 606.152L741.743 684.721H741.468L654.496 842.228L481.104 920.796H480.829L393.857 1079.04L220.465 1157.61H220.19L133.218 1315.12L103.494 1328.46H107.072L134.319 1316.23H134.594L221.566 1158.72L394.958 1080.16H395.233L482.205 922.649L655.597 844.081H655.872L742.844 686.574L916.236 608.005H916.511L1003.48 450.498L1176.87 371.93H1177.15L1264.12 214.423L1437.51 135.854H1437.79L1451.55 111.024V106.947L1436.69 134.001L1263.02 212.57ZM1349.44 291.509L1262.47 449.016L1089.08 527.584H1088.8L1002.11 685.091L828.714 763.66H828.439L741.468 921.167L568.075 999.735H567.8L480.829 1157.24L307.436 1235.81H307.161L256.244 1328.83H257.896L308.262 1237.66L481.654 1159.1H481.93L568.901 1001.59L742.293 923.02H742.568L829.54 765.513L1002.93 686.944H1003.21L1090.18 529.437L1263.57 450.869H1263.85L1350.82 292.25L1451.55 246.665V245.183L1349.44 291.509ZM1392.93 803.314L1305.96 960.822L1132.56 1039.39H1132.29L1045.32 1196.9L871.925 1275.47H871.649L842.475 1328.83H844.127L872.75 1276.95L1046.14 1198.38H1046.42L1133.39 1040.87L1306.78 962.304H1307.06L1394.03 804.797L1451.28 778.854V777.372L1392.93 803.314ZM1414.67 113.989L1241.28 192.557H1241L1154.03 350.064L980.639 428.632H980.364L893.392 586.14L720 664.708H719.725L632.753 822.215L459.361 900.784H459.086L372.114 1059.4L198.722 1137.97H198.447L111.476 1295.48L38.2654 1328.83H41.8434L112.576 1296.96H112.852L199.823 1139.45L373.215 1060.89H373.491L460.462 903.378L633.854 824.809H634.129L721.101 667.302L894.493 588.734H894.768L981.74 431.227L1155.13 352.658H1155.41L1242.38 195.151L1415.77 116.583H1416.05L1451.55 52.4681V47.6502L1414.67 113.989ZM1371.18 311.151L1284.21 468.658L1110.82 547.226H1110.55L1023.57 704.733L850.182 783.302H849.907L762.935 940.809L589.543 1019.38H589.268L502.296 1176.88L328.904 1255.45H328.629L288.721 1328.09H290.372L329.73 1256.56L503.122 1178H503.397L590.369 1020.49L763.761 941.921H764.036L851.008 784.414L1024.4 705.845H1024.68L1111.65 548.338L1285.04 469.77H1285.31L1372.29 312.262L1451.28 276.314V274.831L1371.18 311.151ZM1327.7 1216.91L1266.05 1328.83H1267.7L1328.8 1218.02L1451 1162.43V1160.95L1327.7 1216.91ZM1349.44 1236.55L1298.52 1328.83H1300.18L1350.54 1237.66L1451.28 1192.08V1190.6L1349.44 1236.55ZM1284.49 1177.63L1201.09 1328.83H1202.75L1285.59 1178.37L1451.28 1103.13V1101.65L1284.49 1177.63ZM1371.18 1256.19L1331.28 1328.83H1332.93L1372.29 1257.31L1451.28 1221.36V1219.87L1371.18 1256.19ZM1263.02 1157.61L1176.05 1315.12L1146.32 1328.46H1149.9L1177.15 1316.23H1177.43L1264.4 1158.72L1437.79 1080.16H1438.06L1451.83 1055.33V1051.99L1436.96 1079.04L1263.02 1157.61ZM1436.41 1315.49L1428.98 1328.83H1430.63L1437.51 1316.23L1451.28 1309.93V1308.45L1436.41 1315.49ZM1414.67 1295.85L1396.23 1329.2H1397.88L1415.5 1296.96L1451 1281.02V1279.54L1414.67 1295.85ZM1371.18 783.672L1284.21 941.18L1110.82 1019.75H1110.55L1023.57 1177.26L850.182 1255.82H849.907L809.999 1328.46H811.65L851.008 1256.94L1024.4 1178.37H1024.68L1111.65 1020.86L1285.04 942.291H1285.31L1372.29 784.784L1451.28 748.835V747.353L1371.18 783.672ZM1392.93 1276.21L1363.75 1329.2H1365.4L1394.03 1277.32L1451.28 1251.38V1249.89L1392.93 1276.21ZM1241.28 1137.97L1154.31 1295.48L1081.1 1328.83H1084.67L1155.41 1296.96H1155.68L1242.65 1139.45L1416.05 1060.89H1416.32L1451.83 996.77V993.435L1414.67 1059.4L1241.28 1137.97ZM1306.23 724.746L1219.26 882.253L1045.87 960.822H1045.59L958.621 1118.33L785.229 1196.9H784.953L712.294 1328.46H713.945L786.054 1198.01L959.446 1119.44H959.722L1046.69 961.933L1220.09 883.365H1220.36L1307.33 725.858L1451.28 660.631V659.149L1306.23 724.746ZM1349.44 764.03L1262.47 921.537L1089.08 1000.11H1088.8L1002.11 1157.98L828.714 1236.55H828.439L777.522 1328.83H779.174L829.54 1237.66L1002.93 1159.1H1003.21L1090.18 1001.59L1263.57 923.02H1263.85L1350.82 765.513L1451.55 719.928V718.446L1349.44 764.03ZM1327.7 744.388L1240.73 901.895L1067.34 980.464H1067.06L980.088 1137.97L806.696 1216.54H806.421L744.77 1328.46H746.422L807.522 1217.65L980.914 1139.08H981.189L1068.16 981.576L1241.55 903.007H1241.83L1328.8 745.5L1451 689.909V688.427L1327.7 744.388ZM1284.49 705.104L1197.52 862.611L1024.12 941.18H1023.85L936.878 1098.69L763.486 1177.26H763.21L679.817 1328.46H681.468L764.311 1178L937.704 1099.43H937.979L1024.95 941.921L1198.34 863.352H1198.62L1285.59 705.845L1451.28 630.612V629.13L1284.49 705.104ZM1219.53 1118.33L1132.56 1275.84L1015.87 1328.83H1019.45L1133.66 1276.95H1133.94L1220.91 1119.44L1394.3 1040.87H1394.58L1451.83 937.103V933.767L1392.93 1039.76L1219.53 1118.33ZM1197.79 1098.69L1110.82 1256.19L950.639 1328.83H954.217L1111.65 1257.31H1111.92L1198.89 1099.8L1372.29 1021.23H1372.56L1451.55 878.177V874.841L1371.46 1020.12L1197.79 1098.69ZM1306.23 1197.27L1233.57 1328.83H1235.22L1307.33 1198.38L1451.28 1133.15V1131.67L1306.23 1197.27ZM91.1088 567.98L264.501 489.412H264.776L351.748 331.904L525.14 253.336H525.415L612.387 95.8289L785.779 17.2606H786.054L793.485 3.91882H791.834L784.953 16.5194L611.561 95.0877H611.286L524.314 252.595L350.922 331.163H350.647L263.675 488.671L90.2831 567.239H90.0079L3.03652 724.746L-10.7248 731.046V732.529L4.13742 725.858L91.1088 567.98ZM47.6231 765.142L134.594 607.635L307.987 529.066H308.262L395.233 371.559L568.626 292.991H568.901L655.872 135.484L829.265 56.9154H829.54L858.714 3.17761H857.062L828.439 55.0623L655.047 133.631H654.771L567.8 291.138L394.408 369.706H394.133L307.161 527.213L133.769 605.782H133.494L46.5222 763.289L-10.7248 789.231V790.714L47.6231 765.142ZM199.273 903.007L286.244 745.5L459.636 666.932H459.911L546.883 509.424L720.275 430.856H720.55L807.522 273.349L980.914 194.781H981.189L1068.44 36.5321L1141.65 3.17761H1138.07L1067.34 35.0497H1067.06L980.088 192.557L806.696 271.125H806.421L719.725 429.374L546.332 507.942H546.057L459.086 665.449L285.693 744.018H285.418L198.447 901.895L25.0546 980.464H24.7794L-10.7248 1044.95V1048.28L25.8803 981.576L199.273 903.007ZM177.805 883.365L264.776 725.858L438.169 647.29H438.444L525.415 489.782L698.807 411.214H699.083L786.054 253.707L959.446 175.138H959.722L1046.69 17.6312L1076.42 3.17761H1072.84L1045.59 15.4076H1045.32L958.346 172.915L784.953 251.483H784.678L697.707 408.99L524.314 487.559H524.039L437.068 645.066L263.675 723.634H263.4L176.429 881.141L3.03652 959.71H2.76129L-11 984.54V987.876L3.8622 960.822L177.805 883.365ZM33.8618 3.17761H30.5591L3.31174 15.4076L3.03652 15.7782L-10.7248 40.6087V43.9442L4.13742 16.89L33.8618 3.17761ZM112.852 824.068L199.548 666.561L372.94 587.993H373.215L460.187 430.485L633.579 351.917H633.854L720.826 194.41L894.218 115.842H894.493L956.419 3.17761H954.768L893.667 113.989L720.275 192.557H720L633.029 350.064L459.636 428.632H459.361L372.39 586.14L198.997 664.708H198.722L111.751 822.215L-10.7248 878.547V880.03L112.852 824.068ZM91.1088 804.426L178.08 646.919L351.473 568.351H351.748L438.719 410.843L612.111 332.275H612.387L699.358 174.768L872.75 96.1995H873.026L923.667 3.17761H922.016L871.649 94.3465L698.257 172.915H697.982L611.01 330.422L437.618 408.99H437.343L350.372 566.498L176.979 645.066H176.704L89.7327 802.573L-10.7248 848.899V850.381L91.1088 804.426ZM69.366 784.784L156.337 627.277L329.73 548.709H330.005L416.976 391.201L590.369 312.633H590.644L677.34 154.385L850.732 75.8162H851.008L891.19 3.17761H889.539L850.182 74.7044L676.789 153.273H676.514L589.268 311.151L415.875 389.719H415.6L328.629 547.226L155.236 625.794H154.961L67.9898 783.302L-10.7248 819.621V821.103L69.366 784.784ZM47.6231 1237.66L134.594 1080.16L307.987 1001.59H308.262L395.233 844.081L568.626 765.513H568.901L655.872 608.005L829.265 529.437H829.54L916.511 371.93L1089.9 293.362H1090.18L1177.15 135.854L1350.54 57.286H1350.82L1379.99 3.17761H1378.34L1349.72 55.0623L1176.32 133.631H1176.05L1089.08 291.138L915.686 369.706H915.41L828.439 527.213L655.047 605.782H654.771L567.8 763.289L394.408 841.857H394.133L307.161 999.365L133.769 1077.93H133.494L46.5222 1235.44L-10.7248 1261.38V1262.86L47.6231 1237.66ZM25.8803 1218.02L112.852 1060.51L286.244 981.946H286.519L373.491 824.439L546.883 745.871H547.158L634.129 588.363L807.522 509.795H807.797L894.493 351.547L1067.89 272.978H1068.16L1155.13 115.471L1328.52 36.9027H1328.8L1347.24 3.54822H1345.59L1327.97 35.7909L1154.58 114.359H1154.31L1067.34 271.866L893.943 350.435H893.667L806.696 507.942L633.304 586.51H633.029L546.057 744.388L372.665 822.956H372.39L285.418 980.464L112.026 1059.03H111.751L24.7794 1216.54L-10.7248 1233.22V1234.7L25.8803 1218.02ZM91.1088 1040.87L264.501 962.304H264.776L351.748 804.797L525.14 726.229H525.415L612.387 568.721L785.779 490.153H786.054L873.026 332.646L1046.42 254.077H1046.69L1133.66 96.5701L1307.06 18.0018H1307.33L1314.76 4.66003H1313.11L1306.23 17.2606L1132.84 95.8289H1132.56L1045.59 253.336L872.2 331.904H871.925L784.953 489.412L611.561 567.98H611.286L524.314 725.487L350.922 804.056H350.647L263.675 961.563L90.2831 1040.13H90.0079L3.03652 1197.27L-10.7248 1203.57V1205.05L4.13742 1198.38L91.1088 1040.87ZM221.015 922.649L307.987 765.142L481.379 686.574H481.654L568.626 529.066L742.018 450.498H742.293L829.54 292.25L1002.93 213.681H1003.21L1090.18 56.1742L1206.87 3.17761H1203.3L1089.08 55.0623H1088.8L1002.11 212.57L828.714 291.138H828.439L741.468 448.645L568.075 527.213H567.8L480.829 685.091L307.436 763.66H307.161L220.19 921.167L46.7974 999.735H46.5222L-10.7248 1103.88V1107.21L47.6231 1001.59L221.015 922.649ZM91.1088 1276.95L178.08 1119.44L351.473 1040.87H351.748L438.719 883.365L612.111 804.797H612.387L699.358 647.29L872.75 568.721H873.026L959.997 411.214L1133.39 332.646H1133.66L1220.64 175.138L1394.03 96.5701H1394.3L1444.94 3.17761H1443.29L1392.93 94.3465L1219.53 172.915H1219.26L1132.29 330.422L958.896 408.99H958.621L871.649 566.498L698.257 645.066H697.982L611.01 802.573L437.618 881.141H437.343L350.372 1038.65L176.979 1117.22H176.704L89.7327 1274.72L-10.7248 1321.79V1323.27L91.1088 1276.95ZM242.758 942.291L329.73 784.784L503.122 706.216H503.397L590.369 548.709L763.761 470.14H764.036L851.008 312.633L1024.4 234.065H1024.68L1111.65 76.5574L1271.83 3.17761H1268.25L1110.82 74.7044H1110.55L1023.57 232.212L850.182 310.78H849.907L762.935 468.287L589.543 546.856H589.268L502.296 704.363L328.904 782.931H328.629L241.657 940.438L68.2651 1019.01H67.9898L-10.7248 1163.17V1166.51L69.366 1021.23L242.758 942.291ZM134.594 843.71L221.566 686.203L394.958 607.635H395.233L482.205 450.128L655.597 371.559H655.872L742.844 214.052L916.236 135.484H916.511L988.896 3.17761H987.244L915.135 133.631L741.743 212.199H741.468L654.496 370.077L481.104 448.645H480.829L393.857 606.523L220.465 685.091H220.19L133.218 842.599L-10.7248 908.196V909.678L134.594 843.71ZM69.366 1257.31L156.337 1099.8L329.73 1021.23H330.005L416.976 863.723L590.369 785.155H590.644L677.615 627.647L851.008 549.079H851.283L938.254 391.572L1111.65 313.004H1111.92L1198.89 155.496L1372.29 76.9281H1372.56L1412.47 3.17761H1410.82L1371.46 74.7044L1198.07 153.273H1197.79L1110.82 310.78L937.428 389.348H937.153L850.182 546.856L676.789 625.424H676.514L589.268 783.672L415.875 862.241H415.6L328.629 1019.75L155.236 1098.32H154.961L67.9898 1255.82L-10.7248 1292.14V1293.63L69.366 1257.31ZM25.8803 745.5L112.852 587.993L286.244 509.424H286.519L373.491 351.547L546.883 272.978H547.158L634.129 115.471L807.522 36.9027H807.797L826.237 3.54822H824.586L806.696 35.4203L633.304 113.989H633.029L546.057 271.496L372.665 350.064H372.39L285.418 507.571L112.026 586.14H111.751L24.7794 744.388L-10.7248 760.324V761.807L25.8803 745.5ZM69.366 312.262L156.337 154.755L329.73 76.1869H330.005L369.913 3.17761H368.261L328.904 74.7044L155.512 153.273H155.236L68.2651 311.151L-10.7248 346.729V348.211L69.366 312.262ZM112.852 351.547L199.823 194.039L373.215 115.471H373.491L435.141 3.17761H433.49L372.39 113.989L198.997 192.557H198.722L111.476 350.435L-10.7248 406.026V407.508L112.852 351.547ZM134.594 371.189L221.566 213.681L394.958 135.113H395.233L467.618 3.17761H465.966L393.857 133.631L220.465 212.57H220.19L133.218 370.077L-10.7248 435.303V436.786L134.594 371.189ZM91.1088 331.904L178.08 174.397L351.473 95.8289H351.748L402.664 3.17761H401.013L350.647 94.3465L177.255 172.915H176.979L90.0079 330.793L-10.7248 376.377V377.86L91.1088 331.904ZM156.062 390.831L243.033 233.323L416.426 154.755H416.701L500.37 3.17761H498.443L415.6 153.643L242.208 232.212H241.933L154.961 389.719L-10.7248 464.952V466.434L156.062 390.831ZM99.0903 3.17761H95.5124L25.0546 35.0497H24.7794L-10.7248 99.535V102.87L25.8803 36.5321L99.0903 3.17761ZM229.547 3.17761H225.969L68.2651 74.7044H67.9898L-10.7248 217.758V221.094L69.366 75.8162L229.547 3.17761ZM164.319 3.17761H160.741L46.7974 55.0623H46.5222L-10.7248 158.832V162.167L47.6231 56.5448L164.319 3.17761ZM177.805 410.843L264.776 253.336L438.169 174.768H438.444L525.415 17.2606L555.14 3.17761H551.562L524.314 15.4076H524.039L437.068 172.915L263.675 251.483H263.4L176.429 408.99L3.03652 487.559H2.76129L-11 512.389V515.725L3.8622 488.671L177.805 410.843ZM47.6231 292.25L134.594 134.742L307.987 56.1742H308.262L337.436 3.17761H335.785L307.161 55.0623L133.769 133.631H133.494L46.5222 291.509L-10.7248 317.451V318.933L47.6231 292.25ZM242.758 469.77L329.73 312.262L503.122 233.694H503.397L590.369 76.1869L750.55 3.17761H746.972L589.543 74.7044H589.268L502.296 232.212L328.904 310.78H328.629L241.657 468.287L68.2651 546.856H67.9898L-10.7248 690.28V693.615L69.366 548.338L242.758 469.77ZM199.273 430.485L286.519 272.608L459.911 194.039H460.187L547.158 36.5321L620.368 3.17761H616.79L546.057 35.0497H545.782L458.811 192.557L285.418 271.125H285.143L198.447 429.374L25.0546 507.942H24.7794L-10.7248 572.427V575.763L25.8803 509.424L199.273 430.485ZM221.015 450.128L308.262 292.25L481.654 213.681H481.93L568.901 56.1742L685.597 3.17761H682.019L567.8 55.0623H567.525L480.553 212.57L307.161 291.138H306.886L219.915 448.645L46.5222 527.213H46.247L-10.7248 631.354V634.689L47.6231 529.066L221.015 450.128ZM25.8803 272.608L112.852 115.1L286.244 36.5321H286.519L304.959 3.17761H303.033L285.418 35.4203L112.026 113.989H111.751L24.7794 271.496L-10.7248 287.802V289.285L25.8803 272.608ZM91.1088 95.4583L264.501 16.89H264.776L272.207 3.54822H270.556L263.675 16.1488L90.2831 94.7171H90.0079L3.03652 251.854L-10.7248 258.154V259.636L4.13742 252.966L91.1088 95.4583ZM156.062 863.723L243.033 706.216L416.426 627.647H416.701L503.672 470.14L677.065 391.572H677.34L764.311 234.065L937.704 155.496H937.979L1021.65 3.17761H1020L937.153 153.643L763.761 232.212H763.486L676.514 389.719L503.122 468.287H502.847L415.875 625.794L242.483 704.363H242.208L155.236 861.87L-10.7248 937.474V938.956L156.062 863.723Z" fill="#F5F3FF"/>
</g>
</g>
<mask id="mask1_870_3134" style="mask-type:alpha" maskUnits="userSpaceOnUse" x="0" y="-5" width="1440" height="1320">
<rect y="-5" width="1440" height="1319.91" fill="url(#paint1_linear_870_3134)"/>
</mask>
<g mask="url(#mask1_870_3134)">
<path opacity="0.1" d="M1211.29 634.667L1125.66 791.448L954.94 869.655H954.669L869.039 1026.44L698.319 1104.64H698.048L612.418 1261.42L497.521 1314.18H501.043L613.501 1262.53H613.772L699.403 1105.75L870.122 1027.54H870.393L956.024 870.761L1126.74 792.555H1127.01L1212.65 635.774L1383.36 557.568H1383.64L1440 454.277V450.957L1382.01 556.461L1211.29 634.667ZM1189.88 615.116L1104.25 771.897L933.533 850.103H933.262L847.631 1006.88L676.911 1085.09H676.641L590.739 1242.24L433.027 1314.54H436.549L591.552 1243.35H591.823L677.453 1086.57L848.173 1008.36H848.444L934.075 851.579L1104.79 773.373H1105.06L1190.7 616.591L1361.41 538.385H1361.69L1439.46 395.991V392.671L1360.6 537.279L1189.88 615.116ZM1275.24 222.978L1189.61 379.76L1018.89 457.966H1018.62L932.991 614.747L762.271 692.953H762L676.37 849.734L505.65 927.94H505.379L419.748 1084.72L249.029 1162.93H248.758L166.65 1313.44H168.276L249.842 1163.67L420.561 1085.46H420.832L506.463 928.678L677.182 850.472H677.453L763.084 693.691L933.804 615.485H934.075L1019.71 458.703L1190.42 380.497H1190.7L1276.33 224.085L1439.46 149.199V147.723L1275.24 222.978ZM1296.65 242.53L1211.02 399.311L1040.3 477.517H1040.03L954.398 634.298L783.679 712.505H783.408L697.777 869.286L527.058 947.492H526.787L441.156 1104.27L270.437 1182.48H270.166L198.626 1313.44H200.252L271.25 1183.59L441.969 1105.38H442.24L527.871 948.599L698.59 870.392H698.861L784.492 713.611L955.211 635.405H955.482L1041.11 478.624L1211.83 400.418H1212.1L1297.73 243.637L1439.46 178.711V177.235L1296.65 242.53ZM1403.42 811L1317.79 967.781L1147.07 1045.99H1146.8L1061.17 1202.77L890.446 1280.97H890.175L872.019 1314.18H873.645L890.988 1282.08L1061.71 1203.88H1061.98L1147.61 1047.09L1318.33 968.888H1318.6L1404.23 812.107L1439.19 796.244V794.769L1403.42 811ZM1424.82 830.92L1339.19 987.702L1168.47 1065.91H1168.2L1082.57 1222.69L911.854 1300.9H911.583L904.266 1314.18H905.892L912.667 1301.63L1083.39 1223.43H1083.66L1169.29 1066.65L1340.01 988.439H1340.28L1425.91 831.658L1439.46 825.387V823.911L1424.82 830.92ZM1254.11 673.77L1168.47 830.552L997.756 908.758H997.485L911.854 1065.54L741.135 1143.74H740.864L655.233 1300.53L625.967 1313.81H629.489L656.317 1301.63H656.588L742.218 1144.85L912.938 1066.65H913.209L998.839 909.864L1169.56 831.658H1169.83L1255.46 674.877L1426.18 596.671H1426.45L1440 571.955V568.635L1425.37 595.564L1254.11 673.77ZM1232.7 654.219L1147.07 811L976.348 889.206H976.077L890.175 1046.36L719.456 1124.56H719.185L633.554 1281.34L561.473 1314.54H564.995L634.638 1282.82H634.909L720.54 1126.04L891.259 1047.83H891.53L977.161 891.051L1147.88 812.844H1148.15L1233.78 656.063L1404.5 577.857H1404.77L1439.73 514.038V510.718L1403.69 576.75L1232.7 654.219ZM1382.01 321.105L1296.38 477.886L1125.66 556.092H1125.39L1039.76 712.873L869.039 791.08H868.768L783.137 947.861L612.418 1026.07H612.147L526.516 1182.85L355.796 1261.05H355.525L326.801 1313.81H328.427L356.609 1262.16L527.329 1183.95H527.6L613.23 1027.17L783.95 948.968H784.221L869.852 792.186L1040.57 713.98H1040.84L1126.47 557.199L1297.19 478.993H1297.46L1383.09 322.212L1439.46 296.389V294.913L1382.01 321.105ZM1424.82 360.208L1339.19 516.989L1168.47 595.195H1168.2L1082.57 751.977L911.854 830.183H911.583L825.952 986.964L655.233 1065.17H654.962L569.331 1221.95L398.612 1300.16H398.341L391.024 1313.44H392.65L399.425 1300.9L570.144 1222.69H570.415L656.046 1065.91L826.765 987.702H827.036L912.667 830.92L1083.39 752.714H1083.66L1169.29 595.933L1340.01 517.727H1340.28L1425.91 360.946L1439.46 354.674V353.199L1424.82 360.208ZM1403.42 340.656L1317.79 497.438L1147.07 575.644H1146.8L1061.44 732.794L890.717 811H890.446L804.816 968.15L634.096 1046.36H633.825L548.195 1203.14L377.475 1281.34H377.204L359.048 1314.54H360.674L378.017 1282.45L548.737 1204.24H549.008L634.638 1047.46L805.358 969.257H805.628L891.259 812.476L1061.98 734.269H1062.25L1147.88 577.488L1318.6 499.282H1318.87L1404.5 341.763L1439.46 325.901V324.425L1403.42 340.656ZM1317.79 262.081L1232.43 419.231L1061.71 497.438H1061.44L975.806 654.219L804.816 732.794H804.545L718.914 889.575L548.195 967.781H547.924L462.293 1124.56L291.573 1202.77H291.302L230.602 1314.18H232.228L292.386 1203.88L463.106 1125.67H463.377L549.008 968.888L719.727 890.682H719.998L805.628 733.901L976.348 655.694H976.619L1062.25 498.913L1232.97 420.707H1233.24L1318.87 263.926L1439.19 208.591V207.116L1317.79 262.081ZM1254.11 203.427L1168.2 360.208L997.485 438.414H997.214L911.583 595.195L740.864 673.401H740.593L654.962 830.183L484.242 908.389H483.972L398.341 1065.91L227.621 1144.11H227.35L141.72 1300.9L112.454 1314.18H115.976L142.804 1302H143.075L228.705 1145.22L399.425 1067.01H399.696L485.326 910.233L656.046 832.027H656.317L741.947 675.246L912.667 597.04H912.938L998.568 440.259L1169.29 362.052H1169.56L1255.19 205.271L1425.91 127.065H1426.18L1439.73 102.349V98.2911L1425.1 125.221L1254.11 203.427ZM1339.19 282.002L1253.56 438.783L1082.84 516.989H1082.57L997.214 673.77L826.494 751.977H826.223L740.593 908.758L569.873 986.964H569.602L483.972 1143.74L313.252 1221.95H312.981L262.849 1314.54H264.475L314.065 1223.8L484.784 1145.59H485.055L570.686 988.808L741.406 910.602H741.677L827.307 753.821L998.026 675.615H998.297L1083.93 518.834L1254.65 440.628H1254.92L1340.55 282.74L1439.73 237.365V235.89L1339.19 282.002ZM1382.01 791.448L1296.38 948.23L1125.66 1026.44H1125.39L1039.76 1183.22L869.039 1261.42H868.768L840.043 1314.54H841.669L869.852 1262.9L1040.57 1184.69H1040.84L1126.47 1027.91L1297.19 949.705H1297.46L1383.09 792.924L1439.46 767.101V765.626L1382.01 791.448ZM1403.42 105.3L1232.7 183.506H1232.43L1146.8 340.288L976.077 418.494H975.806L890.175 575.275L719.456 653.481H719.185L633.554 810.262L462.835 888.468H462.564L376.933 1046.36L206.214 1124.56H205.943L120.312 1281.34L48.2306 1314.54H51.7534L121.396 1282.82H121.667L207.298 1126.04L378.017 1047.83H378.288L463.919 891.051L634.638 812.844H634.909L720.54 656.063L891.259 577.857H891.53L977.161 421.076L1147.88 342.87H1148.15L1233.78 186.089L1404.5 107.882H1404.77L1439.73 44.0633V39.2676L1403.42 105.3ZM1360.6 301.553L1274.97 458.335L1104.25 536.541H1103.98L1018.35 693.322L847.631 771.528H847.36L761.729 928.309L591.01 1006.52H590.739L505.108 1163.3L334.389 1241.5H334.118L294.825 1313.81H296.451L335.202 1242.61L505.921 1164.4H506.192L591.823 1007.62L762.542 929.416H762.813L848.444 772.635L1019.16 694.429H1019.43L1105.06 537.647L1275.78 459.441H1276.06L1361.69 302.66L1439.46 266.877V265.401L1360.6 301.553ZM1317.79 1203.14L1257.09 1314.54H1258.71L1318.87 1204.24L1439.19 1148.91V1147.43L1317.79 1203.14ZM1339.19 1222.69L1289.06 1314.54H1290.69L1340.28 1223.8L1439.46 1178.42V1176.95L1339.19 1222.69ZM1275.24 1164.03L1193.13 1314.54H1194.76L1276.33 1164.77L1439.46 1089.89V1088.41L1275.24 1164.03ZM1360.6 1242.24L1321.31 1314.54H1322.94L1361.69 1243.35L1439.46 1207.56V1206.09L1360.6 1242.24ZM1254.11 1144.11L1168.47 1300.9L1139.21 1314.18H1142.73L1169.56 1302H1169.83L1255.46 1145.22L1426.18 1067.01H1426.45L1440 1042.3V1038.98L1425.37 1065.91L1254.11 1144.11ZM1424.82 1301.26L1417.51 1314.54H1419.13L1425.91 1302L1439.46 1295.73V1294.26L1424.82 1301.26ZM1403.42 1281.71L1385.26 1314.91H1386.89L1404.23 1282.82L1439.19 1266.96V1265.48L1403.42 1281.71ZM1360.6 771.897L1274.97 928.678L1104.25 1006.88H1103.98L1018.35 1163.67L847.631 1241.87H847.36L808.067 1314.18H809.693L848.444 1242.98L1019.16 1164.77H1019.43L1105.06 1007.99L1275.78 929.785H1276.06L1361.69 773.004L1439.46 737.221V735.745L1360.6 771.897ZM1382.01 1262.16L1353.29 1314.91H1354.91L1383.09 1263.27L1439.46 1237.44V1235.97L1382.01 1262.16ZM1232.7 1124.56L1147.07 1281.34L1074.99 1314.54H1078.51L1148.15 1282.82H1148.42L1234.05 1126.04L1404.77 1047.83H1405.04L1440 984.013V980.693L1403.42 1046.36L1232.7 1124.56ZM1296.65 713.242L1211.02 870.023L1040.3 948.23H1040.03L954.398 1105.01L783.679 1183.22H783.408L711.868 1314.18H713.494L784.492 1184.32L955.211 1106.12H955.482L1041.11 949.336L1211.83 871.13H1212.1L1297.73 714.349L1439.46 649.423V647.948L1296.65 713.242ZM1339.19 752.345L1253.56 909.127L1082.84 987.333H1082.57L997.214 1144.48L826.494 1222.69H826.223L776.091 1314.54H777.717L827.307 1223.8L998.026 1145.59H998.297L1083.93 988.808L1254.65 910.602H1254.92L1340.55 753.821L1439.73 708.447V706.971L1339.19 752.345ZM1317.79 732.794L1232.16 889.575L1061.44 967.781H1061.17L975.535 1124.56L804.816 1202.77H804.545L743.844 1314.18H745.47L805.628 1203.88L976.348 1125.67H976.619L1062.25 968.888L1232.97 890.682H1233.24L1318.87 733.901L1439.19 678.566V677.09L1317.79 732.794ZM1275.24 693.691L1189.61 850.472L1018.89 928.678H1018.62L932.991 1085.46L762.271 1163.67H762L679.892 1314.18H681.518L763.084 1164.4L933.804 1086.2H934.075L1019.71 929.416L1190.42 851.21H1190.7L1276.33 694.429L1439.46 619.543V618.067L1275.24 693.691ZM1211.29 1105.01L1125.66 1261.79L1010.76 1314.54H1014.29L1126.74 1262.9H1127.01L1212.65 1106.12L1383.36 1027.91H1383.64L1440 924.62V921.3L1382.01 1026.8L1211.29 1105.01ZM1189.88 1085.46L1104.25 1242.24L946.54 1314.54H950.063L1105.06 1243.35H1105.34L1190.97 1086.57L1361.69 1008.36H1361.96L1439.73 865.966V862.646L1360.87 1007.25L1189.88 1085.46ZM1296.65 1183.59L1225.11 1314.54H1226.74L1297.73 1184.69L1439.46 1119.77V1118.29L1296.65 1183.59ZM100.259 557.199L270.979 478.993H271.25L356.88 322.212L527.6 244.005H527.871L613.501 87.2242L784.221 9.01808H784.492L791.808 -4.26221H790.182L783.408 8.28029L612.689 86.4864H612.418L526.787 243.268L356.067 321.474H355.796L270.166 478.255L99.4464 556.461H99.1754L13.5447 713.242L-0.00440747 719.514V720.989L14.6287 714.349L100.259 557.199ZM57.444 753.452L143.075 596.671L313.794 518.465H314.065L399.696 361.684L570.415 283.477H570.686L656.317 126.696L827.036 48.4901H827.307L856.031 -5H854.405L826.223 46.6456L655.504 124.852H655.233L569.602 281.633L398.883 359.839H398.612L312.981 516.62L142.262 594.826H141.991L56.3601 751.608L-0.00440747 777.43V778.906L57.444 753.452ZM206.756 890.682L292.386 733.901L463.106 655.694H463.377L549.008 498.913L719.727 420.707H719.998L805.628 263.926L976.348 185.72H976.619L1062.52 28.2007L1134.6 -5H1131.08L1061.44 26.7251H1061.17L975.535 183.506L804.816 261.712H804.545L719.185 419.231L548.465 497.438H548.195L462.564 654.219L291.844 732.425H291.573L205.943 889.575L35.2234 967.781H34.9524L-0.00440747 1031.97V1035.29L36.0364 968.888L206.756 890.682ZM185.619 871.13L271.25 714.349L441.969 636.143H442.24L527.871 479.362L698.59 401.156H698.861L784.492 244.374L955.211 166.168H955.482L1041.11 9.38698L1070.38 -5H1066.86L1040.03 7.1736H1039.76L954.127 163.955L783.408 242.161H783.137L697.506 398.942L526.787 477.148H526.516L440.885 633.93L270.166 712.136H269.895L184.264 868.917L13.5447 947.123H13.2738L-0.275391 971.839V975.159L14.3577 948.23L185.619 871.13ZM43.8949 -5H40.6431L13.8157 7.1736L13.5447 7.5425L-0.00440747 32.2586V35.5787L14.6287 8.64919L43.8949 -5ZM121.667 812.107L207.027 655.326L377.746 577.119H378.017L463.648 420.338L634.367 342.132H634.638L720.269 185.351L890.988 107.145H891.259L952.23 -5H950.604L890.446 105.3L719.727 183.506H719.456L633.825 340.288L463.106 418.494H462.835L377.204 575.275L206.485 653.481H206.214L120.583 810.262L-0.00440747 866.335V867.81L121.667 812.107ZM100.259 792.555L185.89 635.774L356.609 557.568H356.88L442.511 400.787L613.23 322.581H613.501L699.132 165.799L869.852 87.5931H870.122L919.983 -5H918.357L868.768 85.7486L698.048 163.955H697.777L612.147 320.736L441.427 398.942H441.156L355.525 555.723L184.806 633.93H184.535L98.9044 790.711L-0.00440747 836.823V838.298L100.259 792.555ZM78.8517 773.004L164.482 616.222L335.202 538.016H335.473L421.103 381.235L591.823 303.029H592.094L677.453 145.51L848.173 67.3038H848.444L888.007 -5H886.382L847.631 66.1971L676.911 144.403H676.641L590.739 301.553L420.02 379.76H419.748L334.118 536.541L163.398 614.747H163.127L77.4968 771.528L-0.00440747 807.68V809.156L78.8517 773.004ZM57.444 1223.8L143.075 1067.01L313.794 988.808H314.065L399.696 832.027L570.415 753.821H570.686L656.317 597.04L827.036 518.834H827.307L912.938 362.052L1083.66 283.846H1083.93L1169.56 127.065L1340.28 48.859H1340.55L1369.27 -5H1367.65L1339.47 46.6456L1168.75 124.852H1168.47L1082.84 281.633L912.125 359.839H911.854L826.223 516.62L655.504 594.826H655.233L569.602 751.608L398.883 829.814H398.612L312.981 986.595L142.262 1064.8H141.991L56.3601 1221.58L-0.00440747 1247.41V1248.88L57.444 1223.8ZM36.0364 1204.24L121.667 1047.46L292.386 969.257H292.657L378.288 812.476L549.008 734.269H549.278L634.909 577.488L805.628 499.282H805.899L891.259 341.763L1061.98 263.557H1062.25L1147.88 106.776L1318.6 28.5696H1318.87L1337.03 -4.6311H1335.4L1318.06 27.4629L1147.34 105.669H1147.07L1061.44 262.45L890.717 340.656H890.446L804.816 497.438L634.096 575.644H633.825L548.195 732.794L377.475 811H377.204L291.573 967.781L120.854 1045.99H120.583L34.9524 1202.77L-0.00440747 1219.37V1220.84L36.0364 1204.24ZM100.259 1027.91L270.979 949.705H271.25L356.88 792.924L527.6 714.718H527.871L613.501 557.937L784.221 479.731H784.492L870.122 322.949L1040.84 244.743H1041.11L1126.74 87.962L1297.46 9.75588H1297.73L1305.05 -3.52441H1303.42L1296.65 9.01808L1125.93 87.2242H1125.66L1040.03 244.005L869.31 322.212H869.039L783.408 478.993L612.689 557.199H612.418L526.787 713.98L356.067 792.186H355.796L270.166 948.968L99.4464 1027.17H99.1754L13.5447 1183.59L-0.00440747 1189.86V1191.33L14.6287 1184.69L100.259 1027.91ZM228.163 910.233L313.794 753.452L484.513 675.246H484.784L570.415 518.465L741.135 440.259H741.406L827.307 282.74L998.026 204.533H998.297L1083.93 47.7523L1198.83 -5H1195.3L1082.84 46.6456H1082.57L997.214 203.427L826.494 281.633H826.223L740.593 438.414L569.873 516.62H569.602L483.972 673.77L313.252 751.977H312.981L227.35 908.758L56.6311 986.964H56.3601L-0.00440747 1090.62V1093.94L57.444 988.808L228.163 910.233ZM100.259 1262.9L185.89 1106.12L356.609 1027.91H356.88L442.511 871.13L613.23 792.924H613.501L699.132 636.143L869.852 557.937H870.122L955.753 401.156L1126.47 322.949H1126.74L1212.37 166.168L1383.09 87.962H1383.36L1433.23 -5H1431.6L1382.01 85.7486L1211.29 163.955H1211.02L1125.39 320.736L954.669 398.942H954.398L868.768 555.723L698.048 633.93H697.777L612.147 790.711L441.427 868.917H441.156L355.525 1025.7L184.806 1103.9H184.535L98.9044 1260.69L-0.00440747 1307.54V1309.01L100.259 1262.9ZM249.571 929.785L335.202 773.004L505.921 694.797H506.192L591.823 538.016L762.542 459.81H762.813L848.444 303.029L1019.16 224.823H1019.43L1105.06 68.0416L1262.78 -5H1259.25L1104.25 66.1971H1103.98L1018.35 222.978L847.631 301.184H847.36L761.729 457.966L591.01 536.172H590.739L505.108 692.953L334.389 771.159H334.118L248.487 927.94L77.7678 1006.15H77.4968L-0.00440747 1149.65V1152.97L78.8517 1008.36L249.571 929.785ZM143.075 831.658L228.705 674.877L399.425 596.671H399.696L485.326 439.89L656.046 361.684H656.317L741.947 204.902L912.667 126.696H912.938L984.206 -5H982.581L911.583 124.852L740.864 203.058H740.593L654.962 360.208L484.242 438.414H483.972L398.341 595.564L227.621 673.77H227.35L141.72 830.552L-0.00440747 895.846V897.322L143.075 831.658ZM78.8517 1243.35L164.482 1086.57L335.202 1008.36H335.473L421.103 851.579L591.823 773.373H592.094L677.724 616.591L848.444 538.385H848.715L934.345 381.604L1105.06 303.398H1105.34L1190.97 146.617L1361.69 68.4105H1361.96L1401.25 -5H1399.62L1360.87 66.1971L1190.15 144.403H1189.88L1104.25 301.184L933.533 379.391H933.262L847.631 536.172L676.911 614.378H676.641L590.739 771.897L420.02 850.103H419.748L334.118 1006.88L163.398 1085.09H163.127L77.4968 1241.87L-0.00440747 1278.02V1279.5L78.8517 1243.35ZM36.0364 733.901L121.667 577.119L292.386 498.913H292.657L378.288 341.763L549.008 263.557H549.278L634.909 106.776L805.628 28.5696H805.899L824.055 -4.6311H822.429L804.816 27.094L634.096 105.3H633.825L548.195 262.081L377.475 340.288H377.204L291.573 497.069L120.854 575.275H120.583L34.9524 732.794L-0.00440747 748.656V750.132L36.0364 733.901ZM78.8517 302.66L164.482 145.879L335.202 67.6727H335.473L374.765 -5H373.139L334.389 66.1971L163.669 144.403H163.398L77.7678 301.553L-0.00440747 336.967V338.443L78.8517 302.66ZM121.667 341.763L207.298 184.982L378.017 106.776H378.288L438.988 -5H437.362L377.204 105.3L206.485 183.506H206.214L120.312 340.656L-0.00440747 395.991V397.467L121.667 341.763ZM143.075 361.315L228.705 204.533L399.425 126.327H399.696L470.964 -5H469.338L398.341 124.852L227.621 203.427H227.35L141.72 360.208L-0.00440747 425.134V426.609L143.075 361.315ZM100.259 322.212L185.89 165.43L356.609 87.2242H356.88L407.012 -5H405.386L355.796 85.7486L185.077 163.955H184.806L99.1754 321.105L-0.00440747 366.479V367.955L100.259 322.212ZM164.211 380.866L249.842 224.085L420.561 145.879H420.832L503.211 -5H501.314L419.748 144.772L249.029 222.978H248.758L163.127 379.76L-0.00440747 454.646V456.121L164.211 380.866ZM108.118 -5H104.595L35.2234 26.7251H34.9524L-0.00440747 90.9132V94.2333L36.0364 28.2007L108.118 -5ZM236.564 -5H233.041L77.7678 66.1971H77.4968L-0.00440747 208.591V211.911L78.8517 67.3038L236.564 -5ZM172.341 -5H168.818L56.6311 46.6456H56.3601L-0.00440747 149.937V153.257L57.444 48.1212L172.341 -5ZM185.619 400.787L271.25 244.005L441.969 165.799H442.24L527.871 9.01808L557.137 -5H553.614L526.787 7.1736H526.516L440.885 163.955L270.166 242.161H269.895L184.264 398.942L13.5447 477.148H13.2738L-0.275391 501.864V505.184L14.3577 478.255L185.619 400.787ZM57.444 282.74L143.075 125.958L313.794 47.7523H314.065L342.789 -5H341.163L312.981 46.6456L142.262 124.852H141.991L56.3601 282.002L-0.00440747 307.825V309.3L57.444 282.74ZM249.571 459.441L335.202 302.66L505.921 224.454H506.192L591.823 67.6727L749.535 -5H746.012L591.01 66.1971H590.739L505.108 222.978L334.389 301.184H334.118L248.487 457.966L77.7678 536.172H77.4968L-0.00440747 678.935V682.255L78.8517 537.647L249.571 459.441ZM206.756 420.338L292.657 263.188L463.377 184.982H463.648L549.278 28.2007L621.36 -5H617.837L548.195 26.7251H547.924L462.293 183.506L291.573 261.712H291.302L205.943 419.231L35.2234 497.438H34.9524L-0.00440747 561.626V564.946L36.0364 498.913L206.756 420.338ZM228.163 439.89L314.065 282.74L484.784 204.533H485.055L570.686 47.7523L685.583 -5H682.06L569.602 46.6456H569.331L483.701 203.427L312.981 281.633H312.71L227.079 438.414L56.3601 516.62H56.0891L-0.00440747 620.28V623.6L57.444 518.465L228.163 439.89ZM36.0364 263.188L121.667 106.407L292.386 28.2007H292.657L310.813 -5H308.916L291.573 27.094L120.854 105.3H120.583L34.9524 262.081L-0.00440747 278.313V279.788L36.0364 263.188ZM100.259 86.8553L270.979 8.64919H271.25L278.566 -4.6311H276.94L270.166 7.91139L99.4464 86.1175H99.1754L13.5447 242.53L-0.00440747 248.801V250.277L14.6287 243.637L100.259 86.8553ZM164.211 851.579L249.842 694.797L420.561 616.591H420.832L506.463 459.81L677.182 381.604H677.453L763.084 224.823L933.804 146.617H934.075L1016.45 -5H1014.83L933.262 144.772L762.542 222.978H762.271L676.641 379.76L505.921 457.966H505.65L420.02 614.747L249.3 692.953H249.029L163.398 849.734L-0.00440747 924.989V926.465L164.211 851.579Z" fill="#F5F3FF"/>
</g>
<path d="M1475.3 899.421L1505.19 1004L1345.71 996.037L1322.03 886.152L1475.3 899.421Z" fill="#F95A00" fill-opacity="0.1"/>
<path d="M-145 565.281L100 677.593V841.694L-145 723.142V565.281Z" fill="#85DAFF" fill-opacity="0.08"/>
<defs>
<linearGradient id="paint0_linear_870_3134" x1="720" y1="3.17761" x2="720" y2="1314.91" gradientUnits="userSpaceOnUse">
<stop stop-color="#FDFEFF" stop-opacity="0.69"/>
<stop offset="1" stop-color="#FDFEFF" stop-opacity="0.33"/>
</linearGradient>
<linearGradient id="paint1_linear_870_3134" x1="720" y1="-5" x2="720" y2="1314.91" gradientUnits="userSpaceOnUse">
<stop stop-color="#FDFEFF" stop-opacity="0.69"/>
<stop offset="1" stop-color="#FDFEFF" stop-opacity="0.33"/>
</linearGradient>
</defs>
</svg>
