<svg width="476" height="534" viewBox="0 0 476 534" fill="none" xmlns="http://www.w3.org/2000/svg">
<g filter="url(#filter0_d_460_602)">
<rect x="20" y="10" width="209.77" height="238.506" rx="5" fill="#FCFBFF"/>
</g>
<path d="M125.179 106.008C124.419 106.009 123.668 105.845 122.977 105.529L102.191 96.0419V106.466C102.191 107.265 102.422 108.047 102.857 108.716C103.292 109.386 103.912 109.915 104.642 110.239L123.504 118.622C124.57 119.095 125.788 119.095 126.854 118.622L145.716 110.239C146.446 109.915 147.066 109.386 147.501 108.716C147.936 108.047 148.168 107.265 148.167 106.466V96.0419L127.382 105.529C126.691 105.845 125.94 106.009 125.179 106.008H125.179Z" fill="#02000B"/>
<path d="M154.324 86.1264L125.914 73.1592C125.447 72.9469 124.912 72.9469 124.445 73.1592L96.0352 86.1264C95.6213 86.315 95.2959 86.6556 95.1266 87.0779C94.9578 87.5002 94.9578 87.9709 95.1266 88.3932C95.2959 88.8155 95.6213 89.1561 96.0352 89.3447L124.445 102.312C124.912 102.524 125.447 102.524 125.914 102.312L151.823 90.4872V102.235C151.823 102.867 152.16 103.451 152.707 103.767C153.254 104.083 153.928 104.083 154.475 103.767C155.022 103.451 155.359 102.867 155.359 102.235V87.7355C155.359 87.3966 155.262 87.0644 155.079 86.7789C154.895 86.4939 154.634 86.2674 154.325 86.1264L154.324 86.1264Z" fill="#02000B"/>
<path d="M46.208 162.287H61.184V158.991H49.952V152.047H58.72V148.783H49.952V143.151H60.832V139.887H46.208V162.287ZM70.9898 162.543C73.1338 162.543 75.0858 161.583 75.8538 160.239V162.287H79.3418V139.631H75.8538V148.175C74.8938 146.831 73.0058 145.903 70.9258 145.903C66.0618 145.903 63.2778 149.359 63.2778 154.223C63.2778 159.087 66.0618 162.543 70.9898 162.543ZM71.4378 159.503C68.6218 159.503 66.7658 157.391 66.7658 154.223C66.7658 151.023 68.6218 148.943 71.4378 148.943C74.2538 148.943 76.1098 151.023 76.1098 154.223C76.1098 157.391 74.2538 159.503 71.4378 159.503ZM98.0783 146.159H94.5903V153.231C94.5903 157.103 92.9583 159.407 90.2703 159.407C88.2223 159.407 86.9423 157.999 86.9423 155.983V146.159H83.4543V156.783C83.4543 160.271 85.8543 162.543 89.3103 162.543C91.6463 162.543 93.5343 161.327 94.5903 159.599V162.287H98.0783V146.159ZM109.436 162.543C113.372 162.543 116.156 160.527 116.828 157.167L113.404 156.495C113.02 158.383 111.58 159.503 109.532 159.503C106.78 159.503 104.956 157.423 104.956 154.223C104.956 151.023 106.748 148.943 109.532 148.943C111.58 148.943 113.084 150.191 113.404 152.015L116.796 151.343C116.252 148.015 113.404 145.903 109.436 145.903C104.604 145.903 101.34 149.263 101.34 154.223C101.34 159.183 104.604 162.543 109.436 162.543ZM126.036 145.903C122.612 145.903 119.86 147.983 119.348 151.151L122.484 151.727C122.708 149.807 124.084 148.655 126.036 148.655C128.148 148.655 129.524 149.871 129.524 151.855V152.079L126.484 152.399C121.524 152.911 119.06 154.607 119.06 157.775C119.06 160.527 121.268 162.543 124.468 162.543C126.612 162.543 128.596 161.455 129.524 159.823V162.287H132.948V152.239C132.948 148.207 130.132 145.903 126.036 145.903ZM125.172 159.855C123.54 159.855 122.484 158.959 122.484 157.679C122.484 156.271 123.828 155.311 126.452 155.023L129.524 154.671V155.343C129.492 157.967 127.892 159.855 125.172 159.855ZM145.981 162.159L145.757 159.055C145.149 159.343 144.413 159.439 143.805 159.439C142.493 159.439 141.597 158.607 141.597 157.007V149.135H145.757V146.159H141.597V141.359H138.109V146.159H135.293V149.135H138.109V157.199C138.109 160.879 140.381 162.543 143.421 162.543C144.317 162.543 145.213 162.415 145.981 162.159ZM150.651 143.471C151.963 143.471 152.955 142.479 152.955 141.231C152.955 139.951 151.963 138.959 150.651 138.959C149.371 138.959 148.411 139.951 148.411 141.231C148.411 142.479 149.371 143.471 150.651 143.471ZM148.923 162.287H152.411V146.159H148.923V162.287ZM164.004 162.543C168.836 162.543 172.324 159.055 172.324 154.223C172.324 149.391 168.836 145.903 164.004 145.903C159.14 145.903 155.684 149.391 155.684 154.223C155.684 159.055 159.14 162.543 164.004 162.543ZM164.004 159.503C161.124 159.503 159.204 157.327 159.204 154.223C159.204 151.119 161.124 148.943 164.004 148.943C166.852 148.943 168.804 151.119 168.804 154.223C168.804 157.327 166.852 159.503 164.004 159.503ZM175.548 162.287H179.036V155.215C179.036 151.343 180.668 149.039 183.388 149.039C185.436 149.039 186.684 150.447 186.684 152.463V162.287H190.172V151.663C190.172 148.175 187.772 145.903 184.348 145.903C181.98 145.903 180.124 147.119 179.036 148.847V146.159H175.548V162.287Z" fill="#02000B"/>
<g filter="url(#filter1_d_460_602)">
<rect x="20" y="265" width="209.77" height="238.506" rx="5" fill="#FCFBFF"/>
</g>
<path fill-rule="evenodd" clip-rule="evenodd" d="M152.797 375.98V330H96V375.98H152.797ZM131.161 353.417V365.996L137.922 362.615L144.684 365.996V353.417C145.538 352.132 146.036 350.59 146.036 348.933C146.036 344.453 142.401 340.819 137.922 340.819C133.444 340.819 129.808 344.453 129.808 348.933C129.808 350.59 130.306 352.132 131.161 353.417H131.161ZM116.285 362.456H105.466V365.16H116.285V362.456ZM133.865 355.959V361.62L137.922 359.592L141.979 361.62V355.959C140.786 356.652 139.399 357.047 137.922 357.047C136.445 357.047 135.058 356.652 133.865 355.959ZM124.399 357.047H105.466V359.751H124.399V357.047ZM124.399 351.637H105.466V354.342H124.399V351.637ZM137.922 343.524C140.908 343.524 143.331 345.947 143.331 348.933C143.331 351.918 140.908 354.342 137.922 354.342C134.936 354.342 132.513 351.918 132.513 348.933C132.513 345.947 134.936 343.524 137.922 343.524ZM124.399 346.228H105.466V348.933H124.399V346.228ZM124.399 340.819H105.466V343.524H124.399V340.819Z" fill="#02000B"/>
<path d="M92.168 419.33H96.072L101.032 402.242L105.96 419.33H109.928L116.52 396.93H112.648L107.88 414.914L103.08 396.93H98.952L94.12 414.914L89.384 396.93H85.512L92.168 419.33ZM124.942 419.586C129.774 419.586 133.262 416.098 133.262 411.266C133.262 406.434 129.774 402.946 124.942 402.946C120.078 402.946 116.622 406.434 116.622 411.266C116.622 416.098 120.078 419.586 124.942 419.586ZM124.942 416.546C122.062 416.546 120.141 414.37 120.141 411.266C120.141 408.162 122.062 405.986 124.942 405.986C127.79 405.986 129.742 408.162 129.742 411.266C129.742 414.37 127.79 416.546 124.942 416.546ZM146.502 406.594L146.694 403.234C146.214 403.042 145.51 402.946 144.902 402.946C142.95 402.946 140.838 404.354 139.974 406.274V403.202H136.486V419.33H139.974V413.314C139.974 408.322 142.054 406.21 144.422 406.21C145.158 406.21 145.926 406.338 146.502 406.594ZM160.117 419.33H164.373L157.173 409.57L163.861 403.202H159.349L152.693 409.282V396.674H149.173V419.33H152.693V413.794L154.709 411.906L160.117 419.33Z" fill="#02000B"/>
<g filter="url(#filter2_d_460_602)">
<rect x="246" y="10" width="209.77" height="238.506" rx="5" fill="#C1DDFF"/>
</g>
<path d="M318 77.7336H384.66V73H318V77.7336ZM384.66 80.0217H318V118.977H384.657V103.288H373.243C371.234 103.288 369.408 102.467 368.086 101.144C366.763 99.8218 365.942 97.996 365.942 95.9872C365.942 93.9827 366.763 92.1569 368.086 90.8349C369.412 89.5103 371.239 88.6868 373.243 88.6868H384.657V80.0197L384.66 80.0217ZM370.26 94.8458H374.385V97.1339H370.26V94.8458ZM384.66 90.9767H373.245C371.868 90.9767 370.612 91.5395 369.703 92.4477C368.797 93.3558 368.232 94.6097 368.232 95.9869C368.232 97.3642 368.797 98.6181 369.706 99.5262C370.614 100.434 371.868 101 373.245 101H384.66V90.976L384.66 90.9767Z" fill="#02000B"/>
<path d="M289.208 162.287H292.952V152.303H301.944V149.039H292.952V143.151H304.024V139.887H289.208V162.287ZM308.87 143.471C310.182 143.471 311.174 142.479 311.174 141.231C311.174 139.951 310.182 138.959 308.87 138.959C307.59 138.959 306.63 139.951 306.63 141.231C306.63 142.479 307.59 143.471 308.87 143.471ZM307.142 162.287H310.63V146.159H307.142V162.287ZM314.767 162.287H318.255V155.215C318.255 151.343 319.887 149.039 322.607 149.039C324.655 149.039 325.903 150.447 325.903 152.463V162.287H329.391V151.663C329.391 148.175 326.991 145.903 323.567 145.903C321.199 145.903 319.343 147.119 318.255 148.847V146.159H314.767V162.287ZM339.63 145.903C336.206 145.903 333.454 147.983 332.942 151.151L336.078 151.727C336.302 149.807 337.678 148.655 339.63 148.655C341.742 148.655 343.118 149.871 343.118 151.855V152.079L340.078 152.399C335.118 152.911 332.654 154.607 332.654 157.775C332.654 160.527 334.862 162.543 338.062 162.543C340.206 162.543 342.19 161.455 343.118 159.823V162.287H346.542V152.239C346.542 148.207 343.726 145.903 339.63 145.903ZM338.766 159.855C337.134 159.855 336.078 158.959 336.078 157.679C336.078 156.271 337.422 155.311 340.046 155.023L343.118 154.671V155.343C343.086 157.967 341.486 159.855 338.766 159.855ZM350.642 162.287H354.13V155.215C354.13 151.343 355.762 149.039 358.482 149.039C360.53 149.039 361.778 150.447 361.778 152.463V162.287H365.266V151.663C365.266 148.175 362.866 145.903 359.442 145.903C357.074 145.903 355.218 147.119 354.13 148.847V146.159H350.642V162.287ZM376.593 162.543C380.529 162.543 383.312 160.527 383.985 157.167L380.561 156.495C380.177 158.383 378.737 159.503 376.689 159.503C373.937 159.503 372.113 157.423 372.113 154.223C372.113 151.023 373.905 148.943 376.689 148.943C378.737 148.943 380.241 150.191 380.561 152.015L383.953 151.343C383.409 148.015 380.561 145.903 376.593 145.903C371.761 145.903 368.497 149.263 368.497 154.223C368.497 159.183 371.761 162.543 376.593 162.543ZM402.086 153.615C402.086 149.679 399.334 145.903 394.15 145.903C389.03 145.903 386.278 149.871 386.278 154.223C386.278 158.575 389.19 162.543 394.31 162.543C398.086 162.543 400.838 160.751 401.702 157.647L398.406 156.815C397.99 158.575 396.486 159.567 394.374 159.567C391.814 159.567 390.022 157.839 389.702 155.055H402.022C402.054 154.767 402.086 154.095 402.086 153.615ZM389.862 152.399C390.374 149.999 391.942 148.655 394.15 148.655C396.71 148.655 398.15 150.223 398.374 152.399H389.862Z" fill="#02000B"/>
<g filter="url(#filter3_d_460_602)">
<rect x="246" y="265" width="209.77" height="238.506" rx="5" fill="#FCFBFF"/>
</g>
<path d="M334 334.57H338.926V373.98H335.642C334.739 373.98 334 373.241 334 372.338V334.57Z" fill="#02000B"/>
<path d="M353.705 340.318C352.72 340.318 351.373 342.485 351.193 346.065H356.226C356.045 342.485 354.699 340.318 353.713 340.318H353.705Z" fill="#02000B"/>
<path d="M353.705 353.454C354.69 353.454 356.037 351.286 356.217 347.707H351.184C351.365 351.286 352.711 353.454 353.696 353.454H353.705Z" fill="#02000B"/>
<path d="M360.216 347.707H357.868C357.778 349.694 357.351 351.435 356.702 352.723C358.59 351.755 359.945 349.899 360.216 347.707Z" fill="#02000B"/>
<path d="M360.216 346.065C359.937 343.873 358.582 342.017 356.702 341.049C357.351 342.338 357.777 344.078 357.868 346.065H360.216Z" fill="#02000B"/>
<path d="M350.708 341.049C348.819 342.017 347.465 343.873 347.194 346.065H349.542C349.632 344.078 350.059 342.337 350.708 341.049Z" fill="#02000B"/>
<path d="M365.199 334.57H340.568V373.98H365.199C366.102 373.98 366.841 373.241 366.841 372.338V336.213C366.841 335.309 366.102 334.57 365.199 334.57ZM353.705 338.676C358.229 338.676 361.915 342.362 361.915 346.886C361.915 351.41 358.229 355.096 353.705 355.096C349.181 355.096 345.495 351.41 345.495 346.886C345.495 342.362 349.181 338.676 353.705 338.676ZM361.094 369.875H346.316C345.864 369.875 345.495 369.505 345.495 369.054C345.495 368.602 345.864 368.233 346.316 368.233H361.094C361.546 368.233 361.915 368.602 361.915 369.054C361.915 369.505 361.546 369.875 361.094 369.875ZM362.736 365.77H344.674V360.843H362.736V365.77Z" fill="#02000B"/>
<path d="M350.708 352.723C350.059 351.434 349.632 349.693 349.542 347.707H347.194C347.473 349.899 348.828 351.754 350.708 352.723Z" fill="#02000B"/>
<path d="M363.557 332.928V329.751C363.557 328.634 362.588 327.797 361.562 328.043L340.938 332.928H363.557Z" fill="#02000B"/>
<path d="M268.096 417.256C271.008 417.256 273.632 415.976 274.656 413.992V417H278.048V405.192H267.392V408.296H274.56C274.368 411.656 271.936 413.96 268.224 413.96C264.032 413.96 261.024 411.048 261.024 405.8C261.024 400.552 264.032 397.608 268.256 397.608C271.52 397.608 273.856 399.464 274.432 402.408L278.144 401.64C277.28 397.128 273.504 394.344 268.288 394.344C262.56 394.344 257.216 398.152 257.216 405.8C257.216 413.448 262.464 417.256 268.096 417.256ZM289.442 417.256C294.274 417.256 297.762 413.768 297.762 408.936C297.762 404.104 294.274 400.616 289.442 400.616C284.578 400.616 281.122 404.104 281.122 408.936C281.122 413.768 284.578 417.256 289.442 417.256ZM289.442 414.216C286.562 414.216 284.641 412.04 284.641 408.936C284.641 405.832 286.562 403.656 289.442 403.656C292.29 403.656 294.242 405.832 294.242 408.936C294.242 412.04 292.29 414.216 289.442 414.216ZM304.521 417H307.881L313.769 400.872H310.185L306.185 412.936L302.185 400.872H298.633L304.521 417ZM330.461 408.328C330.461 404.392 327.709 400.616 322.525 400.616C317.405 400.616 314.653 404.584 314.653 408.936C314.653 413.288 317.565 417.256 322.685 417.256C326.461 417.256 329.213 415.464 330.077 412.36L326.781 411.528C326.365 413.288 324.861 414.28 322.749 414.28C320.189 414.28 318.397 412.552 318.077 409.768H330.397C330.429 409.48 330.461 408.808 330.461 408.328ZM318.237 407.112C318.749 404.712 320.317 403.368 322.525 403.368C325.085 403.368 326.525 404.936 326.749 407.112H318.237ZM343.72 404.264L343.912 400.904C343.432 400.712 342.728 400.616 342.12 400.616C340.168 400.616 338.056 402.024 337.192 403.944V400.872H333.704V417H337.192V410.984C337.192 405.992 339.272 403.88 341.64 403.88C342.376 403.88 343.144 404.008 343.72 404.264ZM346.392 417H349.88V409.928C349.88 406.056 351.512 403.752 354.232 403.752C356.28 403.752 357.528 405.16 357.528 407.176V417H361.016V406.376C361.016 402.888 358.616 400.616 355.192 400.616C352.824 400.616 350.968 401.832 349.88 403.56V400.872H346.392V417ZM365.111 417H368.599V408.84C368.599 405.768 369.975 403.624 372.375 403.624C374.423 403.624 375.543 404.968 375.543 406.984V417H378.999V408.84C378.999 405.736 380.375 403.624 382.775 403.624C384.823 403.624 385.975 404.968 385.975 406.984V417H389.463V406.12C389.463 402.856 387.223 400.616 383.767 400.616C381.239 400.616 379.319 402.056 378.455 403.816C377.783 401.736 375.927 400.616 373.335 400.616C370.999 400.616 369.463 401.832 368.599 403.592V400.872H365.111V417ZM408.492 408.328C408.492 404.392 405.74 400.616 400.556 400.616C395.436 400.616 392.684 404.584 392.684 408.936C392.684 413.288 395.596 417.256 400.716 417.256C404.492 417.256 407.244 415.464 408.108 412.36L404.812 411.528C404.396 413.288 402.892 414.28 400.78 414.28C398.22 414.28 396.428 412.552 396.108 409.768H408.428C408.46 409.48 408.492 408.808 408.492 408.328ZM396.268 407.112C396.78 404.712 398.348 403.368 400.556 403.368C403.116 403.368 404.556 404.936 404.78 407.112H396.268ZM411.736 417H415.224V409.928C415.224 406.056 416.856 403.752 419.576 403.752C421.624 403.752 422.872 405.16 422.872 407.176V417H426.36V406.376C426.36 402.888 423.96 400.616 420.536 400.616C418.168 400.616 416.312 401.832 415.224 403.56V400.872H411.736V417ZM439.044 416.872L438.82 413.768C438.212 414.056 437.476 414.152 436.868 414.152C435.556 414.152 434.66 413.32 434.66 411.72V403.848H438.82V400.872H434.66V396.072H431.172V400.872H428.356V403.848H431.172V411.912C431.172 415.592 433.444 417.256 436.484 417.256C437.38 417.256 438.276 417.128 439.044 416.872Z" fill="#02000B"/>
<defs>
<filter id="filter0_d_460_602" x="0" y="0" width="249.77" height="278.506" filterUnits="userSpaceOnUse" color-interpolation-filters="sRGB">
<feFlood flood-opacity="0" result="BackgroundImageFix"/>
<feColorMatrix in="SourceAlpha" type="matrix" values="0 0 0 0 0 0 0 0 0 0 0 0 0 0 0 0 0 0 127 0" result="hardAlpha"/>
<feOffset dy="10"/>
<feGaussianBlur stdDeviation="10"/>
<feComposite in2="hardAlpha" operator="out"/>
<feColorMatrix type="matrix" values="0 0 0 0 0.00784314 0 0 0 0 0 0 0 0 0 0.0431373 0 0 0 0.1 0"/>
<feBlend mode="normal" in2="BackgroundImageFix" result="effect1_dropShadow_460_602"/>
<feBlend mode="normal" in="SourceGraphic" in2="effect1_dropShadow_460_602" result="shape"/>
</filter>
<filter id="filter1_d_460_602" x="0" y="255" width="249.77" height="278.506" filterUnits="userSpaceOnUse" color-interpolation-filters="sRGB">
<feFlood flood-opacity="0" result="BackgroundImageFix"/>
<feColorMatrix in="SourceAlpha" type="matrix" values="0 0 0 0 0 0 0 0 0 0 0 0 0 0 0 0 0 0 127 0" result="hardAlpha"/>
<feOffset dy="10"/>
<feGaussianBlur stdDeviation="10"/>
<feComposite in2="hardAlpha" operator="out"/>
<feColorMatrix type="matrix" values="0 0 0 0 0.00784314 0 0 0 0 0 0 0 0 0 0.0431373 0 0 0 0.1 0"/>
<feBlend mode="normal" in2="BackgroundImageFix" result="effect1_dropShadow_460_602"/>
<feBlend mode="normal" in="SourceGraphic" in2="effect1_dropShadow_460_602" result="shape"/>
</filter>
<filter id="filter2_d_460_602" x="226" y="0" width="249.77" height="278.506" filterUnits="userSpaceOnUse" color-interpolation-filters="sRGB">
<feFlood flood-opacity="0" result="BackgroundImageFix"/>
<feColorMatrix in="SourceAlpha" type="matrix" values="0 0 0 0 0 0 0 0 0 0 0 0 0 0 0 0 0 0 127 0" result="hardAlpha"/>
<feOffset dy="10"/>
<feGaussianBlur stdDeviation="10"/>
<feComposite in2="hardAlpha" operator="out"/>
<feColorMatrix type="matrix" values="0 0 0 0 0.756863 0 0 0 0 0.866667 0 0 0 0 1 0 0 0 1 0"/>
<feBlend mode="overlay" in2="BackgroundImageFix" result="effect1_dropShadow_460_602"/>
<feBlend mode="normal" in="SourceGraphic" in2="effect1_dropShadow_460_602" result="shape"/>
</filter>
<filter id="filter3_d_460_602" x="226" y="255" width="249.77" height="278.506" filterUnits="userSpaceOnUse" color-interpolation-filters="sRGB">
<feFlood flood-opacity="0" result="BackgroundImageFix"/>
<feColorMatrix in="SourceAlpha" type="matrix" values="0 0 0 0 0 0 0 0 0 0 0 0 0 0 0 0 0 0 127 0" result="hardAlpha"/>
<feOffset dy="10"/>
<feGaussianBlur stdDeviation="10"/>
<feComposite in2="hardAlpha" operator="out"/>
<feColorMatrix type="matrix" values="0 0 0 0 0.00784314 0 0 0 0 0 0 0 0 0 0.0431373 0 0 0 0.1 0"/>
<feBlend mode="normal" in2="BackgroundImageFix" result="effect1_dropShadow_460_602"/>
<feBlend mode="normal" in="SourceGraphic" in2="effect1_dropShadow_460_602" result="shape"/>
</filter>
</defs>
</svg>
