<svg width="306" height="495" viewBox="0 0 306 495" fill="none" xmlns="http://www.w3.org/2000/svg">
<g clip-path="url(#clip0_259_2509)">
<rect width="306" height="495" fill="#02000B"/>
<rect x="63" y="479" width="180" height="8" rx="4" fill="white"/>
<rect opacity="0.35" x="265.833" y="18.8333" width="21" height="10.3333" rx="2.16667" stroke="white"/>
<path opacity="0.4" d="M288.333 22V26C289.141 25.6612 289.667 24.8731 289.667 24C289.667 23.1269 289.141 22.3388 288.333 22" fill="white"/>
<rect x="267.333" y="20.3333" width="18" height="7.33333" rx="1.33333" fill="white"/>
<path fill-rule="evenodd" clip-rule="evenodd" d="M252.667 20.5739C254.892 20.574 257.031 21.4117 258.644 22.9138C258.765 23.0298 258.959 23.0283 259.079 22.9105L260.24 21.7627C260.3 21.703 260.334 21.622 260.333 21.5378C260.333 21.4536 260.298 21.3731 260.237 21.3141C256.005 17.3397 249.329 17.3397 245.097 21.3141C245.035 21.3731 245.001 21.4536 245 21.5378C244.999 21.622 245.033 21.7029 245.094 21.7627L246.255 22.9105C246.374 23.0285 246.568 23.03 246.69 22.9138C248.302 21.4116 250.442 20.5739 252.667 20.5739ZM252.665 24.2994C253.889 24.2994 255.069 24.756 255.976 25.5805C256.099 25.6975 256.292 25.695 256.412 25.5748L257.573 24.3976C257.634 24.3359 257.668 24.2521 257.667 24.1651C257.666 24.0781 257.63 23.995 257.568 23.9345C254.806 21.3551 250.528 21.3551 247.765 23.9345C247.703 23.995 247.668 24.0781 247.667 24.1652C247.666 24.2522 247.7 24.336 247.761 24.3976L248.921 25.5748C249.041 25.695 249.234 25.6975 249.357 25.5805C250.263 24.7565 251.443 24.2999 252.665 24.2994ZM255 27.023C255.002 27.1085 254.967 27.1909 254.905 27.2507L252.89 29.2419C252.831 29.3004 252.751 29.3333 252.667 29.3333C252.583 29.3333 252.502 29.3004 252.443 29.2419L250.428 27.2507C250.366 27.1908 250.332 27.1084 250.333 27.023C250.335 26.9375 250.373 26.8566 250.438 26.7993C251.725 25.7335 253.609 25.7335 254.896 26.7993C254.96 26.8566 254.998 26.9376 255 27.023Z" fill="white"/>
<path fill-rule="evenodd" clip-rule="evenodd" d="M240 20C240 19.4477 239.552 19 239 19H238C237.448 19 237 19.4477 237 20V28.6667C237 29.219 237.448 29.6667 238 29.6667H239C239.552 29.6667 240 29.219 240 28.6667V20ZM233.333 21.3333H234.333C234.886 21.3333 235.333 21.781 235.333 22.3333V28.6667C235.333 29.219 234.886 29.6667 234.333 29.6667H233.333C232.781 29.6667 232.333 29.219 232.333 28.6667V22.3333C232.333 21.781 232.781 21.3333 233.333 21.3333ZM229.667 23.6667H228.667C228.114 23.6667 227.667 24.1144 227.667 24.6667V28.6667C227.667 29.219 228.114 29.6667 228.667 29.6667H229.667C230.219 29.6667 230.667 29.219 230.667 28.6667V24.6667C230.667 24.1144 230.219 23.6667 229.667 23.6667ZM226 26.6667C226 26.1144 225.552 25.6667 225 25.6667H224C223.448 25.6667 223 26.1144 223 26.6667V28.6667C223 29.219 223.448 29.6667 224 29.6667H225C225.552 29.6667 226 29.219 226 28.6667V26.6667Z" fill="white"/>
<path d="M18.632 29H19.836V19.2H18.828C18.142 20.04 17.288 20.544 16.308 20.754V21.888C17.232 21.72 17.96 21.412 18.632 20.796V29ZM20.9402 29H27.5622V27.852H22.7322L25.3922 25.584C26.9042 24.31 27.5622 23.218 27.5622 22.028C27.5622 20.25 26.3022 19.088 24.3702 19.088C22.3262 19.088 20.9822 20.502 21.1362 22.56L22.3682 22.644C22.2282 21.188 22.9982 20.222 24.3702 20.222C25.5182 20.222 26.2462 20.936 26.2462 22.028C26.2462 22.91 25.7562 23.722 24.6082 24.716L20.9262 27.894L20.9402 29ZM32.0305 21.944V23.4H33.4025V21.944H32.0305ZM32.0305 27.544V29H33.4025V27.544H32.0305ZM41.4093 29.112C43.8453 29.112 45.1613 27.11 45.1613 24.1C45.1613 21.09 43.8453 19.088 41.4093 19.088C38.9453 19.088 37.6573 21.09 37.6573 24.1C37.6573 27.11 38.9453 29.112 41.4093 29.112ZM41.4093 27.964C39.7993 27.964 38.9593 26.452 38.9593 24.1C38.9593 21.748 39.7993 20.222 41.4093 20.222C42.9913 20.222 43.8453 21.748 43.8453 24.1C43.8453 26.452 42.9913 27.964 41.4093 27.964ZM49.7166 29.112C52.1526 29.112 53.4686 27.11 53.4686 24.1C53.4686 21.09 52.1526 19.088 49.7166 19.088C47.2526 19.088 45.9646 21.09 45.9646 24.1C45.9646 27.11 47.2526 29.112 49.7166 29.112ZM49.7166 27.964C48.1066 27.964 47.2666 26.452 47.2666 24.1C47.2666 21.748 48.1066 20.222 49.7166 20.222C51.2986 20.222 52.1526 21.748 52.1526 24.1C52.1526 26.452 51.2986 27.964 49.7166 27.964ZM57.7635 29H59.0375V24.884H61.4875C63.3915 24.884 64.6235 23.764 64.6235 22.042C64.6235 20.32 63.3915 19.2 61.4875 19.2H57.7635V29ZM59.0375 23.736V20.334H61.4455C62.6075 20.334 63.3075 20.978 63.3075 22.042C63.3075 23.106 62.6075 23.736 61.4455 23.736H59.0375ZM65.6607 29H66.9067V21.608L69.9727 29H71.0367L74.0887 21.608V29H75.3487V19.2H73.8087L70.5047 27.152L67.2007 19.2H65.6607V29Z" fill="white"/>
<path d="M32.3325 294.973C36.0045 294.973 38.7045 292.255 38.7045 288.529C38.7045 284.803 36.0045 282.085 32.3325 282.085C28.6425 282.085 25.9425 284.803 25.9425 288.529C25.9425 292.255 28.6425 294.973 32.3325 294.973ZM32.3325 292.849C30.0465 292.849 28.4085 291.031 28.4085 288.529C28.4085 286.027 30.0465 284.191 32.3325 284.191C34.6185 284.191 36.2385 286.027 36.2385 288.529C36.2385 291.031 34.6185 292.849 32.3325 292.849ZM42.5091 294.829H44.5251L46.3971 288.907L48.2331 294.829H50.2671L53.0751 285.757H50.7891L49.2411 291.661L47.4231 285.757H45.3531L43.5351 291.661L41.9691 285.757H39.6831L42.5091 294.829ZM54.5707 294.829H56.8387V290.851C56.8387 288.817 57.6487 287.629 59.0347 287.629C60.0967 287.629 60.7627 288.367 60.7627 289.429V294.829H63.0307V288.889C63.0307 286.909 61.6987 285.613 59.7187 285.613C58.4407 285.613 57.4147 286.243 56.8387 287.125V285.757H54.5707V294.829ZM78.0252 294.829H80.5452L75.7032 282.229H73.4172L68.5752 294.829H71.0952L72.1212 292.039H76.9992L78.0252 294.829ZM72.8952 289.969L74.5692 285.433L76.2432 289.969H72.8952ZM81.764 294.829H84.032V290.851C84.032 288.817 84.842 287.629 86.228 287.629C87.29 287.629 87.956 288.367 87.956 289.429V294.829H90.224V288.889C90.224 286.909 88.892 285.613 86.912 285.613C85.634 285.613 84.608 286.243 84.032 287.125V285.757H81.764V294.829ZM96.2504 294.973C97.3844 294.973 98.3924 294.505 98.8424 293.785V294.829H101.11V282.085H98.8424V286.765C98.3204 286.081 97.3484 285.613 96.2144 285.613C93.5324 285.613 91.9304 287.521 91.9304 290.293C91.9304 293.065 93.5324 294.973 96.2504 294.973ZM96.5744 293.011C95.1344 293.011 94.1804 291.931 94.1804 290.293C94.1804 288.655 95.1344 287.575 96.5744 287.575C98.0324 287.575 98.9864 288.655 98.9864 290.293C98.9864 291.931 98.0324 293.011 96.5744 293.011ZM113.435 294.973C116.333 294.973 118.385 293.479 118.997 291.013L116.531 290.473C116.207 291.949 115.073 292.849 113.435 292.849C111.293 292.849 109.655 291.355 109.655 288.529C109.655 285.703 111.311 284.191 113.435 284.191C115.055 284.191 116.279 285.181 116.603 286.783L119.033 286.279C118.601 283.741 116.459 282.085 113.435 282.085C110.159 282.085 107.171 284.263 107.171 288.529C107.171 292.795 110.105 294.973 113.435 294.973ZM125.035 294.973C127.789 294.973 129.769 292.993 129.769 290.293C129.769 287.593 127.789 285.613 125.035 285.613C122.281 285.613 120.301 287.593 120.301 290.293C120.301 292.993 122.281 294.973 125.035 294.973ZM125.035 293.011C123.559 293.011 122.587 291.913 122.587 290.293C122.587 288.673 123.559 287.575 125.035 287.575C126.493 287.575 127.483 288.673 127.483 290.293C127.483 291.913 126.493 293.011 125.035 293.011ZM131.475 294.829H133.743V290.851C133.743 288.817 134.553 287.629 135.939 287.629C137.001 287.629 137.667 288.367 137.667 289.429V294.829H139.935V288.889C139.935 286.909 138.603 285.613 136.623 285.613C135.345 285.613 134.319 286.243 133.743 287.125V285.757H131.475V294.829ZM147.21 294.739L147.048 292.759C146.724 292.921 146.328 292.975 145.986 292.975C145.284 292.975 144.816 292.507 144.816 291.643V287.665H147.102V285.757H144.816V283.093H142.548V285.757H141.018V287.665H142.548V291.859C142.548 293.983 143.916 294.973 145.752 294.973C146.274 294.973 146.76 294.901 147.21 294.739ZM154.622 287.953L154.766 285.757C154.496 285.667 154.1 285.613 153.776 285.613C152.678 285.613 151.49 286.387 151.04 287.413V285.757H148.772V294.829H151.04V291.499C151.04 288.799 152.192 287.737 153.47 287.737C153.866 287.737 154.298 287.809 154.622 287.953ZM160.016 294.973C162.77 294.973 164.75 292.993 164.75 290.293C164.75 287.593 162.77 285.613 160.016 285.613C157.262 285.613 155.282 287.593 155.282 290.293C155.282 292.993 157.262 294.973 160.016 294.973ZM160.016 293.011C158.54 293.011 157.568 291.913 157.568 290.293C157.568 288.673 158.54 287.575 160.016 287.575C161.474 287.575 162.464 288.673 162.464 290.293C162.464 291.913 161.474 293.011 160.016 293.011ZM166.455 294.829H168.723V282.085H166.455V294.829ZM178.502 294.829H180.95V289.609L185.288 282.229H182.66L179.726 287.305L176.81 282.229H174.182L178.502 289.609V294.829ZM188.844 294.973C191.598 294.973 193.578 292.993 193.578 290.293C193.578 287.593 191.598 285.613 188.844 285.613C186.09 285.613 184.11 287.593 184.11 290.293C184.11 292.993 186.09 294.973 188.844 294.973ZM188.844 293.011C187.368 293.011 186.396 291.913 186.396 290.293C186.396 288.673 187.368 287.575 188.844 287.575C190.302 287.575 191.292 288.673 191.292 290.293C191.292 291.913 190.302 293.011 188.844 293.011ZM203.744 285.757H201.476V289.735C201.476 291.769 200.684 292.957 199.28 292.957C198.218 292.957 197.552 292.219 197.552 291.157V285.757H195.284V291.697C195.284 293.677 196.634 294.973 198.596 294.973C199.874 294.973 200.9 294.343 201.476 293.461V294.829H203.744V285.757ZM211.803 287.953L211.947 285.757C211.677 285.667 211.281 285.613 210.957 285.613C209.859 285.613 208.671 286.387 208.221 287.413V285.757H205.953V294.829H208.221V291.499C208.221 288.799 209.373 287.737 210.651 287.737C211.047 287.737 211.479 287.809 211.803 287.953ZM217.68 294.829H220.128V282.229H217.68V294.829ZM226.241 294.973C227.375 294.973 228.383 294.505 228.833 293.785V294.829H231.101V282.085H228.833V286.765C228.311 286.081 227.339 285.613 226.205 285.613C223.523 285.613 221.921 287.521 221.921 290.293C221.921 293.065 223.523 294.973 226.241 294.973ZM226.565 293.011C225.125 293.011 224.171 291.931 224.171 290.293C224.171 288.655 225.125 287.575 226.565 287.575C228.023 287.575 228.977 288.655 228.977 290.293C228.977 291.931 228.023 293.011 226.565 293.011ZM241.855 289.987C241.855 287.881 240.361 285.613 237.301 285.613C234.295 285.613 232.819 287.935 232.819 290.293C232.819 292.651 234.421 294.973 237.427 294.973C239.551 294.973 241.135 293.965 241.639 292.255L239.515 291.679C239.281 292.561 238.525 293.065 237.463 293.065C236.167 293.065 235.285 292.255 235.087 290.887H241.819C241.837 290.707 241.855 290.311 241.855 289.987ZM235.141 289.231C235.393 288.007 236.185 287.341 237.301 287.341C238.615 287.341 239.317 288.151 239.425 289.231H235.141ZM243.571 294.829H245.839V290.851C245.839 288.817 246.649 287.629 248.035 287.629C249.097 287.629 249.763 288.367 249.763 289.429V294.829H252.031V288.889C252.031 286.909 250.699 285.613 248.719 285.613C247.441 285.613 246.415 286.243 245.839 287.125V285.757H243.571V294.829ZM259.306 294.739L259.144 292.759C258.82 292.921 258.424 292.975 258.082 292.975C257.38 292.975 256.912 292.507 256.912 291.643V287.665H259.198V285.757H256.912V283.093H254.644V285.757H253.114V287.665H254.644V291.859C254.644 293.983 256.012 294.973 257.848 294.973C258.37 294.973 258.856 294.901 259.306 294.739ZM262.002 284.371C262.83 284.371 263.442 283.759 263.442 282.967C263.442 282.193 262.83 281.581 262.002 281.581C261.192 281.581 260.598 282.193 260.598 282.967C260.598 283.759 261.192 284.371 262.002 284.371ZM260.868 294.829H263.136V285.757H260.868V294.829ZM270.714 294.739L270.552 292.759C270.228 292.921 269.832 292.975 269.49 292.975C268.788 292.975 268.32 292.507 268.32 291.643V287.665H270.606V285.757H268.32V283.093H266.052V285.757H264.522V287.665H266.052V291.859C266.052 293.983 267.42 294.973 269.256 294.973C269.778 294.973 270.264 294.901 270.714 294.739ZM278.216 285.757L275.966 291.589L273.788 285.757H271.322L274.85 294.469L273.446 298.105H275.75L280.538 285.757H278.216Z" fill="white"/>
<path d="M52.1595 318.829H53.0895L55.7195 311.829H54.7895L52.6195 317.779L50.4595 311.829H49.5295L52.1595 318.829ZM60.3438 316.079C60.3438 314.779 59.4238 313.709 57.9338 313.709C56.4137 313.709 55.4938 314.879 55.4938 316.309C55.4938 317.739 56.4438 318.909 57.9538 318.909C59.1138 318.909 59.9538 318.339 60.2038 317.359L59.4038 317.169C59.2538 317.799 58.7238 318.159 57.9538 318.159C57.0438 318.159 56.4038 317.489 56.3438 316.469H60.3238C60.3338 316.379 60.3438 316.199 60.3438 316.079ZM56.3938 315.759C56.5637 314.919 57.1438 314.419 57.9338 314.419C58.8238 314.419 59.3638 314.989 59.4438 315.759H56.3938ZM64.388 314.619L64.438 313.799C64.268 313.739 64.068 313.709 63.858 313.709C63.238 313.709 62.578 314.169 62.288 314.809V313.789H61.438V318.829H62.288V316.909C62.288 315.269 62.938 314.499 63.738 314.499C63.958 314.499 64.198 314.539 64.388 314.619ZM65.2062 311.749V312.829H66.1862V311.749H65.2062ZM65.2662 318.829H66.1162V313.789H65.2662V318.829ZM67.9927 318.829H68.8427V314.539H70.1327V313.789H68.8427V313.249C68.8427 312.709 69.1427 312.359 69.5927 312.359C69.7627 312.359 69.9427 312.389 70.1227 312.459L70.1627 311.699C69.9527 311.639 69.7127 311.619 69.4827 311.619C68.6227 311.619 67.9927 312.209 67.9927 313.319V313.789H67.1327V314.539H67.9927V318.829ZM74.4748 313.789L72.9948 317.649L71.5148 313.789H70.5948L72.5648 318.759L71.8348 320.649H72.7048L75.3448 313.789H74.4748ZM75.1394 319.889H75.7394L76.8594 317.789H75.7194L75.1394 319.889ZM82.7998 318.909C84.2898 318.909 85.3698 317.819 85.3698 316.309C85.3698 314.799 84.2898 313.709 82.7998 313.709C81.2998 313.709 80.2398 314.799 80.2398 316.309C80.2398 317.819 81.2998 318.909 82.7998 318.909ZM82.7998 318.149C81.7898 318.149 81.1098 317.389 81.1098 316.309C81.1098 315.229 81.7898 314.469 82.7998 314.469C83.8098 314.469 84.4898 315.229 84.4898 316.309C84.4898 317.389 83.8098 318.149 82.7998 318.149ZM89.4076 314.619L89.4576 313.799C89.2876 313.739 89.0876 313.709 88.8776 313.709C88.2576 313.709 87.5976 314.169 87.3076 314.809V313.789H86.4576V318.829H87.3076V316.909C87.3076 315.269 87.9576 314.499 88.7576 314.499C88.9776 314.499 89.2176 314.539 89.4076 314.619ZM93.7713 313.789V314.469C93.4713 314.029 92.8113 313.709 92.1413 313.709C90.6113 313.709 89.7613 314.779 89.7613 316.209C89.7613 317.629 90.6113 318.699 92.1613 318.699C92.8813 318.699 93.5413 318.409 93.7713 317.979V318.679C93.7713 319.469 93.1513 320.009 92.2613 320.009C91.4913 320.009 90.9013 319.619 90.8513 319.059L90.0313 319.199C90.1813 320.109 91.0913 320.729 92.2613 320.729C93.6513 320.729 94.6113 319.859 94.6113 318.589V313.789H93.7713ZM92.2413 317.939C91.2613 317.939 90.6313 317.259 90.6313 316.209C90.6313 315.149 91.2613 314.469 92.2413 314.469C93.2113 314.469 93.8413 315.149 93.8413 316.209C93.8413 317.259 93.2113 317.939 92.2413 317.939ZM97.8688 313.709C96.8088 313.709 95.9788 314.359 95.8288 315.359L96.6188 315.509C96.6888 314.829 97.1788 314.419 97.8688 314.419C98.6088 314.419 99.0988 314.859 99.0988 315.549V315.649L98.1188 315.759C96.5088 315.919 95.7188 316.449 95.7188 317.419C95.7188 318.289 96.4088 318.909 97.4188 318.909C98.1488 318.909 98.8088 318.549 99.0988 317.969V318.829H99.9388V315.599C99.9388 314.429 99.0888 313.709 97.8688 313.709ZM97.5488 318.209C96.9688 318.209 96.5688 317.879 96.5688 317.409C96.5688 316.879 97.0988 316.529 98.1188 316.419L99.0988 316.309V316.549C99.0988 317.559 98.5288 318.209 97.5488 318.209ZM101.321 318.829H102.171V316.619C102.171 315.289 102.771 314.479 103.711 314.479C104.421 314.479 104.851 314.969 104.851 315.649V318.829H105.701V315.489C105.701 314.419 104.951 313.709 103.901 313.709C103.131 313.709 102.521 314.139 102.171 314.739V313.789H101.321V318.829ZM107.023 311.749V312.829H108.003V311.749H107.023ZM107.083 318.829H107.933V313.789H107.083V318.829ZM108.949 318.829H113.159V318.079H110.069L113.139 314.439V313.789H109.129V314.539H112.059L108.949 318.179V318.829ZM118.674 316.079C118.674 314.779 117.754 313.709 116.264 313.709C114.744 313.709 113.824 314.879 113.824 316.309C113.824 317.739 114.774 318.909 116.284 318.909C117.444 318.909 118.284 318.339 118.534 317.359L117.734 317.169C117.584 317.799 117.054 318.159 116.284 318.159C115.374 318.159 114.734 317.489 114.674 316.469H118.654C118.664 316.379 118.674 316.199 118.674 316.079ZM114.724 315.759C114.894 314.919 115.474 314.419 116.264 314.419C117.154 314.419 117.694 314.989 117.774 315.759H114.724ZM124.06 313.709C123 313.709 122.17 314.359 122.02 315.359L122.81 315.509C122.88 314.829 123.37 314.419 124.06 314.419C124.8 314.419 125.29 314.859 125.29 315.549V315.649L124.31 315.759C122.7 315.919 121.91 316.449 121.91 317.419C121.91 318.289 122.6 318.909 123.61 318.909C124.34 318.909 125 318.549 125.29 317.969V318.829H126.13V315.599C126.13 314.429 125.28 313.709 124.06 313.709ZM123.74 318.209C123.16 318.209 122.76 317.879 122.76 317.409C122.76 316.879 123.29 316.529 124.31 316.419L125.29 316.309V316.549C125.29 317.559 124.72 318.209 123.74 318.209ZM127.512 318.829H128.362V316.619C128.362 315.289 128.962 314.479 129.902 314.479C130.612 314.479 131.042 314.969 131.042 315.649V318.829H131.892V315.489C131.892 314.419 131.142 313.709 130.092 313.709C129.322 313.709 128.712 314.139 128.362 314.739V313.789H127.512V318.829ZM135.414 318.909C136.154 318.909 136.824 318.559 137.054 318.099V318.829H137.904V311.749H137.054V314.509C136.734 314.039 136.074 313.709 135.404 313.709C133.844 313.709 132.984 314.829 132.984 316.309C132.984 317.789 133.844 318.909 135.414 318.909ZM135.494 318.149C134.504 318.149 133.854 317.419 133.854 316.309C133.854 315.199 134.504 314.469 135.494 314.469C136.484 314.469 137.134 315.199 137.134 316.309C137.134 317.419 136.484 318.149 135.494 318.149ZM141.692 318.829H142.542V316.299C142.542 315.229 143.012 314.459 143.872 314.459C144.572 314.459 144.962 314.929 144.962 315.619V318.829H145.812V316.299C145.812 315.229 146.282 314.459 147.142 314.459C147.852 314.459 148.242 314.929 148.242 315.619V318.829H149.092V315.449C149.092 314.389 148.412 313.709 147.332 313.709C146.572 313.709 145.972 314.169 145.702 314.769C145.522 314.089 144.882 313.709 144.062 313.709C143.292 313.709 142.792 314.139 142.542 314.739V313.789H141.692V318.829ZM152.351 313.709C151.291 313.709 150.461 314.359 150.311 315.359L151.101 315.509C151.171 314.829 151.661 314.419 152.351 314.419C153.091 314.419 153.581 314.859 153.581 315.549V315.649L152.601 315.759C150.991 315.919 150.201 316.449 150.201 317.419C150.201 318.289 150.891 318.909 151.901 318.909C152.631 318.909 153.291 318.549 153.581 317.969V318.829H154.421V315.599C154.421 314.429 153.571 313.709 152.351 313.709ZM152.031 318.209C151.451 318.209 151.051 317.879 151.051 317.409C151.051 316.879 151.581 316.529 152.601 316.419L153.581 316.309V316.549C153.581 317.559 153.011 318.209 152.031 318.209ZM155.743 311.749V312.829H156.723V311.749H155.743ZM155.803 318.829H156.653V313.789H155.803V318.829ZM158.03 318.829H158.88V316.619C158.88 315.289 159.48 314.479 160.42 314.479C161.13 314.479 161.56 314.969 161.56 315.649V318.829H162.41V315.489C162.41 314.419 161.66 313.709 160.61 313.709C159.84 313.709 159.23 314.139 158.88 314.739V313.789H158.03V318.829ZM166.286 318.789L166.226 318.009C166.026 318.109 165.796 318.139 165.596 318.139C165.156 318.139 164.856 317.879 164.856 317.349V314.539H166.206V313.789H164.856V312.259H164.006V313.789H163.066V314.539H164.006V317.319C164.006 318.429 164.636 318.909 165.496 318.909C165.766 318.909 166.036 318.879 166.286 318.789ZM169.07 313.709C168.01 313.709 167.18 314.359 167.03 315.359L167.82 315.509C167.89 314.829 168.38 314.419 169.07 314.419C169.81 314.419 170.3 314.859 170.3 315.549V315.649L169.32 315.759C167.71 315.919 166.92 316.449 166.92 317.419C166.92 318.289 167.61 318.909 168.62 318.909C169.35 318.909 170.01 318.549 170.3 317.969V318.829H171.14V315.599C171.14 314.429 170.29 313.709 169.07 313.709ZM168.75 318.209C168.17 318.209 167.77 317.879 167.77 317.409C167.77 316.879 168.3 316.529 169.32 316.419L170.3 316.309V316.549C170.3 317.559 169.73 318.209 168.75 318.209ZM172.462 311.749V312.829H173.442V311.749H172.462ZM172.522 318.829H173.372V313.789H172.522V318.829ZM174.749 318.829H175.599V316.619C175.599 315.289 176.199 314.479 177.139 314.479C177.849 314.479 178.279 314.969 178.279 315.649V318.829H179.129V315.489C179.129 314.419 178.379 313.709 177.329 313.709C176.559 313.709 175.949 314.139 175.599 314.739V313.789H174.749V318.829ZM186.242 313.789L184.762 317.649L183.282 313.789H182.362L184.332 318.759L183.602 320.649H184.472L187.112 313.789H186.242ZM190.036 318.909C191.526 318.909 192.606 317.819 192.606 316.309C192.606 314.799 191.526 313.709 190.036 313.709C188.536 313.709 187.476 314.799 187.476 316.309C187.476 317.819 188.536 318.909 190.036 318.909ZM190.036 318.149C189.026 318.149 188.346 317.389 188.346 316.309C188.346 315.229 189.026 314.469 190.036 314.469C191.046 314.469 191.726 315.229 191.726 316.309C191.726 317.389 191.046 318.149 190.036 318.149ZM198.074 313.789H197.224V315.999C197.224 317.329 196.624 318.139 195.684 318.139C194.974 318.139 194.544 317.649 194.544 316.969V313.789H193.694V317.129C193.694 318.199 194.444 318.909 195.494 318.909C196.264 318.909 196.874 318.479 197.224 317.879V318.829H198.074V313.789ZM202.406 314.619L202.456 313.799C202.286 313.739 202.086 313.709 201.876 313.709C201.256 313.709 200.596 314.169 200.306 314.809V313.789H199.456V318.829H200.306V316.909C200.306 315.269 200.956 314.499 201.756 314.499C201.976 314.499 202.216 314.539 202.406 314.619ZM205.636 311.749V312.829H206.616V311.749H205.636ZM205.696 318.829H206.546V313.789H205.696V318.829ZM210.062 318.909C210.802 318.909 211.472 318.559 211.702 318.099V318.829H212.552V311.749H211.702V314.509C211.382 314.039 210.722 313.709 210.052 313.709C208.492 313.709 207.632 314.829 207.632 316.309C207.632 317.789 208.492 318.909 210.062 318.909ZM210.142 318.149C209.152 318.149 208.502 317.419 208.502 316.309C208.502 315.199 209.152 314.469 210.142 314.469C211.132 314.469 211.782 315.199 211.782 316.309C211.782 317.419 211.132 318.149 210.142 318.149ZM218.488 316.079C218.488 314.779 217.568 313.709 216.078 313.709C214.558 313.709 213.638 314.879 213.638 316.309C213.638 317.739 214.588 318.909 216.098 318.909C217.258 318.909 218.098 318.339 218.348 317.359L217.548 317.169C217.398 317.799 216.868 318.159 216.098 318.159C215.188 318.159 214.548 317.489 214.488 316.469H218.468C218.478 316.379 218.488 316.199 218.488 316.079ZM214.538 315.759C214.708 314.919 215.288 314.419 216.078 314.419C216.968 314.419 217.508 314.989 217.588 315.759H214.538ZM219.583 318.829H220.433V316.619C220.433 315.289 221.033 314.479 221.973 314.479C222.683 314.479 223.113 314.969 223.113 315.649V318.829H223.963V315.489C223.963 314.419 223.213 313.709 222.163 313.709C221.393 313.709 220.783 314.139 220.433 314.739V313.789H219.583V318.829ZM227.839 318.789L227.779 318.009C227.579 318.109 227.349 318.139 227.149 318.139C226.709 318.139 226.409 317.879 226.409 317.349V314.539H227.759V313.789H226.409V312.259H225.559V313.789H224.619V314.539H225.559V317.319C225.559 318.429 226.189 318.909 227.049 318.909C227.319 318.909 227.589 318.879 227.839 318.789ZM228.771 311.749V312.829H229.751V311.749H228.771ZM228.831 318.829H229.681V313.789H228.831V318.829ZM233.737 318.789L233.677 318.009C233.477 318.109 233.247 318.139 233.047 318.139C232.607 318.139 232.307 317.879 232.307 317.349V314.539H233.657V313.789H232.307V312.259H231.457V313.789H230.517V314.539H231.457V317.319C231.457 318.429 232.087 318.909 232.947 318.909C233.217 318.909 233.487 318.879 233.737 318.789ZM238.049 313.789L236.569 317.649L235.089 313.789H234.169L236.139 318.759L235.409 320.649H236.279L238.919 313.789H238.049ZM244.031 313.709C242.971 313.709 242.141 314.359 241.991 315.359L242.781 315.509C242.851 314.829 243.341 314.419 244.031 314.419C244.771 314.419 245.261 314.859 245.261 315.549V315.649L244.281 315.759C242.671 315.919 241.881 316.449 241.881 317.419C241.881 318.289 242.571 318.909 243.581 318.909C244.311 318.909 244.971 318.549 245.261 317.969V318.829H246.101V315.599C246.101 314.429 245.251 313.709 244.031 313.709ZM243.711 318.209C243.131 318.209 242.731 317.879 242.731 317.409C242.731 316.879 243.261 316.529 244.281 316.419L245.261 316.309V316.549C245.261 317.559 244.691 318.209 243.711 318.209ZM247.483 318.829H248.333V316.619C248.333 315.289 248.933 314.479 249.873 314.479C250.583 314.479 251.013 314.969 251.013 315.649V318.829H251.863V315.489C251.863 314.419 251.113 313.709 250.063 313.709C249.293 313.709 248.683 314.139 248.333 314.739V313.789H247.483V318.829ZM255.385 318.909C256.125 318.909 256.795 318.559 257.025 318.099V318.829H257.875V311.749H257.025V314.509C256.705 314.039 256.045 313.709 255.375 313.709C253.815 313.709 252.955 314.829 252.955 316.309C252.955 317.789 253.815 318.909 255.385 318.909ZM255.465 318.149C254.475 318.149 253.825 317.419 253.825 316.309C253.825 315.199 254.475 314.469 255.465 314.469C256.455 314.469 257.105 315.199 257.105 316.309C257.105 317.419 256.455 318.149 255.465 318.149ZM54.7591 327.619L54.8091 326.799C54.6391 326.739 54.4391 326.709 54.2291 326.709C53.6091 326.709 52.9491 327.169 52.6591 327.809V326.789H51.8091V331.829H52.6591V329.909C52.6591 328.269 53.3091 327.499 54.1091 327.499C54.3291 327.499 54.5691 327.539 54.7591 327.619ZM59.9629 329.079C59.9629 327.779 59.0429 326.709 57.5529 326.709C56.0329 326.709 55.1129 327.879 55.1129 329.309C55.1129 330.739 56.0629 331.909 57.5729 331.909C58.7329 331.909 59.5729 331.339 59.8229 330.359L59.0229 330.169C58.8729 330.799 58.3429 331.159 57.5729 331.159C56.6629 331.159 56.0229 330.489 55.9629 329.469H59.9429C59.9529 329.379 59.9629 329.199 59.9629 329.079ZM56.0129 328.759C56.1829 327.919 56.7629 327.419 57.5529 327.419C58.4429 327.419 58.9829 327.989 59.0629 328.759H56.0129ZM61.0572 333.649H61.9072V331.129C62.2472 331.589 62.9072 331.909 63.5472 331.909C65.0972 331.909 65.9772 330.789 65.9772 329.309C65.9772 327.829 65.1172 326.709 63.5672 326.709C62.8372 326.709 62.1772 327.059 61.9072 327.519V326.789H61.0572V333.649ZM63.4672 331.149C62.4872 331.149 61.8372 330.419 61.8372 329.309C61.8372 328.199 62.4872 327.469 63.4672 327.469C64.4672 327.469 65.1172 328.199 65.1172 329.309C65.1172 330.419 64.4672 331.149 63.4672 331.149ZM71.443 326.789H70.593V328.999C70.593 330.329 69.993 331.139 69.053 331.139C68.343 331.139 67.913 330.649 67.913 329.969V326.789H67.063V330.129C67.063 331.199 67.813 331.909 68.863 331.909C69.633 331.909 70.243 331.479 70.593 330.879V331.829H71.443V326.789ZM75.5048 331.789L75.4448 331.009C75.2448 331.109 75.0148 331.139 74.8148 331.139C74.3748 331.139 74.0748 330.879 74.0748 330.349V327.539H75.4248V326.789H74.0748V325.259H73.2248V326.789H72.2848V327.539H73.2248V330.319C73.2248 331.429 73.8548 331.909 74.7148 331.909C74.9848 331.909 75.2548 331.879 75.5048 331.789ZM78.2887 326.709C77.2288 326.709 76.3988 327.359 76.2488 328.359L77.0387 328.509C77.1088 327.829 77.5988 327.419 78.2887 327.419C79.0288 327.419 79.5188 327.859 79.5188 328.549V328.649L78.5388 328.759C76.9288 328.919 76.1388 329.449 76.1388 330.419C76.1388 331.289 76.8288 331.909 77.8388 331.909C78.5688 331.909 79.2288 331.549 79.5188 330.969V331.829H80.3588V328.599C80.3588 327.429 79.5088 326.709 78.2887 326.709ZM77.9688 331.209C77.3888 331.209 76.9888 330.879 76.9888 330.409C76.9888 329.879 77.5188 329.529 78.5388 329.419L79.5188 329.309V329.549C79.5188 330.559 78.9488 331.209 77.9688 331.209ZM84.3915 331.789L84.3315 331.009C84.1315 331.109 83.9015 331.139 83.7015 331.139C83.2615 331.139 82.9615 330.879 82.9615 330.349V327.539H84.3115V326.789H82.9615V325.259H82.1115V326.789H81.1715V327.539H82.1115V330.319C82.1115 331.429 82.7415 331.909 83.6015 331.909C83.8715 331.909 84.1415 331.879 84.3915 331.789ZM85.3234 324.749V325.829H86.3034V324.749H85.3234ZM85.3834 331.829H86.2334V326.789H85.3834V331.829ZM89.8799 331.909C91.3699 331.909 92.4499 330.819 92.4499 329.309C92.4499 327.799 91.3699 326.709 89.8799 326.709C88.3799 326.709 87.3199 327.799 87.3199 329.309C87.3199 330.819 88.3799 331.909 89.8799 331.909ZM89.8799 331.149C88.8699 331.149 88.1899 330.389 88.1899 329.309C88.1899 328.229 88.8699 327.469 89.8799 327.469C90.8899 327.469 91.5699 328.229 91.5699 329.309C91.5699 330.389 90.8899 331.149 89.8799 331.149ZM93.5377 331.829H94.3877V329.619C94.3877 328.289 94.9877 327.479 95.9277 327.479C96.6377 327.479 97.0677 327.969 97.0677 328.649V331.829H97.9177V328.489C97.9177 327.419 97.1677 326.709 96.1177 326.709C95.3477 326.709 94.7377 327.139 94.3877 327.739V326.789H93.5377V331.829ZM100.989 331.909C102.099 331.909 102.839 331.289 102.839 330.409C102.849 328.329 99.9294 329.119 99.9294 328.039C99.9294 327.639 100.289 327.409 100.859 327.409C101.399 327.409 101.899 327.739 102.039 328.259L102.749 327.949C102.539 327.209 101.769 326.709 100.879 326.709C99.7994 326.709 99.1094 327.249 99.1094 328.049C99.1094 329.959 102.009 329.129 102.009 330.419C102.009 330.829 101.609 331.189 100.989 331.189C100.209 331.189 99.8094 330.709 99.6194 330.119L98.8894 330.439C99.1094 331.149 99.7694 331.909 100.989 331.909ZM108.541 331.909C109.701 331.909 110.541 331.299 110.761 330.259L109.931 330.089C109.791 330.759 109.271 331.149 108.561 331.149C107.571 331.149 106.931 330.419 106.931 329.309C106.931 328.199 107.571 327.469 108.561 327.469C109.271 327.469 109.801 327.909 109.911 328.519L110.751 328.349C110.571 327.349 109.711 326.709 108.541 326.709C107.041 326.709 106.041 327.749 106.041 329.309C106.041 330.869 107.041 331.909 108.541 331.909ZM111.819 331.829H112.669V324.749H111.819V331.829ZM115.925 326.709C114.865 326.709 114.035 327.359 113.885 328.359L114.675 328.509C114.745 327.829 115.235 327.419 115.925 327.419C116.665 327.419 117.155 327.859 117.155 328.549V328.649L116.175 328.759C114.565 328.919 113.775 329.449 113.775 330.419C113.775 331.289 114.465 331.909 115.475 331.909C116.205 331.909 116.865 331.549 117.155 330.969V331.829H117.995V328.599C117.995 327.429 117.145 326.709 115.925 326.709ZM115.605 331.209C115.025 331.209 114.625 330.879 114.625 330.409C114.625 329.879 115.155 329.529 116.175 329.419L117.155 329.309V329.549C117.155 330.559 116.585 331.209 115.605 331.209ZM119.318 324.749V325.829H120.298V324.749H119.318ZM119.378 331.829H120.228V326.789H119.378V331.829ZM121.604 331.829H122.454V329.299C122.454 328.229 122.924 327.459 123.784 327.459C124.484 327.459 124.874 327.929 124.874 328.619V331.829H125.724V329.299C125.724 328.229 126.194 327.459 127.054 327.459C127.764 327.459 128.154 327.929 128.154 328.619V331.829H129.004V328.449C129.004 327.389 128.324 326.709 127.244 326.709C126.484 326.709 125.884 327.169 125.614 327.769C125.434 327.089 124.794 326.709 123.974 326.709C123.204 326.709 122.704 327.139 122.454 327.739V326.789H121.604V331.829ZM132.073 331.909C133.183 331.909 133.923 331.289 133.923 330.409C133.933 328.329 131.013 329.119 131.013 328.039C131.013 327.639 131.373 327.409 131.943 327.409C132.483 327.409 132.983 327.739 133.123 328.259L133.833 327.949C133.623 327.209 132.853 326.709 131.963 326.709C130.883 326.709 130.193 327.249 130.193 328.049C130.193 329.959 133.093 329.129 133.093 330.419C133.093 330.829 132.693 331.189 132.073 331.189C131.293 331.189 130.893 330.709 130.703 330.119L129.973 330.439C130.193 331.149 130.853 331.909 132.073 331.909ZM139.295 326.709C138.235 326.709 137.405 327.359 137.255 328.359L138.045 328.509C138.115 327.829 138.605 327.419 139.295 327.419C140.035 327.419 140.525 327.859 140.525 328.549V328.649L139.545 328.759C137.935 328.919 137.145 329.449 137.145 330.419C137.145 331.289 137.835 331.909 138.845 331.909C139.575 331.909 140.235 331.549 140.525 330.969V331.829H141.365V328.599C141.365 327.429 140.515 326.709 139.295 326.709ZM138.975 331.209C138.395 331.209 137.995 330.879 137.995 330.409C137.995 329.879 138.525 329.529 139.545 329.419L140.525 329.309V329.549C140.525 330.559 139.955 331.209 138.975 331.209ZM142.747 331.829H143.597V329.619C143.597 328.289 144.197 327.479 145.137 327.479C145.847 327.479 146.277 327.969 146.277 328.649V331.829H147.127V328.489C147.127 327.419 146.377 326.709 145.327 326.709C144.557 326.709 143.947 327.139 143.597 327.739V326.789H142.747V331.829ZM150.648 331.909C151.388 331.909 152.058 331.559 152.288 331.099V331.829H153.138V324.749H152.288V327.509C151.968 327.039 151.308 326.709 150.638 326.709C149.078 326.709 148.218 327.829 148.218 329.309C148.218 330.789 149.078 331.909 150.648 331.909ZM150.728 331.149C149.738 331.149 149.088 330.419 149.088 329.309C149.088 328.199 149.738 327.469 150.728 327.469C151.718 327.469 152.368 328.199 152.368 329.309C152.368 330.419 151.718 331.149 150.728 331.149ZM158.616 331.909C159.726 331.909 160.466 331.289 160.466 330.409C160.476 328.329 157.556 329.119 157.556 328.039C157.556 327.639 157.916 327.409 158.486 327.409C159.026 327.409 159.526 327.739 159.666 328.259L160.376 327.949C160.166 327.209 159.396 326.709 158.506 326.709C157.426 326.709 156.736 327.249 156.736 328.049C156.736 329.959 159.636 329.129 159.636 330.419C159.636 330.829 159.236 331.189 158.616 331.189C157.836 331.189 157.436 330.709 157.246 330.119L156.516 330.439C156.736 331.149 157.396 331.909 158.616 331.909ZM164.856 326.789L163.376 330.649L161.896 326.789H160.976L162.946 331.759L162.216 333.649H163.086L165.726 326.789H164.856ZM166.545 331.829H167.395V329.619C167.395 328.289 167.995 327.479 168.935 327.479C169.645 327.479 170.075 327.969 170.075 328.649V331.829H170.925V328.489C170.925 327.419 170.175 326.709 169.125 326.709C168.355 326.709 167.745 327.139 167.395 327.739V326.789H166.545V331.829ZM174.659 324.749V325.829H175.639V324.749H174.659ZM174.719 331.829H175.569V326.789H174.719V331.829ZM179.626 331.789L179.566 331.009C179.366 331.109 179.136 331.139 178.936 331.139C178.496 331.139 178.196 330.879 178.196 330.349V327.539H179.546V326.789H178.196V325.259H177.346V326.789H176.406V327.539H177.346V330.319C177.346 331.429 177.976 331.909 178.836 331.909C179.106 331.909 179.376 331.879 179.626 331.789ZM184.15 331.829H184.98L186.16 327.999L187.34 331.829H188.17L189.72 326.789H188.83L187.75 330.639L186.57 326.789H185.75L184.57 330.639L183.48 326.789H182.61L184.15 331.829ZM190.607 324.749V325.829H191.587V324.749H190.607ZM190.667 331.829H191.517V326.789H190.667V331.829ZM195.573 331.789L195.513 331.009C195.313 331.109 195.083 331.139 194.883 331.139C194.443 331.139 194.143 330.879 194.143 330.349V327.539H195.493V326.789H194.143V325.259H193.293V326.789H192.353V327.539H193.293V330.319C193.293 331.429 193.923 331.909 194.783 331.909C195.053 331.909 195.323 331.879 195.573 331.789ZM196.653 331.829H197.503V329.669C197.503 328.319 198.103 327.479 199.033 327.479C199.803 327.479 200.263 327.929 200.263 328.669V331.829H201.113V328.509C201.113 327.419 200.363 326.709 199.223 326.709C198.483 326.709 197.873 327.059 197.503 327.779V324.749H196.653V331.829ZM206.785 326.709C205.725 326.709 204.895 327.359 204.745 328.359L205.535 328.509C205.605 327.829 206.095 327.419 206.785 327.419C207.525 327.419 208.015 327.859 208.015 328.549V328.649L207.035 328.759C205.425 328.919 204.635 329.449 204.635 330.419C204.635 331.289 205.325 331.909 206.335 331.909C207.065 331.909 207.725 331.549 208.015 330.969V331.829H208.855V328.599C208.855 327.429 208.005 326.709 206.785 326.709ZM206.465 331.209C205.885 331.209 205.485 330.879 205.485 330.409C205.485 329.879 206.015 329.529 207.035 329.419L208.015 329.309V329.549C208.015 330.559 207.445 331.209 206.465 331.209ZM210.237 331.829H211.087V329.619C211.087 328.289 211.687 327.479 212.627 327.479C213.337 327.479 213.767 327.969 213.767 328.649V331.829H214.617V328.489C214.617 327.419 213.867 326.709 212.817 326.709C212.047 326.709 211.437 327.139 211.087 327.739V326.789H210.237V331.829ZM219.153 326.789L217.673 330.649L216.193 326.789H215.273L217.243 331.759L216.513 333.649H217.383L220.023 326.789H219.153ZM224.944 331.909C226.054 331.909 226.794 331.289 226.794 330.409C226.804 328.329 223.884 329.119 223.884 328.039C223.884 327.639 224.244 327.409 224.814 327.409C225.354 327.409 225.854 327.739 225.994 328.259L226.704 327.949C226.494 327.209 225.724 326.709 224.834 326.709C223.754 326.709 223.064 327.249 223.064 328.049C223.064 329.959 225.964 329.129 225.964 330.419C225.964 330.829 225.564 331.189 224.944 331.189C224.164 331.189 223.764 330.709 223.574 330.119L222.844 330.439C223.064 331.149 223.724 331.909 224.944 331.909ZM232.395 329.079C232.395 327.779 231.475 326.709 229.985 326.709C228.465 326.709 227.545 327.879 227.545 329.309C227.545 330.739 228.495 331.909 230.005 331.909C231.165 331.909 232.005 331.339 232.255 330.359L231.455 330.169C231.305 330.799 230.775 331.159 230.005 331.159C229.095 331.159 228.455 330.489 228.395 329.469H232.375C232.385 329.379 232.395 329.199 232.395 329.079ZM228.445 328.759C228.615 327.919 229.195 327.419 229.985 327.419C230.875 327.419 231.415 327.989 231.495 328.759H228.445ZM236.439 327.619L236.489 326.799C236.319 326.739 236.119 326.709 235.909 326.709C235.289 326.709 234.629 327.169 234.339 327.809V326.789H233.489V331.829H234.339V329.909C234.339 328.269 234.989 327.499 235.789 327.499C236.009 327.499 236.249 327.539 236.439 327.619ZM238.597 331.829H239.467L241.317 326.789H240.437L239.027 330.839L237.627 326.789H236.757L238.597 331.829ZM242.081 324.749V325.829H243.061V324.749H242.081ZM242.141 331.829H242.991V326.789H242.141V331.829ZM246.578 331.909C247.738 331.909 248.578 331.299 248.798 330.259L247.968 330.089C247.828 330.759 247.308 331.149 246.598 331.149C245.608 331.149 244.968 330.419 244.968 329.309C244.968 328.199 245.608 327.469 246.598 327.469C247.308 327.469 247.838 327.909 247.948 328.519L248.788 328.349C248.608 327.349 247.748 326.709 246.578 326.709C245.078 326.709 244.078 327.749 244.078 329.309C244.078 330.869 245.078 331.909 246.578 331.909ZM254.416 329.079C254.416 327.779 253.496 326.709 252.006 326.709C250.486 326.709 249.566 327.879 249.566 329.309C249.566 330.739 250.516 331.909 252.026 331.909C253.186 331.909 254.026 331.339 254.276 330.359L253.476 330.169C253.326 330.799 252.796 331.159 252.026 331.159C251.116 331.159 250.476 330.489 250.416 329.469H254.396C254.406 329.379 254.416 329.199 254.416 329.079ZM250.466 328.759C250.636 327.919 251.216 327.419 252.006 327.419C252.896 327.419 253.436 327.989 253.516 328.759H250.466ZM255.208 330.789V331.829H256.188V330.789H255.208Z" fill="white"/>
<path d="M152.666 245C151.661 245 150.656 244.794 149.715 244.382C143.994 241.877 131.199 234.903 122.582 219.861C121.828 218.546 121.107 217.17 120.424 215.729C117.973 210.549 116.031 204.543 114.949 197.597C114.85 196.964 114.758 196.321 114.674 195.672C114.502 194.342 114.361 192.977 114.252 191.58C114.214 191.076 114.18 190.574 114.149 190.062C113.939 186.477 113.945 182.673 114.206 178.643C114.377 175.988 115.981 173.637 118.383 172.495L144.208 160.23L149.515 157.71C150.512 157.236 151.589 157 152.666 157C153.743 157 154.82 157.236 155.816 157.71L186.948 172.495C189.351 173.637 190.954 175.988 191.126 178.643C191.491 184.296 191.357 189.499 190.824 194.285C189.979 201.88 188.128 208.421 185.675 214.04C185.025 215.529 184.333 216.953 183.606 218.314C175.002 234.426 161.53 241.792 155.616 244.382C154.676 244.794 153.671 245 152.666 245M140.416 164.508C140.367 164.508 140.318 164.518 140.272 164.541L119.329 174.487C117.646 175.286 116.525 176.933 116.406 178.785C116.205 181.883 116.154 184.941 116.252 187.872C116.258 188.053 116.407 188.195 116.587 188.195H116.598C116.783 188.189 116.927 188.034 116.921 187.849C116.824 184.94 116.875 181.905 117.074 178.828C117.178 177.219 118.152 175.787 119.617 175.092L140.559 165.145C140.726 165.066 140.797 164.866 140.718 164.699C140.661 164.578 140.541 164.508 140.416 164.508M150.605 159.668C150.557 159.668 150.508 159.679 150.461 159.701L143.105 163.195C142.938 163.274 142.867 163.474 142.946 163.641C143.003 163.762 143.124 163.832 143.249 163.832C143.297 163.832 143.346 163.822 143.392 163.8L150.748 160.306C150.915 160.227 150.986 160.027 150.907 159.86C150.85 159.74 150.73 159.668 150.605 159.668" fill="#FCFBFF"/>
<path d="M143.249 163.725C143.124 163.725 143.004 163.655 142.946 163.534C142.868 163.367 142.938 163.167 143.105 163.088L150.462 159.594C150.508 159.572 150.557 159.561 150.605 159.561C150.73 159.561 150.85 159.633 150.907 159.753C150.987 159.92 150.915 160.12 150.748 160.199L143.393 163.693C143.346 163.715 143.297 163.725 143.249 163.725" fill="#FCFBFF"/>
<path d="M116.587 188.088C116.408 188.088 116.259 187.946 116.253 187.765C116.155 184.834 116.206 181.776 116.406 178.678C116.526 176.827 117.646 175.179 119.33 174.38L140.272 164.434C140.319 164.412 140.368 164.401 140.416 164.401C140.542 164.401 140.661 164.471 140.719 164.592C140.797 164.76 140.727 164.959 140.56 165.038L119.617 174.985C118.153 175.68 117.179 177.112 117.075 178.721C116.876 181.798 116.824 184.833 116.922 187.742C116.928 187.927 116.783 188.082 116.599 188.088H116.587" fill="#FCFBFF"/>
<path d="M183.598 180.298C183.563 179.625 183.162 179.024 182.554 178.735L153.451 164.913C152.954 164.677 152.378 164.677 151.881 164.913L122.778 178.735C122.169 179.024 121.769 179.625 121.735 180.298C120.874 197.136 124.763 211.185 133.302 222.074C139.813 230.375 147.429 234.824 151.891 236.9C152.383 237.128 152.949 237.129 153.441 236.9C157.903 234.824 165.519 230.375 172.03 222.074C180.569 211.185 184.458 197.136 183.598 180.298" fill="#02000B"/>
<path d="M144.061 198.388H141.161V186.83C141.161 182.29 144.559 178.453 149.066 177.906L154.997 177.185C157.549 176.874 160.117 177.674 162.042 179.38C163.967 181.085 165.071 183.537 165.071 186.109V196.2H162.17V186.109C162.17 184.367 161.422 182.706 160.119 181.551C158.815 180.396 157.075 179.854 155.347 180.064L149.416 180.785C146.363 181.156 144.061 183.755 144.061 186.83V198.388" fill="#FCFBFF"/>
<path d="M140.304 195.793L165.729 194.384C166.762 194.327 167.63 195.149 167.63 196.184V216.327C167.63 217.322 166.824 218.128 165.829 218.128H141.014C140.042 218.128 139.245 217.357 139.213 216.385L138.602 197.651C138.57 196.673 139.326 195.847 140.304 195.793" fill="#FCFBFF"/>
<path d="M157.261 212.358L155.722 207.934C155.537 207.402 155.663 206.807 156.059 206.406C156.847 205.607 157.317 204.492 157.262 203.269C157.164 201.111 155.401 199.361 153.242 199.278C150.853 199.186 148.887 201.096 148.887 203.465C148.887 204.779 149.492 205.951 150.439 206.719C150.93 207.117 151.131 207.771 150.924 208.368L149.537 212.358C149.199 213.328 149.919 214.341 150.946 214.341H155.851C156.878 214.341 157.598 213.328 157.261 212.358" fill="#02000B"/>
</g>
<defs>
<clipPath id="clip0_259_2509">
<rect width="306" height="495" fill="white"/>
</clipPath>
</defs>
</svg>
