<svg width="61" height="60" viewBox="0 0 61 60" fill="none" xmlns="http://www.w3.org/2000/svg">
<path d="M58.9637 54.224L46.4505 42.3427C50.053 37.8554 52.2016 32.2308 52.2016 26.0376C52.2012 11.6916 40.4468 0 26.1008 0C11.6917 0 0 11.6916 0 26.1008C0 40.51 11.6917 52.2016 26.1008 52.2016C32.231 52.2016 37.9189 50.053 42.4059 46.4505L54.224 58.9637L54.3505 59.0902C55.6779 60.3541 57.8265 60.2911 59.0904 58.9637C60.4173 57.6363 60.3542 55.4877 58.9638 54.2239L58.9637 54.224ZM4.80294 26.1008C4.80294 14.346 14.3457 4.80306 26.1007 4.80306C37.8557 4.80306 47.3985 14.3459 47.3985 26.1008C47.3985 37.8558 37.8557 47.3986 26.1007 47.3986C14.3459 47.3355 4.80294 37.7924 4.80294 26.1008Z" fill="#BFDCFF"/>
<path d="M29.2604 10.8699C27.8701 8.3422 24.268 8.3422 22.8775 10.8699L11.8809 30.9037C10.5536 33.3053 12.3235 36.2758 15.1039 36.2758H37.0969C39.8777 36.2758 41.6471 33.3054 40.3199 30.9037L29.2604 10.8699ZM24.0779 16.7471C24.0779 15.6728 24.9627 14.7881 26.037 14.7881C27.1113 14.7881 27.996 15.6728 27.996 16.7471V23.8252C27.996 24.8995 27.1113 25.7842 26.037 25.7842C24.9627 25.7842 24.0779 24.8994 24.0779 23.8252V16.7471ZM26.1005 32.2306C24.8367 32.2306 23.8254 31.2194 23.8254 29.9555C23.8254 28.6916 24.8367 27.6804 26.1005 27.6804C27.3644 27.6804 28.3756 28.6916 28.3756 29.9555C28.3122 31.2193 27.3013 32.2306 26.1005 32.2306Z" fill="#BFDCFF"/>
</svg>
