<svg width="178" height="51" viewBox="0 0 178 51" fill="none" xmlns="http://www.w3.org/2000/svg">
<path d="M170.539 51H7.07704C3.48252 51 0.538574 48.1297 0.538574 44.625V6.375C0.538574 2.87035 3.48252 9.53674e-07 7.07704 9.53674e-07H170.539C174.133 9.53674e-07 177.077 2.87035 177.077 6.375V44.625C177.077 48.1297 174.133 51 170.539 51Z" fill="#02000B"/>
<path d="M170.539 1.02159C173.566 1.02159 176.029 3.42338 176.029 6.375V44.625C176.029 47.5766 173.566 49.9784 170.539 49.9784H7.07704C4.04973 49.9784 1.58636 47.5766 1.58636 44.625V6.375C1.58636 3.42338 4.04973 1.02159 7.07704 1.02159H170.539ZM170.539 9.53674e-07H7.07704C3.48252 9.53674e-07 0.538574 2.87034 0.538574 6.375V44.625C0.538574 48.1297 3.48252 51 7.07704 51H170.539C174.133 51 177.077 48.1297 177.077 44.625V6.375C177.077 2.87034 174.133 9.53674e-07 170.539 9.53674e-07Z" fill="#A6A6A6"/>
<path d="M14.1843 9.61184C13.8002 10.0039 13.5779 10.6143 13.5779 11.4048V39.6014C13.5779 40.3919 13.8002 41.0023 14.1843 41.3944L14.2791 41.4805L30.4847 25.6864V25.3135L14.2791 9.5194L14.1843 9.61184Z" fill="url(#paint0_linear_517_332)"/>
<path d="M35.8805 30.9536L30.4846 25.6863V25.3133L35.887 20.046L36.008 20.1145L42.4059 23.6638C44.2317 24.6711 44.2317 26.3286 42.4059 27.3422L36.008 30.8851L35.8805 30.9536Z" fill="url(#paint1_linear_517_332)"/>
<path d="M36.0081 30.8852L30.4847 25.4999L14.1843 41.3943C14.7908 42.0159 15.7797 42.0908 16.9043 41.4693L36.0081 30.8852Z" fill="url(#paint2_linear_517_332)"/>
<path d="M36.0081 20.1147L16.9043 9.53063C15.7797 8.91544 14.7908 8.99035 14.1843 9.61191L30.4847 25.5L36.0081 20.1147Z" fill="url(#paint3_linear_517_332)"/>
<path d="M62.546 13.0608C62.546 14.1255 62.2191 14.9781 61.5751 15.614C60.8346 16.3679 59.8702 16.7472 58.6883 16.7472C57.5588 16.7472 56.5944 16.3615 55.8032 15.6013C55.0104 14.8299 54.6149 13.8832 54.6149 12.7501C54.6149 11.6169 55.0104 10.6702 55.8032 9.90521C56.5944 9.13862 57.5588 8.75293 58.6883 8.75293C59.2506 8.75293 59.7868 8.86609 60.2984 9.07646C60.8084 9.28843 61.2236 9.5753 61.5244 9.92912L60.8411 10.6017C60.3164 9.99765 59.6021 9.69962 58.6883 9.69962C57.8645 9.69962 57.1502 9.98012 56.5437 10.5459C55.9438 11.1133 55.643 11.848 55.643 12.7501C55.643 13.6521 55.9438 14.3932 56.5437 14.9606C57.1502 15.52 57.8645 15.8069 58.6883 15.8069C59.5629 15.8069 60.2984 15.52 60.8787 14.9542C61.2612 14.5797 61.4786 14.0633 61.5358 13.4035H58.6883V12.4823H62.4872C62.5329 12.6815 62.546 12.8744 62.546 13.0608Z" fill="white" stroke="white" stroke-width="0.16" stroke-miterlimit="10"/>
<path d="M68.5728 9.86694H65.0045V12.2894H68.2214V13.2106H65.0045V15.6331H68.5728V16.5718H63.9943V8.92822H68.5728V9.86694Z" fill="white" stroke="white" stroke-width="0.16" stroke-miterlimit="10"/>
<path d="M72.8261 16.5718H71.8159V9.86694H69.6272V8.92822H75.0165V9.86694H72.8261V16.5718Z" fill="white" stroke="white" stroke-width="0.16" stroke-miterlimit="10"/>
<path d="M78.9167 16.5718V8.92822H79.9253V16.5718H78.9167Z" fill="white" stroke="white" stroke-width="0.16" stroke-miterlimit="10"/>
<path d="M84.3958 16.5718H83.3938V9.86694H81.1969V8.92822H86.5928V9.86694H84.3958V16.5718Z" fill="white" stroke="white" stroke-width="0.16" stroke-miterlimit="10"/>
<path d="M96.7961 15.5885C96.0229 16.3615 95.0651 16.7472 93.9225 16.7472C92.7733 16.7472 91.8154 16.3615 91.0423 15.5885C90.2707 14.8171 89.8866 13.8705 89.8866 12.7501C89.8866 11.6296 90.2707 10.683 91.0423 9.91159C91.8154 9.13862 92.7733 8.75293 93.9225 8.75293C95.0585 8.75293 96.0164 9.13862 96.7896 9.91796C97.5677 10.6957 97.9518 11.636 97.9518 12.7501C97.9518 13.8705 97.5677 14.8171 96.7961 15.5885ZM91.7893 14.9478C92.3712 15.52 93.079 15.8069 93.9225 15.8069C94.7594 15.8069 95.4737 15.52 96.0491 14.9478C96.6294 14.3757 96.9236 13.641 96.9236 12.7501C96.9236 11.8591 96.6294 11.1244 96.0491 10.5523C95.4737 9.98012 94.7594 9.69324 93.9225 9.69324C93.079 9.69324 92.3712 9.98012 91.7893 10.5523C91.209 11.1244 90.9148 11.8591 90.9148 12.7501C90.9148 13.641 91.209 14.3757 91.7893 14.9478Z" fill="white" stroke="white" stroke-width="0.16" stroke-miterlimit="10"/>
<path d="M99.369 16.5718V8.92822H100.595L104.407 14.8729H104.451L104.407 13.4035V8.92822H105.415V16.5718H104.363L100.371 10.3339H100.327L100.371 11.8097V16.5718H99.369Z" fill="white" stroke="white" stroke-width="0.16" stroke-miterlimit="10"/>
<path d="M89.6382 27.7344C86.5668 27.7344 84.0576 30.0134 84.0576 33.1579C84.0576 36.2769 86.5668 38.5798 89.6382 38.5798C92.7162 38.5798 95.2253 36.2769 95.2253 33.1579C95.2253 30.0134 92.7162 27.7344 89.6382 27.7344ZM89.6382 36.4442C87.9529 36.4442 86.503 35.0879 86.503 33.1579C86.503 31.2024 87.9529 29.87 89.6382 29.87C91.3235 29.87 92.7799 31.2024 92.7799 33.1579C92.7799 35.0879 91.3235 36.4442 89.6382 36.4442ZM77.462 27.7344C74.384 27.7344 71.8814 30.0134 71.8814 33.1579C71.8814 36.2769 74.384 38.5798 77.462 38.5798C80.5383 38.5798 83.0425 36.2769 83.0425 33.1579C83.0425 30.0134 80.5383 27.7344 77.462 27.7344ZM77.462 36.4442C75.775 36.4442 74.3202 35.0879 74.3202 33.1579C74.3202 31.2024 75.775 29.87 77.462 29.87C79.1472 29.87 80.5972 31.2024 80.5972 33.1579C80.5972 35.0879 79.1472 36.4442 77.462 36.4442ZM62.9727 29.3966V31.7012H68.6171C68.452 32.989 68.0106 33.9356 67.3339 34.5955C66.51 35.3923 65.2269 36.2769 62.9727 36.2769C59.4992 36.2769 56.7792 33.5436 56.7792 30.1569C56.7792 26.7701 59.4992 24.0369 62.9727 24.0369C64.8509 24.0369 66.2174 24.7525 67.226 25.68L68.8917 24.056C67.481 22.7427 65.6045 21.7339 62.9727 21.7339C58.2095 21.7339 54.2063 25.5127 54.2063 30.1569C54.2063 34.801 58.2095 38.5798 62.9727 38.5798C65.5473 38.5798 67.481 37.7574 69.0012 36.2147C70.559 34.6959 71.0445 32.5602 71.0445 30.8358C71.0445 30.3003 70.9987 29.8078 70.917 29.3966H62.9727ZM122.221 31.1832C121.762 29.9704 120.344 27.7344 117.458 27.7344C114.597 27.7344 112.216 29.9321 112.216 33.1579C112.216 36.1956 114.573 38.5798 117.732 38.5798C120.287 38.5798 121.762 37.061 122.368 36.1764L120.472 34.9445C119.839 35.8465 118.978 36.4442 117.732 36.4442C116.495 36.4442 115.607 35.8912 115.038 34.801L122.478 31.8L122.221 31.1832ZM114.636 32.9889C114.573 30.898 116.302 29.827 117.541 29.827C118.512 29.827 119.336 30.3003 119.611 30.9776L114.636 32.9889ZM108.59 38.2499H111.035V22.3124H108.59V38.2499ZM104.585 28.9424H104.503C103.954 28.3081 102.906 27.7344 101.579 27.7344C98.7937 27.7344 96.247 30.1186 96.247 33.1754C96.247 36.2147 98.7937 38.5798 101.579 38.5798C102.906 38.5798 103.954 38.0013 104.503 37.3479H104.585V38.1256C104.585 40.1991 103.449 41.3131 101.617 41.3131C100.123 41.3131 99.1958 40.2612 98.8133 39.3767L96.6867 40.2421C97.2996 41.6797 98.9228 43.4487 101.617 43.4487C104.484 43.4487 106.903 41.804 106.903 37.8021V28.0643H104.585V28.9424ZM101.788 36.4442C100.103 36.4442 98.6923 35.0688 98.6923 33.1754C98.6923 31.2645 100.103 29.87 101.788 29.87C103.449 29.87 104.758 31.2645 104.758 33.1754C104.758 35.0688 103.449 36.4442 101.788 36.4442ZM133.67 22.3124H127.821V38.2499H130.26V32.2112H133.67C136.378 32.2112 139.035 30.3003 139.035 27.261C139.035 24.2233 136.372 22.3124 133.67 22.3124ZM133.734 29.9943H130.26V24.5293H133.734C135.555 24.5293 136.594 26.0035 136.594 27.261C136.594 28.4946 135.555 29.9943 133.734 29.9943ZM148.81 27.7041C147.048 27.7041 145.215 28.4627 144.462 30.1441L146.626 31.0286C147.092 30.1441 147.948 29.8572 148.854 29.8572C150.119 29.8572 151.402 30.5983 151.422 31.9068V32.0741C150.98 31.8255 150.036 31.4574 148.873 31.4574C146.542 31.4574 144.167 32.7085 144.167 35.0433C144.167 37.1789 146.077 38.5543 148.223 38.5543C149.864 38.5543 150.77 37.8324 151.338 36.9925H151.422V38.2244H153.777V32.1108C153.777 29.2851 151.613 27.7041 148.81 27.7041ZM148.515 36.4378C147.718 36.4378 146.606 36.0521 146.606 35.0879C146.606 33.8544 147.992 33.381 149.192 33.381C150.266 33.381 150.77 33.6121 151.422 33.9165C151.23 35.3923 149.928 36.4378 148.515 36.4378ZM162.359 28.0531L159.556 34.962H159.472L156.574 28.0531H153.944L158.299 37.708L155.814 43.0806H158.362L165.072 28.0531H162.359ZM140.375 38.2499H142.82V22.3124H140.375V38.2499Z" fill="white"/>
<defs>
<linearGradient id="paint0_linear_517_332" x1="29.0458" y1="39.8951" x2="7.65514" y2="17.9559" gradientUnits="userSpaceOnUse">
<stop stop-color="#00A0FF"/>
<stop offset="0.0066" stop-color="#00A1FF"/>
<stop offset="0.2601" stop-color="#00BEFF"/>
<stop offset="0.5122" stop-color="#00D2FF"/>
<stop offset="0.7604" stop-color="#00DFFF"/>
<stop offset="1" stop-color="#00E3FF"/>
</linearGradient>
<linearGradient id="paint1_linear_517_332" x1="44.7834" y1="25.498" x2="13.1414" y2="25.498" gradientUnits="userSpaceOnUse">
<stop stop-color="#FFE000"/>
<stop offset="0.4087" stop-color="#FFBD00"/>
<stop offset="0.7754" stop-color="#FFA500"/>
<stop offset="1" stop-color="#FF9C00"/>
</linearGradient>
<linearGradient id="paint2_linear_517_332" x1="33.0046" y1="22.5724" x2="3.9971" y2="-7.17896" gradientUnits="userSpaceOnUse">
<stop stop-color="#FF3A44"/>
<stop offset="1" stop-color="#C31162"/>
</linearGradient>
<linearGradient id="paint3_linear_517_332" x1="10.0812" y1="50.7754" x2="23.0343" y2="37.4902" gradientUnits="userSpaceOnUse">
<stop stop-color="#32A071"/>
<stop offset="0.0685" stop-color="#2DA771"/>
<stop offset="0.4762" stop-color="#15CF74"/>
<stop offset="0.8009" stop-color="#06E775"/>
<stop offset="1" stop-color="#00F076"/>
</linearGradient>
</defs>
</svg>
