<svg width="1440" height="810" viewBox="0 0 1440 810" fill="none" xmlns="http://www.w3.org/2000/svg">
<path opacity="0.1" d="M1219.53 392.906L1132.56 489.207L959.171 537.244H958.896L871.925 633.544L698.532 681.581H698.257L611.286 777.882L494.59 810.284H498.168L612.387 778.561H612.662L699.633 682.261L873.026 634.224H873.301L960.272 537.923L1133.66 489.886H1133.94L1220.91 393.586L1394.3 345.549H1394.58L1451.83 282.104V280.065L1392.93 344.869L1219.53 392.906ZM1197.79 380.897L1110.82 477.197L937.428 525.234H937.153L850.182 621.535L676.789 669.572H676.514L589.268 766.099L429.086 810.511H432.664L590.093 766.779H590.369L677.34 670.478L850.732 622.441H851.008L937.979 526.141L1111.37 478.104H1111.65L1198.62 381.803L1372.01 333.766H1372.29L1451.28 246.303V244.263L1371.18 333.087L1197.79 380.897ZM1284.49 140.032L1197.52 236.333L1024.12 284.37H1023.85L936.878 380.67L763.486 428.707H763.21L676.239 525.008L502.847 573.045H502.572L415.6 669.345L242.208 717.382H241.933L158.539 809.831H160.19L243.033 717.835L416.426 669.798H416.701L503.672 573.498L677.065 525.461H677.34L764.311 429.16L937.704 381.123H937.979L1024.95 284.823L1198.34 236.786H1198.62L1285.59 140.712L1451.28 94.7144V93.808L1284.49 140.032ZM1306.23 152.042L1219.26 248.342L1045.87 296.379H1045.59L958.621 392.68L785.229 440.717H784.953L697.982 537.017L524.59 585.054H524.314L437.343 681.355L263.951 729.391H263.675L191.016 809.831H192.667L264.776 730.071L438.169 682.034H438.444L525.415 585.734L698.807 537.697H699.083L786.054 441.396L959.446 393.359H959.722L1046.69 297.059L1220.09 249.022H1220.36L1307.33 152.721L1451.28 112.842V111.935L1306.23 152.042ZM1414.67 501.216L1327.7 597.516L1154.31 645.553H1154.03L1067.06 741.854L893.667 789.891H893.392L874.952 810.284H876.603L894.218 790.571L1067.61 742.534H1067.89L1154.86 646.233L1328.25 598.196H1328.52L1415.5 501.896L1451 492.152V491.246L1414.67 501.216ZM1436.41 513.452L1349.44 609.752L1176.05 657.789H1175.77L1088.8 754.09L915.41 802.127H915.135L907.704 810.284H909.355L916.236 802.58L1089.63 754.543H1089.9L1176.87 658.242L1350.27 610.205H1350.54L1437.51 513.905L1451.28 510.053V509.147L1436.41 513.452ZM1263.02 416.925L1176.05 513.225L1002.66 561.262H1002.38L915.41 657.563L742.018 705.6H741.743L654.771 801.9L625.047 810.057H628.625L655.872 802.58H656.148L743.119 706.279L916.511 658.242H916.786L1003.76 561.942L1177.15 513.905H1177.43L1264.4 417.604L1437.79 369.567H1438.06L1451.83 354.386V352.347L1436.96 368.888L1263.02 416.925ZM1241.28 404.915L1154.31 501.216L980.914 549.253H980.639L893.392 645.78L720 693.817H719.725L632.753 790.117L559.543 810.511H563.121L633.854 791.024H634.129L721.101 694.723L894.493 646.686H894.768L981.74 550.386L1155.13 502.349H1155.41L1242.38 406.048L1415.77 358.011H1416.05L1451.55 318.811V316.772L1414.95 357.332L1241.28 404.915ZM1392.93 200.305L1305.96 296.606L1132.56 344.643H1132.29L1045.32 440.943L871.925 488.98H871.649L784.678 585.281L611.286 633.318H611.01L524.039 729.618L350.647 777.655H350.372L321.198 810.057H322.849L351.473 778.335L524.865 730.298H525.14L612.111 633.997L785.504 585.96H785.779L872.75 489.66L1046.14 441.623H1046.42L1133.39 345.322L1306.78 297.285H1307.06L1394.03 200.985L1451.28 185.124V184.217L1392.93 200.305ZM1436.41 224.324L1349.44 320.624L1176.05 368.661H1175.77L1088.8 464.962L915.41 512.999H915.135L828.164 609.299L654.771 657.336H654.496L567.525 753.637L394.133 801.674H393.857L386.426 809.831H388.078L394.958 802.127L568.35 754.09H568.626L655.597 657.789L828.989 609.752H829.265L916.236 513.452L1089.63 465.415H1089.9L1176.87 369.114L1350.27 321.077H1350.54L1437.51 224.777L1451.28 220.925V220.018L1436.41 224.324ZM1414.67 212.314L1327.7 308.615L1154.31 356.652H1154.03L1067.34 453.179L893.943 501.216H893.667L806.696 597.743L633.304 645.78H633.029L546.057 742.081L372.665 790.117H372.39L353.95 810.511H355.601L373.215 790.797L546.608 742.76H546.883L633.854 646.46L807.247 598.423H807.522L894.493 502.122L1067.89 454.085H1068.16L1155.13 357.785L1328.52 309.748H1328.8L1415.77 212.994L1451.28 203.251V202.344L1414.67 212.314ZM1327.7 164.051L1241 260.578L1067.61 308.615H1067.34L980.364 404.915L806.696 453.179H806.421L719.449 549.479L546.057 597.516H545.782L458.811 693.817L285.418 741.854H285.143L223.492 810.284H225.144L286.244 742.534L459.636 694.497H459.911L546.883 598.196L720.275 550.159H720.55L807.522 453.859L980.914 405.822H981.189L1068.16 309.521L1241.55 261.484H1241.83L1328.8 165.184L1451 131.195V130.289L1327.7 164.051ZM1263.02 128.023L1175.77 224.324L1002.38 272.361H1002.11L915.135 368.661L741.743 416.698H741.468L654.496 512.999L481.104 561.036H480.829L393.857 657.789L220.465 705.826H220.19L133.218 802.127L103.494 810.284H107.072L134.319 802.806H134.594L221.566 706.506L394.958 658.469H395.233L482.205 562.168L655.597 514.131H655.872L742.844 417.831L916.236 369.794H916.511L1003.48 273.493L1176.87 225.457H1177.15L1264.12 129.156L1437.51 81.119H1437.79L1451.55 65.9375V63.445L1436.69 79.9861L1263.02 128.023ZM1349.44 176.287L1262.47 272.587L1089.08 320.624H1088.8L1002.11 416.925L828.714 464.962H828.439L741.468 561.262L568.075 609.299H567.8L480.829 705.6L307.436 753.637H307.161L256.244 810.511H257.896L308.262 754.77L481.654 706.733H481.93L568.901 610.432L742.293 562.395H742.568L829.54 466.095L1002.93 418.058H1003.21L1090.18 321.757L1263.57 273.72H1263.85L1350.82 176.74L1451.55 148.869V147.963L1349.44 176.287ZM1392.93 489.207L1305.96 585.507L1132.56 633.544H1132.29L1045.32 729.845L871.925 777.882H871.649L842.475 810.511H844.127L872.75 778.788L1046.14 730.751H1046.42L1133.39 634.451L1306.78 586.414H1307.06L1394.03 490.113L1451.28 474.252V473.345L1392.93 489.207ZM1414.67 67.7503L1241.28 115.787H1241L1154.03 212.088L980.639 260.125H980.364L893.392 356.425L720 404.462H719.725L632.753 500.763L459.361 548.8H459.086L372.114 645.78L198.722 693.817H198.447L111.476 790.117L38.2654 810.511H41.8434L112.576 791.024H112.852L199.823 694.723L373.215 646.686H373.491L460.462 550.386L633.854 502.349H634.129L721.101 406.048L894.493 358.011H894.768L981.74 261.711L1155.13 213.674H1155.41L1242.38 117.373L1415.77 69.3364H1416.05L1451.55 30.1364V27.1907L1414.67 67.7503ZM1371.18 188.296L1284.21 284.596L1110.82 332.633H1110.55L1023.57 428.934L850.182 476.971H849.907L762.935 573.271L589.543 621.308H589.268L502.296 717.609L328.904 765.646H328.629L288.721 810.057H290.372L329.73 766.326L503.122 718.289H503.397L590.369 621.988L763.761 573.951H764.036L851.008 477.651L1024.4 429.614H1024.68L1111.65 333.313L1285.04 285.276H1285.31L1372.29 188.976L1451.28 166.996V166.09L1371.18 188.296ZM1327.7 742.081L1266.05 810.511H1267.7L1328.8 742.76L1451 708.772V707.865L1327.7 742.081ZM1349.44 754.09L1298.52 810.511H1300.18L1350.54 754.77L1451.28 726.899V725.993L1349.44 754.09ZM1284.49 718.062L1201.09 810.511H1202.75L1285.59 718.515L1451.28 672.518V671.611L1284.49 718.062ZM1371.18 766.099L1331.28 810.511H1332.93L1372.29 766.779L1451.28 744.8V743.893L1371.18 766.099ZM1263.02 705.826L1176.05 802.127L1146.32 810.284H1149.9L1177.15 802.806H1177.43L1264.4 706.506L1437.79 658.469H1438.06L1451.83 643.287V641.248L1436.96 657.789L1263.02 705.826ZM1436.41 802.353L1428.98 810.511H1430.63L1437.51 802.806L1451.28 798.954V798.048L1436.41 802.353ZM1414.67 790.344L1396.23 810.737H1397.88L1415.5 791.024L1451 781.28V780.374L1414.67 790.344ZM1371.18 477.197L1284.21 573.498L1110.82 621.535H1110.55L1023.57 717.835L850.182 765.872H849.907L809.999 810.284H811.65L851.008 766.552L1024.4 718.515H1024.68L1111.65 622.215L1285.04 574.178H1285.31L1372.29 477.877L1451.28 455.898V454.992L1371.18 477.197ZM1392.93 778.335L1363.75 810.737H1365.4L1394.03 779.015L1451.28 763.153V762.247L1392.93 778.335ZM1241.28 693.817L1154.31 790.117L1081.1 810.511H1084.67L1155.41 791.024H1155.68L1242.65 694.723L1416.05 646.686H1416.32L1451.83 607.486V605.447L1414.67 645.78L1241.28 693.817ZM1306.23 441.17L1219.26 537.47L1045.87 585.507H1045.59L958.621 681.808L785.229 729.845H784.953L712.294 810.284H713.945L786.054 730.524L959.446 682.487H959.722L1046.69 586.187L1220.09 538.15H1220.36L1307.33 441.849L1451.28 401.97V401.063L1306.23 441.17ZM1349.44 465.188L1262.47 561.489L1089.08 609.526H1088.8L1002.11 706.053L828.714 754.09H828.439L777.522 810.511H779.174L829.54 754.77L1002.93 706.733H1003.21L1090.18 610.432L1263.57 562.395H1263.85L1350.82 466.095L1451.55 438.224V437.318L1349.44 465.188ZM1327.7 453.179L1240.73 549.479L1067.34 597.516H1067.06L980.088 693.817L806.696 741.854H806.421L744.77 810.284H746.422L807.522 742.534L980.914 694.497H981.189L1068.16 598.196L1241.55 550.159H1241.83L1328.8 453.859L1451 419.87V418.964L1327.7 453.179ZM1284.49 429.16L1197.52 525.461L1024.12 573.498H1023.85L936.878 669.798L763.486 717.835H763.21L679.817 810.284H681.468L764.311 718.289L937.704 670.252H937.979L1024.95 573.951L1198.34 525.914H1198.62L1285.59 429.614L1451.28 383.616V382.71L1284.49 429.16ZM1219.53 681.808L1132.56 778.108L1015.87 810.511H1019.45L1133.66 778.788H1133.94L1220.91 682.487L1394.3 634.451H1394.58L1451.83 571.005V568.966L1392.93 633.771L1219.53 681.808ZM1197.79 669.798L1110.82 766.099L950.639 810.511H954.217L1111.65 766.779H1111.92L1198.89 670.478L1372.29 622.441H1372.56L1451.55 534.978V532.938L1371.46 621.761L1197.79 669.798ZM1306.23 730.071L1233.57 810.511H1235.22L1307.33 730.751L1451.28 690.871V689.965L1306.23 730.071ZM91.1088 345.322L264.501 297.285H264.776L351.748 200.985L525.14 152.948H525.415L612.387 56.6474L785.779 8.6104H786.054L793.485 0.453179H791.834L784.953 8.15722L611.561 56.1942H611.286L524.314 152.495L350.922 200.532H350.647L263.675 296.832L90.2831 344.869H90.0079L3.03652 441.17L-10.7248 445.022V445.928L4.13742 441.849L91.1088 345.322ZM47.6231 465.868L134.594 369.567L307.987 321.53H308.262L395.233 225.23L568.626 177.193H568.901L655.872 80.8924L829.265 32.8555H829.54L858.714 0H857.062L828.439 31.7225L655.047 79.7595H654.771L567.8 176.06L394.408 224.097H394.133L307.161 320.397L133.769 368.434H133.494L46.5222 464.735L-10.7248 480.596V481.503L47.6231 465.868ZM199.273 550.159L286.244 453.859L459.636 405.822H459.911L546.883 309.521L720.275 261.484H720.55L807.522 165.184L980.914 117.147H981.189L1068.44 20.3931L1141.65 0H1138.07L1067.34 19.4867H1067.06L980.088 115.787L806.696 163.824H806.421L719.725 260.578L546.332 308.615H546.057L459.086 404.915L285.693 452.952H285.418L198.447 549.479L25.0546 597.516H24.7794L-10.7248 636.943V638.982L25.8803 598.196L199.273 550.159ZM177.805 538.15L264.776 441.849L438.169 393.812H438.444L525.415 297.512L698.807 249.475H699.083L786.054 153.174L959.446 105.138H959.722L1046.69 8.83699L1076.42 0H1072.84L1045.59 7.47745H1045.32L958.346 103.778L784.953 151.815H784.678L697.707 248.115L524.314 296.152H524.039L437.068 392.453L263.675 440.49H263.4L176.429 536.79L3.03652 584.827H2.76129L-11 600.009V602.048L3.8622 585.507L177.805 538.15ZM33.8618 0H30.5591L3.31174 7.47745L3.03652 7.70404L-10.7248 22.8855V24.9248L4.13742 8.38381L33.8618 0ZM112.852 501.896L199.548 405.595L372.94 357.558H373.215L460.187 261.258L633.579 213.221H633.854L720.826 116.92L894.218 68.8832H894.493L956.419 0H954.768L893.667 67.7503L720.275 115.787H720L633.029 212.088L459.636 260.125H459.361L372.39 356.425L198.997 404.462H198.722L111.751 500.763L-10.7248 535.204V536.111L112.852 501.896ZM91.1088 489.886L178.08 393.586L351.473 345.549H351.748L438.719 249.248L612.111 201.211H612.387L699.358 104.911L872.75 56.874H873.026L923.667 0H922.016L871.649 55.741L698.257 103.778H697.982L611.01 200.079L437.618 248.115H437.343L350.372 344.416L176.979 392.453H176.704L89.7327 488.753L-10.7248 517.077V517.984L91.1088 489.886ZM69.366 477.877L156.337 381.577L329.73 333.54H330.005L416.976 237.239L590.369 189.202H590.644L677.34 92.4485L850.732 44.4115H851.008L891.19 0H889.539L850.182 43.7318L676.789 91.7687H676.514L589.268 188.296L415.875 236.333H415.6L328.629 332.633L155.236 380.67H154.961L67.9898 476.971L-10.7248 499.177V500.083L69.366 477.877ZM47.6231 754.77L134.594 658.469L307.987 610.432H308.262L395.233 514.131L568.626 466.095H568.901L655.872 369.794L829.265 321.757H829.54L916.511 225.457L1089.9 177.42H1090.18L1177.15 81.119L1350.54 33.0821H1350.82L1379.99 0H1378.34L1349.72 31.7225L1176.32 79.7595H1176.05L1089.08 176.06L915.686 224.097H915.41L828.439 320.397L655.047 368.434H654.771L567.8 464.735L394.408 512.772H394.133L307.161 609.072L133.769 657.109H133.494L46.5222 753.41L-10.7248 769.271V770.178L47.6231 754.77ZM25.8803 742.76L112.852 646.46L286.244 598.423H286.519L373.491 502.122L546.883 454.085H547.158L634.129 357.785L807.522 309.748H807.797L894.493 212.994L1067.89 164.957H1068.16L1155.13 68.6566L1328.52 20.6196H1328.8L1347.24 0.226589H1345.59L1327.97 19.9399L1154.58 67.9768H1154.31L1067.34 164.277L893.943 212.314H893.667L806.696 308.615L633.304 356.652H633.029L546.057 453.179L372.665 501.216H372.39L285.418 597.516L112.026 645.553H111.751L24.7794 741.854L-10.7248 752.05V752.957L25.8803 742.76ZM91.1088 634.451L264.501 586.414H264.776L351.748 490.113L525.14 442.076H525.415L612.387 345.776L785.779 297.739H786.054L873.026 201.438L1046.42 153.401H1046.69L1133.66 57.1005L1307.06 9.06358H1307.33L1314.76 0.906358H1313.11L1306.23 8.6104L1132.84 56.6474H1132.56L1045.59 152.948L872.2 200.985H871.925L784.953 297.285L611.561 345.322H611.286L524.314 441.623L350.922 489.66H350.647L263.675 585.96L90.2831 633.997H90.0079L3.03652 730.071L-10.7248 733.923V734.83L4.13742 730.751L91.1088 634.451ZM221.015 562.168L307.987 465.868L481.379 417.831H481.654L568.626 321.53L742.018 273.493H742.293L829.54 176.74L1002.93 128.703H1003.21L1090.18 32.4023L1206.87 0H1203.3L1089.08 31.7225H1088.8L1002.11 128.023L828.714 176.06H828.439L741.468 272.361L568.075 320.397H567.8L480.829 416.925L307.436 464.962H307.161L220.19 561.262L46.7974 609.299H46.5222L-10.7248 672.971V675.01L47.6231 610.432L221.015 562.168ZM91.1088 778.788L178.08 682.487L351.473 634.451H351.748L438.719 538.15L612.111 490.113H612.387L699.358 393.812L872.75 345.776H873.026L959.997 249.475L1133.39 201.438H1133.66L1220.64 105.138L1394.03 57.1005H1394.3L1444.94 0H1443.29L1392.93 55.741L1219.53 103.778H1219.26L1132.29 200.079L958.896 248.115H958.621L871.649 344.416L698.257 392.453H697.982L611.01 488.753L437.618 536.79H437.343L350.372 633.091L176.979 681.128H176.704L89.7327 777.428L-10.7248 806.205V807.112L91.1088 778.788ZM242.758 574.178L329.73 477.877L503.122 429.84H503.397L590.369 333.54L763.761 285.503H764.036L851.008 189.202L1024.4 141.165H1024.68L1111.65 44.8647L1271.83 0H1268.25L1110.82 43.7318H1110.55L1023.57 140.032L850.182 188.069H849.907L762.935 284.37L589.543 332.407H589.268L502.296 428.707L328.904 476.744H328.629L241.657 573.045L68.2651 621.082H67.9898L-10.7248 709.225V711.264L69.366 622.441L242.758 574.178ZM134.594 513.905L221.566 417.604L394.958 369.567H395.233L482.205 273.267L655.597 225.23H655.872L742.844 128.929L916.236 80.8924H916.511L988.896 0H987.244L915.135 79.7595L741.743 127.796H741.468L654.496 224.324L481.104 272.361H480.829L393.857 368.888L220.465 416.925H220.19L133.218 513.225L-10.7248 553.331V554.238L134.594 513.905ZM69.366 766.779L156.337 670.478L329.73 622.441H330.005L416.976 526.141L590.369 478.104H590.644L677.615 381.803L851.008 333.766H851.283L938.254 237.466L1111.65 189.429H1111.92L1198.89 93.1283L1372.29 45.0913H1372.56L1412.47 0H1410.82L1371.46 43.7318L1198.07 91.7687H1197.79L1110.82 188.069L937.428 236.106H937.153L850.182 332.407L676.789 380.444H676.514L589.268 477.197L415.875 525.234H415.6L328.629 621.535L155.236 669.572H154.961L67.9898 765.872L-10.7248 788.078V788.985L69.366 766.779ZM25.8803 453.859L112.852 357.558L286.244 309.521H286.519L373.491 212.994L546.883 164.957H547.158L634.129 68.6566L807.522 20.6196H807.797L826.237 0.226589H824.586L806.696 19.7133L633.304 67.7503H633.029L546.057 164.051L372.665 212.088H372.39L285.418 308.388L112.026 356.425H111.751L24.7794 453.179L-10.7248 462.922V463.829L25.8803 453.859ZM69.366 188.976L156.337 92.6751L329.73 44.6381H330.005L369.913 0H368.261L328.904 43.7318L155.512 91.7687H155.236L68.2651 188.296L-10.7248 210.048V210.955L69.366 188.976ZM112.852 212.994L199.823 116.694L373.215 68.6566H373.491L435.141 0H433.49L372.39 67.7503L198.997 115.787H198.722L111.476 212.314L-10.7248 246.303V247.209L112.852 212.994ZM134.594 225.003L221.566 128.703L394.958 80.6658H395.233L467.618 0H465.966L393.857 79.7595L220.465 128.023H220.19L133.218 224.324L-10.7248 264.203V265.11L134.594 225.003ZM91.1088 200.985L178.08 104.684L351.473 56.6474H351.748L402.664 0H401.013L350.647 55.741L177.255 103.778H176.979L90.0079 200.305L-10.7248 228.176V229.082L91.1088 200.985ZM156.062 237.013L243.033 140.712L416.426 92.6751H416.701L500.37 0H498.443L415.6 91.9953L242.208 140.032H241.933L154.961 236.333L-10.7248 282.33V283.237L156.062 237.013ZM99.0903 0H95.5124L25.0546 19.4867H24.7794L-10.7248 58.9133V60.9526L25.8803 20.3931L99.0903 0ZM229.547 0H225.969L68.2651 43.7318H67.9898L-10.7248 131.195V133.235L69.366 44.4115L229.547 0ZM164.319 0H160.741L46.7974 31.7225H46.5222L-10.7248 95.1676V97.2069L47.6231 32.6289L164.319 0ZM177.805 249.248L264.776 152.948L438.169 104.911H438.444L525.415 8.6104L555.14 0H551.562L524.314 7.47745H524.039L437.068 103.778L263.675 151.815H263.4L176.429 248.115L3.03652 296.152H2.76129L-11 311.334V313.373L3.8622 296.832L177.805 249.248ZM47.6231 176.74L134.594 80.4393L307.987 32.4023H308.262L337.436 0H335.785L307.161 31.7225L133.769 79.7595H133.494L46.5222 176.287L-10.7248 192.148V193.054L47.6231 176.74ZM242.758 285.276L329.73 188.976L503.122 140.939H503.397L590.369 44.6381L750.55 0H746.972L589.543 43.7318H589.268L502.296 140.032L328.904 188.069H328.629L241.657 284.37L68.2651 332.407H67.9898L-10.7248 420.097V422.136L69.366 333.313L242.758 285.276ZM199.273 261.258L286.519 164.731L459.911 116.694H460.187L547.158 20.3931L620.368 0H616.79L546.057 19.4867H545.782L458.811 115.787L285.418 163.824H285.143L198.447 260.578L25.0546 308.615H24.7794L-10.7248 348.041V350.081L25.8803 309.521L199.273 261.258ZM221.015 273.267L308.262 176.74L481.654 128.703H481.93L568.901 32.4023L685.597 0H682.019L567.8 31.7225H567.525L480.553 128.023L307.161 176.06H306.886L219.915 272.361L46.5222 320.397H46.247L-10.7248 384.069V386.108L47.6231 321.53L221.015 273.267ZM25.8803 164.731L112.852 68.43L286.244 20.3931H286.519L304.959 0H303.033L285.418 19.7133L112.026 67.7503H111.751L24.7794 164.051L-10.7248 174.021V174.927L25.8803 164.731ZM91.1088 56.4208L264.501 8.38381H264.776L272.207 0.226589H270.556L263.675 7.93063L90.2831 55.9676H90.0079L3.03652 152.042L-10.7248 155.894V156.8L4.13742 152.721L91.1088 56.4208ZM156.062 526.141L243.033 429.84L416.426 381.803H416.701L503.672 285.503L677.065 237.466H677.34L764.311 141.165L937.704 93.1283H937.979L1021.65 0H1020L937.153 91.9953L763.761 140.032H763.486L676.514 236.333L503.122 284.37H502.847L415.875 380.67L242.483 428.707H242.208L155.236 525.008L-10.7248 571.232V572.138L156.062 526.141Z" fill="#F5F3FF"/>
</svg>
