<svg width="1440" height="1074" viewBox="0 0 1440 1074" fill="none" xmlns="http://www.w3.org/2000/svg">
<g opacity="0.05">
<mask id="mask0_171_62" style="mask-type:alpha" maskUnits="userSpaceOnUse" x="-273" y="0" width="1986" height="1074">
<rect x="-272.918" width="1985.84" height="1074" fill="url(#paint0_linear_171_62)"/>
</mask>
<g mask="url(#mask0_171_62)">
<path d="M1397.52 520.491L1279.43 648.062L1043.99 711.698H1043.62L925.532 839.269L690.101 902.904H689.727L571.638 1030.48L413.189 1073.4H418.047L573.133 1031.38H573.507L691.596 903.805L927.027 840.169H927.401L1045.49 712.598L1280.92 648.963H1281.29L1399.38 521.391L1634.81 457.756H1635.19L1712.92 373.709V371.007L1632.95 456.855L1397.52 520.491ZM1367.99 504.582L1249.9 632.153L1014.47 695.789H1014.1L896.01 823.36L660.579 886.996H660.205L541.742 1014.87L324.249 1073.7H329.107L542.863 1015.77H543.237L661.326 888.196L896.757 824.561H897.131L1015.22 696.989L1250.65 633.354H1251.02L1369.11 505.783L1604.54 442.147H1604.92L1712.17 326.282V323.581L1603.42 441.247L1367.99 504.582ZM1485.71 185.504L1367.62 313.075L1132.19 376.71H1131.81L1013.73 504.282L778.294 567.917H777.921L659.831 695.489L424.4 759.124H424.027L305.937 886.695L70.5065 950.331H70.1328L-43.0983 1072.8H-40.8561L71.6276 950.931L307.059 887.296H307.432L425.521 759.724L660.952 696.089H661.326L779.415 568.518L1014.85 504.882H1015.22L1133.31 377.311L1368.74 313.675H1369.11L1487.2 186.404L1712.17 125.47V124.269L1485.71 185.504ZM1515.23 201.413L1397.14 328.984L1161.71 392.619H1161.34L1043.25 520.191L807.817 583.826H807.443L689.354 711.397L453.923 775.033H453.549L335.46 902.604L100.029 966.24H99.6551L0.998291 1072.8H3.24048L101.15 967.14L336.581 903.505H336.955L455.044 775.934L690.475 712.298H690.848L808.938 584.727L1044.37 521.091H1044.74L1162.83 393.52L1398.26 329.884H1398.64L1516.73 202.313L1712.17 149.484V148.283L1515.23 201.413ZM1662.47 663.971L1544.38 791.542L1308.95 855.178H1308.57L1190.49 982.749L955.054 1046.38H954.681L929.643 1073.4H931.885L955.802 1047.29L1191.23 983.65H1191.61L1309.7 856.078L1545.13 792.443H1545.5L1663.59 664.871L1711.8 651.964V650.764L1662.47 663.971ZM1691.99 680.18L1573.9 807.751L1338.47 871.387H1338.1L1220.01 998.958L984.577 1062.59H984.203L974.113 1073.4H976.355L985.698 1063.19L1221.13 999.558H1221.5L1339.59 871.987L1575.02 808.352H1575.4L1693.49 680.78L1712.17 675.677V674.477L1691.99 680.18ZM1456.56 552.309L1338.47 679.88L1103.04 743.515H1102.67L984.577 871.087L749.146 934.722H748.772L630.683 1062.29L590.323 1073.1H595.181L632.177 1063.19H632.551L750.64 935.623L986.071 871.987H986.445L1104.53 744.416L1339.97 680.78H1340.34L1458.43 553.209L1693.86 489.574H1694.23L1712.92 469.462V466.761L1692.74 488.673L1456.56 552.309ZM1427.04 536.4L1308.95 663.971L1073.52 727.607H1073.14L954.681 855.478L719.25 919.114H718.876L600.787 1046.68L501.383 1073.7H506.241L602.281 1047.89H602.655L720.744 920.314L956.175 856.679H956.549L1074.64 729.107L1310.07 665.472H1310.44L1428.53 537.901L1663.96 474.265H1664.34L1712.54 422.336V419.634L1662.84 473.364L1427.04 536.4ZM1632.95 265.348L1514.86 392.919L1279.43 456.555H1279.05L1160.96 584.126L925.532 647.762H925.158L807.069 775.333L571.638 838.969H571.264L453.175 966.54L217.744 1030.18H217.371L177.758 1073.1H180.001L218.865 1031.08L454.296 967.44H454.67L572.759 839.869L808.19 776.234H808.564L926.653 648.662L1162.08 585.027H1162.46L1280.55 457.456L1515.98 393.82H1516.35L1634.44 266.249L1712.17 245.237V244.036L1632.95 265.348ZM1691.99 297.166L1573.9 424.737L1338.47 488.373H1338.1L1220.01 615.944L984.577 679.58H984.203L866.114 807.151L630.683 870.786H630.309L512.22 998.358L276.789 1061.99H276.415L266.325 1072.8H268.567L277.91 1062.59L513.341 998.958H513.715L631.804 871.387L867.235 807.751H867.609L985.698 680.18L1221.13 616.544H1221.5L1339.59 488.973L1575.02 425.338H1575.4L1693.49 297.766L1712.17 292.664V291.463L1691.99 297.166ZM1662.47 281.257L1544.38 408.828L1308.95 472.464H1308.57L1190.86 600.335L955.428 663.971H955.054L836.965 791.842L601.534 855.478H601.16L483.071 983.049L247.64 1046.68H247.267L222.229 1073.7H224.471L248.388 1047.59L483.819 983.95H484.192L602.281 856.378L837.713 792.743H838.086L956.175 665.172L1191.61 601.536H1191.98L1310.07 473.965L1545.5 410.329H1545.87L1663.96 282.158L1712.17 269.25V268.05L1662.47 281.257ZM1544.38 217.321L1426.66 345.193L1191.23 408.828H1190.86L1072.77 536.4L836.965 600.335H836.591L718.502 727.907L483.071 791.542H482.698L364.608 919.114L129.177 982.749H128.804L45.0948 1073.4H47.3371L130.298 983.65L365.729 920.014H366.103L484.192 792.443L719.623 728.807H719.997L838.086 601.236L1073.52 537.6H1073.89L1191.98 410.029L1427.41 346.394H1427.78L1545.87 218.822L1711.8 173.797V172.596L1544.38 217.321ZM1456.56 169.595L1338.1 297.166L1102.67 360.802H1102.29L984.203 488.373L748.772 552.008H748.398L630.309 679.58L394.878 743.215H394.504L276.415 871.387L40.9842 935.022H40.6105L-77.4787 1062.59L-117.838 1073.4H-112.98L-75.9839 1063.49H-75.6102L42.479 935.923L277.91 872.287H278.284L396.373 744.716L631.804 681.081H632.177L750.267 553.509L985.698 489.874H986.071L1104.16 362.302L1339.59 298.667H1339.97L1458.05 171.096L1693.49 107.46H1693.86L1712.54 87.3488V84.047L1692.36 105.959L1456.56 169.595ZM1573.9 233.53L1455.81 361.102L1220.38 424.737H1220.01L1102.29 552.309L866.861 615.944H866.487L748.398 743.515L512.967 807.151H512.594L394.504 934.722L159.073 998.358H158.7L89.5652 1073.7H91.8073L160.194 999.859L395.625 936.223H395.999L514.088 808.652L749.519 745.016H749.893L867.982 617.445L1103.41 553.809H1103.79L1221.88 426.238L1457.31 362.603H1457.68L1575.77 234.131L1712.54 197.21V196.01L1573.9 233.53ZM1632.95 648.062L1514.86 775.633L1279.43 839.269H1279.05L1160.96 966.84L925.532 1030.48H925.158L885.546 1073.7H887.788L926.653 1031.68L1162.08 968.041H1162.46L1280.55 840.47L1515.98 776.834H1516.35L1634.44 649.263L1712.17 628.251V627.05L1632.95 648.062ZM1662.47 89.7501L1427.04 153.386H1426.66L1308.57 280.957L1073.14 344.593H1072.77L954.681 472.164L719.25 535.799H718.876L600.787 663.371L365.356 727.006H364.982L246.893 855.478L11.4619 919.114H11.0882L-107.001 1046.68L-206.405 1073.7H-201.547L-105.506 1047.89H-105.133L12.9567 920.314L248.388 856.679H248.761L366.851 729.107L602.281 665.472H602.655L720.744 537.901L956.175 474.265H956.549L1074.64 346.694L1310.07 283.058H1310.44L1428.53 155.487L1663.96 91.8513H1664.34L1712.54 39.9223V36.0201L1662.47 89.7501ZM1603.42 249.439L1485.33 377.011L1249.9 440.646H1249.53L1131.44 568.217L896.01 631.853H895.636L777.547 759.424L542.116 823.06H541.742L423.653 950.631L188.222 1014.27H187.848L133.662 1073.1H135.904L189.343 1015.17L424.774 951.532H425.148L543.237 823.96L778.668 760.325H779.042L897.131 632.754L1132.56 569.118H1132.94L1251.02 441.547L1486.46 377.911H1486.83L1604.92 250.34L1712.17 221.224V220.023L1603.42 249.439ZM1544.38 983.049L1460.67 1073.7H1462.91L1545.87 983.95L1711.8 938.925V937.724L1544.38 983.049ZM1573.9 998.958L1504.77 1073.7H1507.01L1575.4 999.859L1712.17 962.938V961.737L1573.9 998.958ZM1485.71 951.231L1372.48 1073.7H1374.72L1487.2 951.832L1712.17 890.898V889.697L1485.71 951.231ZM1603.42 1014.87L1549.24 1073.7H1551.48L1604.92 1015.77L1712.17 986.651V985.451L1603.42 1014.87ZM1456.56 935.022L1338.47 1062.59L1298.11 1073.4H1302.97L1339.97 1063.49H1340.34L1458.43 935.923L1693.86 872.287H1694.23L1712.92 852.176V849.475L1692.74 871.387L1456.56 935.022ZM1691.99 1062.89L1681.9 1073.7H1684.14L1693.49 1063.49L1712.17 1058.39V1057.19L1691.99 1062.89ZM1662.47 1046.98L1637.43 1074H1639.67L1663.59 1047.89L1711.8 1034.98V1033.78L1662.47 1046.98ZM1603.42 632.153L1485.33 759.724L1249.9 823.36H1249.53L1131.44 950.931L896.01 1014.57H895.636L841.45 1073.4H843.692L897.131 1015.47L1132.56 951.832H1132.94L1251.02 824.261L1486.46 760.625H1486.83L1604.92 633.054L1712.17 603.937V602.737L1603.42 632.153ZM1632.95 1031.08L1593.33 1074H1595.58L1634.44 1031.98L1712.17 1010.96V1009.76L1632.95 1031.08ZM1427.04 919.114L1308.95 1046.68L1209.54 1073.7H1214.4L1310.44 1047.89H1310.82L1428.91 920.314L1664.34 856.679H1664.71L1712.92 804.75V802.048L1662.47 855.478L1427.04 919.114ZM1515.23 584.427L1397.14 711.998L1161.71 775.633H1161.34L1043.25 903.205L807.817 966.84H807.443L708.786 1073.4H711.028L808.938 967.741L1044.37 904.105H1044.74L1162.83 776.534L1398.26 712.898H1398.64L1516.73 585.327L1712.17 532.497V531.297L1515.23 584.427ZM1573.9 616.244L1455.81 743.816L1220.38 807.451H1220.01L1102.29 935.323L866.861 998.958H866.487L797.353 1073.7H799.595L867.982 999.859L1103.41 936.223H1103.79L1221.88 808.652L1457.31 745.016H1457.68L1575.77 617.445L1712.54 580.524V579.324L1573.9 616.244ZM1544.38 600.335L1426.29 727.907L1190.86 791.542H1190.49L1072.4 919.114L836.965 982.749H836.591L752.883 1073.4H755.125L838.086 983.65L1073.52 920.014H1073.89L1191.98 792.443L1427.41 728.807H1427.78L1545.87 601.236L1711.8 556.211V555.01L1544.38 600.335ZM1485.71 568.518L1367.62 696.089L1132.19 759.724H1131.81L1013.73 887.296L778.294 950.931H777.921L664.689 1073.4H666.932L779.415 951.532L1014.85 887.896H1015.22L1133.31 760.325L1368.74 696.689H1369.11L1487.2 569.118L1712.17 508.184V506.983L1485.71 568.518ZM1397.52 903.205L1279.43 1030.78L1120.98 1073.7H1125.84L1280.92 1031.68H1281.29L1399.38 904.105L1634.81 840.47H1635.19L1712.92 756.423V753.721L1632.95 839.569L1397.52 903.205ZM1367.99 887.296L1249.9 1014.87L1032.41 1073.7H1037.27L1251.02 1015.77H1251.4L1369.49 888.196L1604.92 824.561H1605.29L1712.54 708.696V705.994L1603.8 823.66L1367.99 887.296ZM1515.23 967.14L1416.57 1073.7H1418.82L1516.73 968.041L1712.17 915.211V914.011L1515.23 967.14ZM-134.655 457.456L100.776 393.82H101.15L219.239 266.249L454.67 202.613H455.044L573.133 75.0419L808.564 11.4064H808.938L819.028 0.600335H816.785L807.443 10.806L572.012 74.4416H571.638L453.549 202.013L218.118 265.648H217.744L99.6551 393.22L-135.776 456.855H-136.15L-254.239 584.427L-272.924 589.529V590.73L-252.744 585.327L-134.655 457.456ZM-193.699 617.145L-75.6102 489.574L159.821 425.938H160.194L278.284 298.367L513.715 234.731H514.088L632.177 107.16L867.609 43.5243H867.982L907.594 0H905.352L866.487 42.0235L631.056 105.659H630.683L512.594 233.23L277.163 296.866H276.789L158.7 424.437L-76.7313 488.073H-77.105L-195.194 615.644L-272.924 636.656V637.856L-193.699 617.145ZM12.2093 728.807L130.298 601.236L365.729 537.6H366.103L484.192 410.029L719.623 346.394H719.997L838.086 218.822L1073.52 155.187H1073.89L1192.35 27.0151L1291.76 0H1286.9L1190.86 25.8144H1190.49L1072.4 153.386L836.965 217.021H836.591L718.876 345.193L483.445 408.828H483.071L364.982 536.4L129.551 600.035H129.177L11.0882 727.907L-224.343 791.542H-224.716L-272.924 843.771V846.473L-223.222 792.443L12.2093 728.807ZM-16.9393 712.898L101.15 585.327L336.581 521.691H336.955L455.044 394.12L690.475 330.485H690.848L808.938 202.913L1044.37 139.278H1044.74L1162.83 11.7065L1203.19 0H1198.33L1161.34 9.90553H1160.96L1042.87 137.477L807.443 201.112H807.069L688.98 328.684L453.549 392.319H453.175L335.086 519.89L99.6551 583.526H99.2813L-18.8078 711.097L-254.239 774.733H-254.612L-273.297 794.844V797.546L-253.118 775.633L-16.9393 712.898ZM-212.384 0H-216.869L-253.865 9.90553L-254.239 10.2057L-272.924 30.3169V33.0184L-252.744 11.1062L-212.384 0ZM-105.133 664.871L12.583 537.3L248.014 473.665H248.388L366.477 346.093L601.908 282.458H602.281L720.371 154.887L955.802 91.251H956.175L1040.26 0H1038.02L955.054 89.7501L719.623 153.386H719.25L601.16 280.957L365.729 344.593H365.356L247.267 472.164L11.8356 535.799H11.4619L-106.627 663.371L-272.924 708.996V710.197L-105.133 664.871ZM-134.655 648.963L-16.5656 521.391L218.865 457.756H219.239L337.328 330.184L572.759 266.549H573.133L691.222 138.978L926.653 75.3421H927.027L995.788 0H993.545L925.158 73.8413L689.727 137.477H689.354L571.264 265.048L335.833 328.684H335.46L217.371 456.255L-18.0604 519.89H-18.4341L-136.523 647.462L-272.924 684.983V686.183L-134.655 648.963ZM-164.177 633.054L-46.0879 505.482L189.343 441.847H189.717L307.806 314.276L543.237 250.64H543.611L661.326 122.468L896.757 58.8329H897.131L951.691 0H949.449L896.01 57.9324L660.579 121.568H660.205L541.742 249.439L306.311 313.075H305.937L187.848 440.646L-47.5827 504.282H-47.9564L-166.046 631.853L-272.924 661.269V662.47L-164.177 633.054ZM-193.699 999.859L-75.6102 872.287L159.821 808.652H160.194L278.284 681.081L513.715 617.445H514.088L632.177 489.874L867.609 426.238H867.982L986.071 298.667L1221.5 235.031H1221.88L1339.97 107.46L1575.4 43.8245H1575.77L1615.38 0H1613.14L1574.28 42.0235L1338.84 105.659H1338.47L1220.38 233.23L984.95 296.866H984.577L866.487 424.437L631.056 488.073H630.683L512.594 615.644L277.163 679.28H276.789L158.7 806.851L-76.7313 870.486H-77.105L-195.194 998.058L-272.924 1019.07V1020.27L-193.699 999.859ZM-223.222 983.95L-105.133 856.378L130.298 792.743H130.672L248.761 665.172L484.192 601.536H484.566L602.655 473.965L838.086 410.329H838.46L956.175 282.158L1191.61 218.522H1191.98L1310.07 90.9508L1545.5 27.3153H1545.87L1570.91 0.300168H1568.67L1544.75 26.4148L1309.32 90.0503H1308.95L1190.86 217.622L955.428 281.257H955.054L836.965 408.828L601.534 472.464H601.16L483.071 600.335L247.64 663.971H247.267L129.177 791.542L-106.254 855.178H-106.627L-224.716 982.749L-272.924 996.257V997.457L-223.222 983.95ZM-134.655 840.47L100.776 776.834H101.15L219.239 649.263L454.67 585.627H455.044L573.133 458.056L808.564 394.42H808.938L927.027 266.849L1162.46 203.214H1162.83L1280.92 75.6423L1516.35 12.0067H1516.73L1526.82 1.20067H1524.57L1515.23 11.4064L1279.8 75.0419H1279.43L1161.34 202.613L925.906 266.249H925.532L807.443 393.82L572.012 457.456H571.638L453.549 585.027L218.118 648.662H217.744L99.6551 776.234L-135.776 839.869H-136.15L-254.239 967.14L-272.924 972.243V973.444L-252.744 968.041L-134.655 840.47ZM41.7316 744.716L159.821 617.145L395.252 553.509H395.625L513.715 425.938L749.146 362.302H749.519L867.982 234.131L1103.41 170.495H1103.79L1221.88 42.924L1380.32 0H1375.47L1220.38 42.0235H1220.01L1102.29 169.595L866.861 233.23H866.487L748.398 360.802L512.967 424.437H512.594L394.504 552.309L159.073 615.944H158.7L40.6105 743.515L-194.82 807.151H-195.194L-272.924 891.498V894.2L-193.699 808.652L41.7316 744.716ZM-134.655 1031.68L-16.5656 904.105L218.865 840.47H219.239L337.328 712.898L572.759 649.263H573.133L691.222 521.691L926.653 458.056H927.027L1045.12 330.485L1280.55 266.849H1280.92L1399.01 139.278L1634.44 75.6423H1634.81L1703.58 0H1701.33L1632.95 73.8413L1397.52 137.477H1397.14L1279.05 265.048L1043.62 328.684H1043.25L925.158 456.255L689.727 519.89H689.354L571.264 647.462L335.833 711.097H335.46L217.371 838.669L-18.0604 902.304H-18.4341L-136.523 1029.88L-272.924 1068V1069.2L-134.655 1031.68ZM71.2538 760.625L189.343 633.054L424.774 569.418H425.148L543.237 441.847L778.668 378.211H779.042L897.131 250.64L1132.56 187.004H1132.94L1251.02 59.4332L1468.52 0H1463.66L1249.9 57.9324H1249.53L1131.44 185.504L896.01 249.139H895.636L777.547 376.71L542.116 440.346H541.742L423.653 567.917L188.222 631.553H187.848L69.7591 759.124L-165.672 822.76H-166.046L-272.924 939.525V942.226L-164.177 824.561L71.2538 760.625ZM-75.6102 680.78L42.479 553.209L277.91 489.574H278.284L396.373 362.002L631.804 298.367H632.177L750.267 170.795L985.698 107.16H986.071L1084.35 0H1082.11L984.203 105.659L748.772 169.295H748.398L630.309 297.166L394.878 360.802H394.504L276.415 488.673L40.9842 552.309H40.6105L-77.4787 679.88L-272.924 733.01V734.21L-75.6102 680.78ZM-164.177 1015.77L-46.0879 888.196L189.343 824.561H189.717L307.806 696.989L543.237 633.354H543.611L661.7 505.783L897.131 442.147H897.505L1015.59 314.576L1251.02 250.94H1251.4L1369.49 123.369L1604.92 59.7334H1605.29L1659.48 0H1657.24L1603.8 57.9324L1368.37 121.568H1367.99L1249.9 249.139L1014.47 312.775H1014.1L896.01 440.346L660.579 503.982H660.205L541.742 632.153L306.311 695.789H305.937L187.848 823.36L-47.5827 886.996H-47.9564L-166.046 1014.57L-272.924 1043.98V1045.18L-164.177 1015.77ZM-223.222 601.236L-105.133 473.665L130.298 410.029H130.672L248.761 282.158L484.192 218.522H484.566L602.655 90.9508L838.086 27.3153H838.46L863.498 0.300168H861.256L836.965 26.1146L601.534 89.7501H601.16L483.071 217.321L247.64 280.957H247.267L129.177 408.528L-106.254 472.164H-106.627L-224.716 600.335L-272.924 613.243V614.443L-223.222 601.236ZM-164.177 250.34L-46.0879 122.769L189.343 59.133H189.717L243.903 0H241.661L188.222 57.9324L-47.209 121.568H-47.5827L-165.672 249.439L-272.924 278.255V279.456L-164.177 250.34ZM-105.133 282.158L12.9567 154.586L248.388 90.9508H248.761L332.47 0H330.228L247.267 89.7501L11.8356 153.386H11.4619L-107.001 281.257L-272.924 326.282V327.483L-105.133 282.158ZM-75.6102 298.067L42.479 170.495L277.91 106.86H278.284L376.567 0H374.325L276.415 105.659L40.9842 169.595H40.6105L-77.4787 297.166L-272.924 349.996V351.196L-75.6102 298.067ZM-134.655 266.249L-16.5656 138.677L218.865 75.0419H219.239L288.374 0H286.131L217.744 73.8413L-17.6867 137.477H-18.0604L-136.15 265.348L-272.924 302.269V303.47L-134.655 266.249ZM-46.4616 313.975L71.6276 186.404L307.059 122.769H307.432L421.037 0H418.421L305.937 121.868L70.5065 185.504H70.1328L-47.9564 313.075L-272.924 374.009V375.21L-46.4616 313.975ZM-123.818 0H-128.676L-224.343 25.8144H-224.716L-272.924 78.0436V80.7451L-223.222 27.0151L-123.818 0ZM53.3163 0H48.4582L-165.672 57.9324H-166.046L-272.924 173.797V176.499L-164.177 58.8329L53.3163 0ZM-35.2506 0H-40.1087L-194.82 42.0235H-195.194L-272.924 126.07V128.772L-193.699 43.2241L-35.2506 0ZM-16.9393 330.184L101.15 202.613L336.581 138.978H336.955L455.044 11.4064L495.403 0H490.545L453.549 9.90553H453.175L335.086 137.477L99.6551 201.112H99.2813L-18.8078 328.684L-254.239 392.319H-254.612L-273.297 412.43V415.132L-253.118 393.22L-16.9393 330.184ZM-193.699 234.131L-75.6102 106.56L159.821 42.924H160.194L199.807 0H197.564L158.7 42.0235L-76.7313 105.659H-77.105L-195.194 233.53L-272.924 254.542V255.743L-193.699 234.131ZM71.2538 377.911L189.343 250.34L424.774 186.704H425.148L543.237 59.133L760.73 0H755.872L542.116 57.9324H541.742L423.653 185.504L188.222 249.139H187.848L69.7591 376.71L-165.672 440.346H-166.046L-272.924 556.511V559.212L-164.177 441.547L71.2538 377.911ZM12.2093 346.093L130.672 218.222L366.103 154.586H366.477L484.566 27.0151L583.97 0H579.112L483.071 25.8144H482.698L364.608 153.386L129.177 217.021H128.804L11.0882 345.193L-224.343 408.828H-224.716L-272.924 461.058V463.759L-223.222 410.029L12.2093 346.093ZM41.7316 362.002L160.194 234.131L395.625 170.495H395.999L514.088 42.924L672.537 0H667.679L512.594 42.0235H512.22L394.131 169.595L158.7 233.23H158.326L40.2368 360.802L-195.194 424.437H-195.568L-272.924 508.784V511.486L-193.699 425.938L41.7316 362.002ZM-223.222 218.222L-105.133 90.6507L130.298 27.0151H130.672L155.71 0H153.094L129.177 26.1146L-106.254 89.7501H-106.627L-224.716 217.321L-272.924 230.529V231.729L-223.222 218.222ZM-134.655 74.7418L100.776 11.1062H101.15L111.24 0.300168H108.998L99.6551 10.5059L-135.776 74.1414H-136.15L-254.239 201.413L-272.924 206.515V207.716L-252.744 202.313L-134.655 74.7418ZM-46.4616 696.989L71.6276 569.418L307.059 505.783H307.432L425.521 378.211L660.952 314.576H661.326L779.415 187.004L1014.85 123.369H1015.22L1128.82 0H1126.58L1014.1 121.868L778.668 185.504H778.294L660.205 313.075L424.774 376.71H424.4L306.311 504.282L70.8802 567.917H70.5065L-47.5827 695.489L-272.924 756.723V757.923L-46.4616 696.989Z" fill="#F5F3FF" fill-opacity="0.6"/>
</g>
</g>
<defs>
<linearGradient id="paint0_linear_171_62" x1="720" y1="0" x2="720" y2="1074" gradientUnits="userSpaceOnUse">
<stop stop-color="#FDFEFF" stop-opacity="0.69"/>
<stop offset="1" stop-color="#FDFEFF" stop-opacity="0.33"/>
</linearGradient>
</defs>
</svg>
