<svg width="1440" height="797" viewBox="0 0 1440 797" fill="none" xmlns="http://www.w3.org/2000/svg">
<path opacity="0.1" d="M1211.29 383.672L1125.66 478.935L954.94 526.454H954.669L869.039 621.717L698.319 669.236H698.048L612.418 764.499L497.521 796.552H501.043L613.501 765.171H613.772L699.403 669.908L870.122 622.389H870.393L956.024 527.126L1126.74 479.607H1127.01L1212.65 384.344L1383.36 336.825H1383.64L1440 274.064V272.046L1382.01 336.153L1211.29 383.672ZM1189.88 371.792L1104.25 467.055L933.533 514.574H933.262L847.631 609.837L676.911 657.356H676.641L590.739 752.843L433.027 796.776H436.549L591.552 753.515H591.823L677.453 658.253L848.173 610.733H848.444L934.075 515.471L1104.79 467.951H1105.06L1190.7 372.689L1361.41 325.169H1361.69L1439.46 238.648V236.631L1360.6 324.497L1189.88 371.792ZM1275.24 133.523L1189.61 228.786L1018.89 276.305H1018.62L932.991 371.568L762.271 419.087H762L676.37 514.35L505.65 561.869H505.379L419.748 657.132L249.029 704.651H248.758L166.65 796.103H168.276L249.842 705.099L420.561 657.58H420.832L506.463 562.318L677.182 514.798H677.453L763.084 419.535L933.804 372.016H934.075L1019.71 276.754L1190.42 229.234H1190.7L1276.33 134.196L1439.46 88.6937V87.7971L1275.24 133.523ZM1296.65 145.403L1211.02 240.666L1040.3 288.185H1040.03L954.398 383.448L783.679 430.967H783.408L697.777 526.23L527.058 573.749H526.787L441.156 669.012L270.437 716.531H270.166L198.626 796.103H200.252L271.25 717.204L441.969 669.684H442.24L527.871 574.422L698.59 526.902H698.861L784.492 431.639L955.211 384.12H955.482L1041.11 288.857L1211.83 241.338H1212.1L1297.73 146.075L1439.46 106.625V105.729L1296.65 145.403ZM1403.42 490.814L1317.79 586.077L1147.07 633.596H1146.8L1061.17 728.859L890.446 776.378H890.175L872.019 796.552H873.645L890.988 777.051L1061.71 729.532H1061.98L1147.61 634.269L1318.33 586.75H1318.6L1404.23 491.487L1439.19 481.849V480.952L1403.42 490.814ZM1424.82 502.918L1339.19 598.181L1168.47 645.7H1168.2L1082.57 740.963L911.854 788.482H911.583L904.266 796.552H905.892L912.667 788.931L1083.39 741.411H1083.66L1169.29 646.149L1340.01 598.629H1340.28L1425.91 503.367L1439.46 499.556V498.66L1424.82 502.918ZM1254.11 407.432L1168.47 502.694L997.756 550.214H997.485L911.854 645.476L741.135 692.996H740.864L655.233 788.258L625.967 796.328H629.489L656.317 788.931H656.588L742.218 693.668L912.938 646.149H913.209L998.839 550.886L1169.56 503.367H1169.83L1255.46 408.104L1426.18 360.585H1426.45L1440 345.567V343.549L1425.37 359.912L1254.11 407.432ZM1232.7 395.552L1147.07 490.814L976.348 538.334H976.077L890.175 633.821L719.456 681.34H719.185L633.554 776.603L561.473 796.776H564.995L634.638 777.499H634.909L720.54 682.237L891.259 634.717H891.53L977.161 539.454L1147.88 491.935H1148.15L1233.78 396.672L1404.5 349.153H1404.77L1439.73 310.376V308.358L1403.69 348.481L1232.7 395.552ZM1382.01 193.146L1296.38 288.409L1125.66 335.928H1125.39L1039.76 431.191L869.039 478.71H868.768L783.137 573.973L612.418 621.492H612.147L526.516 716.755L355.796 764.275H355.525L326.801 796.328H328.427L356.609 764.947L527.329 717.428H527.6L613.23 622.165L783.95 574.646H784.221L869.852 479.383L1040.57 431.864H1040.84L1126.47 336.601L1297.19 289.082H1297.46L1383.09 193.819L1439.46 178.129V177.232L1382.01 193.146ZM1424.82 216.906L1339.19 312.169L1168.47 359.688H1168.2L1082.57 454.951L911.854 502.47H911.583L825.952 597.733L655.233 645.252H654.962L569.331 740.515L398.612 788.034H398.341L391.024 796.103H392.65L399.425 788.482L570.144 740.963H570.415L656.046 645.7L826.765 598.181H827.036L912.667 502.918L1083.39 455.399H1083.66L1169.29 360.136L1340.01 312.617H1340.28L1425.91 217.354L1439.46 213.544V212.647L1424.82 216.906ZM1403.42 205.026L1317.79 300.289L1147.07 347.808H1146.8L1061.44 443.295L890.717 490.814H890.446L804.816 586.301L634.096 633.821H633.825L548.195 729.083L377.475 776.603H377.204L359.048 796.776H360.674L378.017 777.275L548.737 729.756H549.008L634.638 634.493L805.358 586.974H805.628L891.259 491.711L1061.98 444.192H1062.25L1147.88 348.929L1318.6 301.41H1318.87L1404.5 205.699L1439.46 196.06V195.164L1403.42 205.026ZM1317.79 157.283L1232.43 252.77L1061.71 300.289H1061.44L975.806 395.552L804.816 443.295H804.545L718.914 538.558L548.195 586.077H547.924L462.293 681.34L291.573 728.859H291.302L230.602 796.552H232.228L292.386 729.532L463.106 682.012H463.377L549.008 586.75L719.727 539.23H719.998L805.628 443.968L976.348 396.448H976.619L1062.25 301.186L1232.97 253.666H1233.24L1318.87 158.404L1439.19 124.781V123.885L1317.79 157.283ZM1254.11 121.643L1168.2 216.906L997.485 264.425H997.214L911.583 359.688L740.864 407.207H740.593L654.962 502.47L484.242 549.989H483.972L398.341 645.7L227.621 693.22H227.35L141.72 788.482L112.454 796.552H115.976L142.804 789.155H143.075L228.705 693.892L399.425 646.373H399.696L485.326 551.11L656.046 503.591H656.317L741.947 408.328L912.667 360.809H912.938L998.568 265.546L1169.29 218.027H1169.56L1255.19 122.764L1425.91 75.2448H1426.18L1439.73 60.2269V57.7613L1425.1 74.1241L1254.11 121.643ZM1339.19 169.387L1253.56 264.65L1082.84 312.169H1082.57L997.214 407.432L826.494 454.951H826.223L740.593 550.214L569.873 597.733H569.602L483.972 692.996L313.252 740.515H312.981L262.849 796.776H264.475L314.065 741.636L484.784 694.116H485.055L570.686 598.854L741.406 551.334H741.677L827.307 456.072L998.026 408.552H998.297L1083.93 313.29L1254.65 265.77H1254.92L1340.55 169.835L1439.73 142.265V141.368L1339.19 169.387ZM1382.01 478.935L1296.38 574.197L1125.66 621.717H1125.39L1039.76 716.979L869.039 764.499H868.768L840.043 796.776H841.669L869.852 765.395L1040.57 717.876H1040.84L1126.47 622.613L1297.19 575.094H1297.46L1383.09 479.831L1439.46 464.141V463.244L1382.01 478.935ZM1403.42 62.0201L1232.7 109.539H1232.43L1146.8 204.802L976.077 252.321H975.806L890.175 347.584L719.456 395.103H719.185L633.554 490.366L462.835 537.885H462.564L376.933 633.821L206.214 681.34H205.943L120.312 776.603L48.2306 796.776H51.7534L121.396 777.499H121.667L207.298 682.237L378.017 634.717H378.288L463.919 539.454L634.638 491.935H634.909L720.54 396.672L891.259 349.153H891.53L977.161 253.89L1147.88 206.371H1148.15L1233.78 111.108L1404.5 63.5892H1404.77L1439.73 24.8116V21.8977L1403.42 62.0201ZM1360.6 181.267L1274.97 276.529L1104.25 324.049H1103.98L1018.35 419.311L847.631 466.831H847.36L761.729 562.093L591.01 609.613H590.739L505.108 704.875L334.389 752.395H334.118L294.825 796.328H296.451L335.202 753.067L505.921 705.548H506.192L591.823 610.285L762.542 562.766H762.813L848.444 467.503L1019.16 419.984H1019.43L1105.06 324.721L1275.78 277.202H1276.06L1361.69 181.939L1439.46 160.197V159.3L1360.6 181.267ZM1317.79 729.083L1257.09 796.776H1258.71L1318.87 729.756L1439.19 696.134V695.237L1317.79 729.083ZM1339.19 740.963L1289.06 796.776H1290.69L1340.28 741.636L1439.46 714.065V713.169L1339.19 740.963ZM1275.24 705.324L1193.13 796.776H1194.76L1276.33 705.772L1439.46 660.27V659.373L1275.24 705.324ZM1360.6 752.843L1321.31 796.776H1322.94L1361.69 753.515L1439.46 731.773V730.876L1360.6 752.843ZM1254.11 693.22L1168.47 788.482L1139.21 796.552H1142.73L1169.56 789.155H1169.83L1255.46 693.892L1426.18 646.373H1426.45L1440 631.355V629.338L1425.37 645.7L1254.11 693.22ZM1424.82 788.707L1417.51 796.776H1419.13L1425.91 789.155L1439.46 785.344V784.448L1424.82 788.707ZM1403.42 776.827L1385.26 797H1386.89L1404.23 777.499L1439.19 767.861V766.964L1403.42 776.827ZM1360.6 467.055L1274.97 562.318L1104.25 609.837H1103.98L1018.35 705.099L847.631 752.619H847.36L808.067 796.552H809.693L848.444 753.291L1019.16 705.772H1019.43L1105.06 610.509L1275.78 562.99H1276.06L1361.69 467.727L1439.46 445.985V445.088L1360.6 467.055ZM1382.01 764.947L1353.29 797H1354.91L1383.09 765.619L1439.46 749.929V749.032L1382.01 764.947ZM1232.7 681.34L1147.07 776.603L1074.99 796.776H1078.51L1148.15 777.499H1148.42L1234.05 682.237L1404.77 634.717H1405.04L1440 595.94V593.922L1403.42 633.821L1232.7 681.34ZM1296.65 431.415L1211.02 526.678L1040.3 574.197H1040.03L954.398 669.46L783.679 716.979H783.408L711.868 796.552H713.494L784.492 717.652L955.211 670.133H955.482L1041.11 574.87L1211.83 527.351H1212.1L1297.73 432.088L1439.46 392.638V391.741L1296.65 431.415ZM1339.19 455.175L1253.56 550.438L1082.84 597.957H1082.57L997.214 693.444L826.494 740.963H826.223L776.091 796.776H777.717L827.307 741.636L998.026 694.116H998.297L1083.93 598.854L1254.65 551.334H1254.92L1340.55 456.072L1439.73 428.501V427.605L1339.19 455.175ZM1317.79 443.295L1232.16 538.558L1061.44 586.077H1061.17L975.535 681.34L804.816 728.859H804.545L743.844 796.552H745.47L805.628 729.532L976.348 682.012H976.619L1062.25 586.75L1232.97 539.23H1233.24L1318.87 443.968L1439.19 410.345V409.449L1317.79 443.295ZM1275.24 419.535L1189.61 514.798L1018.89 562.318H1018.62L932.991 657.58L762.271 705.099H762L679.892 796.552H681.518L763.084 705.548L933.804 658.029H934.075L1019.71 562.766L1190.42 515.247H1190.7L1276.33 419.984L1439.46 374.482V373.585L1275.24 419.535ZM1211.29 669.46L1125.66 764.723L1010.76 796.776H1014.29L1126.74 765.395H1127.01L1212.65 670.133L1383.36 622.613H1383.64L1440 559.852V557.835L1382.01 621.941L1211.29 669.46ZM1189.88 657.58L1104.25 752.843L946.54 796.776H950.063L1105.06 753.515H1105.34L1190.97 658.253L1361.69 610.733H1361.96L1439.73 524.212V522.195L1360.87 610.061L1189.88 657.58ZM1296.65 717.204L1225.11 796.776H1226.74L1297.73 717.876L1439.46 678.426V677.529L1296.65 717.204ZM100.259 336.601L270.979 289.082H271.25L356.88 193.819L527.6 146.3H527.871L613.501 51.0369L784.221 3.51761H784.492L791.808 -4.5517H790.182L783.408 3.06931L612.689 50.5886H612.418L526.787 145.851L356.067 193.371H355.796L270.166 288.633L99.4464 336.153H99.1754L13.5447 431.415L-0.00440747 435.226V436.122L14.6287 432.088L100.259 336.601ZM57.444 455.847L143.075 360.585L313.794 313.065H314.065L399.696 217.803L570.415 170.283H570.686L656.317 75.0207L827.036 27.5014H827.307L856.031 -5H854.405L826.223 26.3807L655.504 73.8999H655.233L569.602 169.163L398.883 216.682H398.612L312.981 311.945L142.262 359.464H141.991L56.3601 454.727L-0.00440747 470.417V471.314L57.444 455.847ZM206.756 539.23L292.386 443.968L463.106 396.448H463.377L549.008 301.186L719.727 253.666H719.998L805.628 158.404L976.348 110.884H976.619L1062.52 15.1733L1134.6 -5H1131.08L1061.44 14.2767H1061.17L975.535 109.539L804.816 157.059H804.545L719.185 252.77L548.465 300.289H548.195L462.564 395.552L291.844 443.071H291.573L205.943 538.558L35.2234 586.077H34.9524L-0.00440747 625.079V627.096L36.0364 586.75L206.756 539.23ZM185.619 527.351L271.25 432.088L441.969 384.569H442.24L527.871 289.306L698.59 241.786H698.861L784.492 146.524L955.211 99.0045H955.482L1041.11 3.74176L1070.38 -5H1066.86L1040.03 2.39687H1039.76L954.127 97.6596L783.408 145.179H783.137L697.506 240.442L526.787 287.961H526.516L440.885 383.224L270.166 430.743H269.895L184.264 526.006L13.5447 573.525H13.2738L-0.275391 588.543V590.56L14.3577 574.197L185.619 527.351ZM43.8949 -5H40.6431L13.8157 2.39687L13.5447 2.62102L-0.00440747 17.6389V19.6562L14.6287 3.29346L43.8949 -5ZM121.667 491.487L207.027 396.224L377.746 348.705H378.017L463.648 253.442L634.367 205.923H634.638L720.269 110.66L890.988 63.1409H891.259L952.23 -5H950.604L890.446 62.0201L719.727 109.539H719.456L633.825 204.802L463.106 252.321H462.835L377.204 347.584L206.485 395.103H206.214L120.583 490.366L-0.00440747 524.437V525.333L121.667 491.487ZM100.259 479.607L185.89 384.344L356.609 336.825H356.88L442.511 241.562L613.23 194.043H613.501L699.132 98.7803L869.852 51.261H870.122L919.983 -5H918.357L868.768 50.1403L698.048 97.6596H697.777L612.147 192.922L441.427 240.442H441.156L355.525 335.704L184.806 383.224H184.535L98.9044 478.486L-0.00440747 506.505V507.401L100.259 479.607ZM78.8517 467.727L164.482 372.465L335.202 324.945H335.473L421.103 229.683L591.823 182.163H592.094L677.453 86.4522L848.173 38.9329H848.444L888.007 -5H886.382L847.631 38.2605L676.911 85.7798H676.641L590.739 181.267L420.02 228.786H419.748L334.118 324.049L163.398 371.568H163.127L77.4968 466.831L-0.00440747 488.797V489.694L78.8517 467.727ZM57.444 741.636L143.075 646.373L313.794 598.854H314.065L399.696 503.591L570.415 456.072H570.686L656.317 360.809L827.036 313.29H827.307L912.938 218.027L1083.66 170.508H1083.93L1169.56 75.2448L1340.28 27.7255H1340.55L1369.27 -5H1367.65L1339.47 26.3807L1168.75 73.8999H1168.47L1082.84 169.163L912.125 216.682H911.854L826.223 311.945L655.504 359.464H655.233L569.602 454.727L398.883 502.246H398.612L312.981 597.509L142.262 645.028H141.991L56.3601 740.291L-0.00440747 755.981V756.878L57.444 741.636ZM36.0364 729.756L121.667 634.493L292.386 586.974H292.657L378.288 491.711L549.008 444.192H549.278L634.909 348.929L805.628 301.41H805.899L891.259 205.699L1061.98 158.179H1062.25L1147.88 62.9167L1318.6 15.3974H1318.87L1337.03 -4.77585H1335.4L1318.06 14.725L1147.34 62.2443H1147.07L1061.44 157.507L890.717 205.026H890.446L804.816 300.289L634.096 347.808H633.825L548.195 443.295L377.475 490.814H377.204L291.573 586.077L120.854 633.596H120.583L34.9524 728.859L-0.00440747 738.946V739.842L36.0364 729.756ZM100.259 622.613L270.979 575.094H271.25L356.88 479.831L527.6 432.312H527.871L613.501 337.049L784.221 289.53H784.492L870.122 194.267L1040.84 146.748H1041.11L1126.74 51.4852L1297.46 3.9659H1297.73L1305.05 -4.10341H1303.42L1296.65 3.51761L1125.93 51.0369H1125.66L1040.03 146.3L869.31 193.819H869.039L783.408 289.082L612.689 336.601H612.418L526.787 431.864L356.067 479.383H355.796L270.166 574.646L99.4464 622.165H99.1754L13.5447 717.204L-0.00440747 721.014V721.911L14.6287 717.876L100.259 622.613ZM228.163 551.11L313.794 455.847L484.513 408.328H484.784L570.415 313.065L741.135 265.546H741.406L827.307 169.835L998.026 122.316H998.297L1083.93 27.0531L1198.83 -5H1195.3L1082.84 26.3807H1082.57L997.214 121.643L826.494 169.163H826.223L740.593 264.425L569.873 311.945H569.602L483.972 407.432L313.252 454.951H312.981L227.35 550.214L56.6311 597.733H56.3601L-0.00440747 660.718V662.736L57.444 598.854L228.163 551.11ZM100.259 765.395L185.89 670.133L356.609 622.613H356.88L442.511 527.351L613.23 479.831H613.501L699.132 384.569L869.852 337.049H870.122L955.753 241.786L1126.47 194.267H1126.74L1212.37 99.0045L1383.09 51.4852H1383.36L1433.23 -5H1431.6L1382.01 50.1403L1211.29 97.6596H1211.02L1125.39 192.922L954.669 240.442H954.398L868.768 335.704L698.048 383.224H697.777L612.147 478.486L441.427 526.006H441.156L355.525 621.268L184.806 668.788H184.535L98.9044 764.05L-0.00440747 792.517V793.414L100.259 765.395ZM249.571 562.99L335.202 467.727L505.921 420.208H506.192L591.823 324.945L762.542 277.426H762.813L848.444 182.163L1019.16 134.644H1019.43L1105.06 39.3812L1262.78 -5H1259.25L1104.25 38.2605H1103.98L1018.35 133.523L847.631 181.042H847.36L761.729 276.305L591.01 323.824H590.739L505.108 419.087L334.389 466.607H334.118L248.487 561.869L77.7678 609.389H77.4968L-0.00440747 696.582V698.599L78.8517 610.733L249.571 562.99ZM143.075 503.367L228.705 408.104L399.425 360.585H399.696L485.326 265.322L656.046 217.803H656.317L741.947 122.54L912.667 75.0207H912.938L984.206 -5H982.581L911.583 73.8999L740.864 121.419H740.593L654.962 216.906L484.242 264.425H483.972L398.341 359.912L227.621 407.432H227.35L141.72 502.694L-0.00440747 542.368V543.265L143.075 503.367ZM78.8517 753.515L164.482 658.253L335.202 610.733H335.473L421.103 515.471L591.823 467.951H592.094L677.724 372.689L848.444 325.169H848.715L934.345 229.907L1105.06 182.387H1105.34L1190.97 87.1246L1361.69 39.6054H1361.96L1401.25 -5H1399.62L1360.87 38.2605L1190.15 85.7798H1189.88L1104.25 181.042L933.533 228.562H933.262L847.631 323.824L676.911 371.344H676.641L590.739 467.055L420.02 514.574H419.748L334.118 609.837L163.398 657.356H163.127L77.4968 752.619L-0.00440747 774.585V775.482L78.8517 753.515ZM36.0364 443.968L121.667 348.705L292.386 301.186H292.657L378.288 205.699L549.008 158.179H549.278L634.909 62.9167L805.628 15.3974H805.899L824.055 -4.77585H822.429L804.816 14.5008L634.096 62.0201H633.825L548.195 157.283L377.475 204.802H377.204L291.573 300.065L120.854 347.584H120.583L34.9524 443.295L-0.00440747 452.934V453.83L36.0364 443.968ZM78.8517 181.939L164.482 86.6764L335.202 39.1571H335.473L374.765 -5H373.139L334.389 38.2605L163.669 85.7798H163.398L77.7678 181.267L-0.00440747 202.785V203.681L78.8517 181.939ZM121.667 205.699L207.298 110.436L378.017 62.9167H378.288L438.988 -5H437.362L377.204 62.0201L206.485 109.539H206.214L120.312 205.026L-0.00440747 238.648V239.545L121.667 205.699ZM143.075 217.579L228.705 122.316L399.425 74.7965H399.696L470.964 -5H469.338L398.341 73.8999L227.621 121.643H227.35L141.72 216.906L-0.00440747 256.356V257.253L143.075 217.579ZM100.259 193.819L185.89 98.5562L356.609 51.0369H356.88L407.012 -5H405.386L355.796 50.1403L185.077 97.6596H184.806L99.1754 193.146L-0.00440747 220.717V221.613L100.259 193.819ZM164.211 229.458L249.842 134.196L420.561 86.6764H420.832L503.211 -5H501.314L419.748 86.0039L249.029 133.523H248.758L163.127 228.786L-0.00440747 274.288V275.184L164.211 229.458ZM108.118 -5H104.595L35.2234 14.2767H34.9524L-0.00440747 53.2784V55.2957L36.0364 15.1733L108.118 -5ZM236.564 -5H233.041L77.7678 38.2605H77.4968L-0.00440747 124.781V126.799L78.8517 38.9329L236.564 -5ZM172.341 -5H168.818L56.6311 26.3807H56.3601L-0.00440747 89.142V91.1593L57.444 27.2773L172.341 -5ZM185.619 241.562L271.25 146.3L441.969 98.7803H442.24L527.871 3.51761L557.137 -5H553.614L526.787 2.39687H526.516L440.885 97.6596L270.166 145.179H269.895L184.264 240.442L13.5447 287.961H13.2738L-0.275391 302.979V304.996L14.3577 288.633L185.619 241.562ZM57.444 169.835L143.075 74.5724L313.794 27.0531H314.065L342.789 -5H341.163L312.981 26.3807L142.262 73.8999H141.991L56.3601 169.387L-0.00440747 185.077V185.974L57.444 169.835ZM249.571 277.202L335.202 181.939L505.921 134.42H506.192L591.823 39.1571L749.535 -5H746.012L591.01 38.2605H590.739L505.108 133.523L334.389 181.042H334.118L248.487 276.305L77.7678 323.824H77.4968L-0.00440747 410.57V412.587L78.8517 324.721L249.571 277.202ZM206.756 253.442L292.657 157.955L463.377 110.436H463.648L549.278 15.1733L621.36 -5H617.837L548.195 14.2767H547.924L462.293 109.539L291.573 157.059H291.302L205.943 252.77L35.2234 300.289H34.9524L-0.00440747 339.291V341.308L36.0364 301.186L206.756 253.442ZM228.163 265.322L314.065 169.835L484.784 122.316H485.055L570.686 27.0531L685.583 -5H682.06L569.602 26.3807H569.331L483.701 121.643L312.981 169.163H312.71L227.079 264.425L56.3601 311.945H56.0891L-0.00440747 374.93V376.947L57.444 313.065L228.163 265.322ZM36.0364 157.955L121.667 62.6926L292.386 15.1733H292.657L310.813 -5H308.916L291.573 14.5008L120.854 62.0201H120.583L34.9524 157.283L-0.00440747 167.145V168.042L36.0364 157.955ZM100.259 50.8127L270.979 3.29346H271.25L278.566 -4.77585H276.94L270.166 2.84517L99.4464 50.3645H99.1754L13.5447 145.403L-0.00440747 149.214V150.11L14.6287 146.075L100.259 50.8127ZM164.211 515.471L249.842 420.208L420.561 372.689H420.832L506.463 277.426L677.182 229.907H677.453L763.084 134.644L933.804 87.1246H934.075L1016.45 -5H1014.83L933.262 86.0039L762.542 133.523H762.271L676.641 228.786L505.921 276.305H505.65L420.02 371.568L249.3 419.087H249.029L163.398 514.35L-0.00440747 560.076V560.973L164.211 515.471Z" fill="#F5F3FF"/>
</svg>
