<svg width="22" height="23" viewBox="0 0 22 23" fill="none" xmlns="http://www.w3.org/2000/svg">
<path d="M6.82252 8.13246C6.06648 7.37917 5.04267 6.95609 3.97527 6.95609C2.90787 6.95609 1.88407 7.37917 1.12802 8.13246L1.03482 8.22567H1.03465C0.105668 9.25876 -0.226466 10.6972 0.155638 12.033C0.537742 13.3688 1.58041 14.4139 2.91523 14.7994C4.25006 15.1847 5.68928 14.8562 6.72461 13.9296L6.81798 13.8363C7.5747 13.0804 8.0004 12.0549 8.00119 10.9853C8.002 9.91573 7.57811 8.88951 6.82252 8.13247L6.82252 8.13246ZM7.97679 6.9782L7.97695 6.97803C8.73333 7.73425 9.75926 8.15895 10.8289 8.15895C11.8984 8.15895 12.9243 7.73425 13.6807 6.97803L13.7739 6.88483H13.7741C14.5301 6.12828 14.955 5.10252 14.955 4.03287C14.955 2.96322 14.5301 1.93746 13.7741 1.18092C13.0175 0.424704 11.9918 0 10.9221 0C9.85246 0 8.8267 0.424704 8.07015 1.18092L7.97695 1.27412C7.22073 2.03067 6.79603 3.0566 6.79603 4.12608C6.79603 5.19577 7.22073 6.22166 7.97695 6.97803L7.97679 6.9782ZM13.8674 15.177C13.111 14.4208 12.0851 13.9961 11.0155 13.9961C9.94594 13.9961 8.92005 14.4208 8.16367 15.177L8.07047 15.2702H8.07031C7.31426 16.0268 6.88939 17.0525 6.88939 18.1222C6.88939 19.1918 7.31426 20.2176 8.07031 20.9741C8.82685 21.7304 9.85261 22.1551 10.9223 22.1551C11.9919 22.1551 13.0177 21.7304 13.7742 20.9741L13.8674 20.8809C14.6236 20.1244 15.0483 19.0985 15.0483 18.029C15.0483 16.9593 14.6236 15.9334 13.8674 15.177H13.8674ZM20.8191 8.22537C20.0625 7.46932 19.0368 7.04445 17.9671 7.04445C16.8975 7.04445 15.8717 7.46932 15.1152 8.22537L15.022 8.31857V8.31874C14.2658 9.07511 13.841 10.101 13.841 11.1705C13.841 12.2402 14.2658 13.2661 15.022 14.0225C15.7783 14.7787 16.8043 15.2034 17.8739 15.2034C18.9434 15.2034 19.9693 14.7787 20.7259 14.0225L20.8191 13.9293C21.5753 13.1727 22 12.147 22 11.0773C22 10.0077 21.5753 8.98191 20.8191 8.22536V8.22537Z" fill="white"/>
</svg>
