<?xml version="1.0" standalone="no"?>
<!DOCTYPE svg PUBLIC "-//W3C//DTD SVG 20010904//EN"
 "http://www.w3.org/TR/2001/REC-SVG-20010904/DTD/svg10.dtd">
<svg version="1.0" xmlns="http://www.w3.org/2000/svg"
 width="638.000000pt" height="638.000000pt" viewBox="0 0 638.000000 638.000000"
 preserveAspectRatio="xMidYMid meet">
<metadata>
Created by potrace 1.14, written by Peter Selinger 2001-2017
</metadata>
<g transform="translate(0.000000,638.000000) scale(0.100000,-0.100000)"
fill="#000000" stroke="none">
<path d="M3226 5564 c-3 -8 -10 -12 -16 -9 -6 3 -10 -4 -10 -18 0 -14 -7 -28
-16 -31 -8 -3 -12 -10 -9 -16 3 -5 1 -10 -4 -10 -14 0 -97 -82 -93 -92 1 -5
-3 -8 -8 -8 -5 0 -28 -18 -50 -40 -22 -22 -40 -44 -40 -50 0 -5 -6 -9 -12 -7
-7 1 -14 -9 -16 -22 -4 -26 -24 -51 -41 -51 -6 0 -11 -7 -11 -16 0 -8 -4 -12
-10 -9 -5 3 -10 -1 -10 -9 0 -9 -7 -16 -17 -16 -9 0 -14 -3 -10 -6 7 -7 -29
-44 -43 -44 -5 0 -10 -7 -10 -16 0 -8 -4 -12 -10 -9 -6 3 -10 -4 -10 -17 0
-15 -15 -36 -39 -58 -22 -18 -38 -37 -35 -42 3 -4 1 -8 -5 -8 -13 0 -97 -82
-94 -92 2 -4 -4 -8 -12 -8 -9 0 -15 -9 -15 -21 0 -22 -22 -49 -39 -49 -6 0
-11 -7 -11 -15 0 -8 -7 -15 -16 -15 -8 0 -12 -4 -9 -10 3 -5 -1 -10 -9 -10 -9
0 -16 -6 -16 -14 0 -8 -5 -16 -11 -18 -5 -2 -11 -11 -12 -19 -2 -9 -24 -37
-50 -61 -26 -25 -47 -51 -47 -57 0 -7 -4 -10 -8 -7 -10 6 -42 -29 -42 -45 0
-5 -4 -8 -8 -5 -9 6 -42 -29 -42 -44 0 -6 -6 -9 -12 -7 -7 1 -12 -4 -11 -10 2
-7 -4 -13 -12 -13 -9 0 -15 -9 -15 -25 0 -16 -6 -25 -15 -25 -8 0 -15 -3 -15
-8 0 -13 -57 -71 -64 -65 -3 4 -6 -1 -6 -10 0 -9 -6 -17 -14 -17 -9 0 -13 -9
-11 -25 1 -16 -3 -25 -11 -25 -8 0 -14 -7 -14 -15 0 -8 -6 -14 -12 -13 -7 2
-12 -3 -10 -9 1 -7 -3 -13 -8 -13 -6 0 -35 -25 -65 -55 l-54 -55 144 -144 c79
-79 146 -141 149 -138 3 3 6 0 6 -6 0 -20 160 -172 180 -172 11 0 20 5 20 11
0 14 25 39 39 39 6 0 11 5 11 11 0 12 50 59 63 59 4 0 7 7 7 15 0 8 7 15 15
15 8 0 14 6 13 13 -2 6 3 11 10 9 6 -1 12 8 12 19 0 13 21 42 50 70 28 27 50
56 50 64 0 19 23 45 39 45 6 0 11 4 11 9 0 12 78 91 90 91 5 0 10 11 10 25 0
14 5 25 10 25 6 0 10 7 10 15 0 8 3 14 8 12 4 -1 41 32 81 73 41 41 79 74 83
72 5 -1 8 3 7 10 -3 29 2 49 11 43 6 -3 10 1 10 9 0 9 7 16 15 16 8 0 14 6 12
13 -1 6 4 11 11 10 6 -2 12 2 12 7 0 14 37 50 44 43 3 -4 6 5 6 19 0 14 7 29
16 32 8 3 12 10 9 16 -3 5 -1 10 5 10 6 0 26 16 44 35 31 32 66 49 51 25 -3
-5 1 -10 9 -10 9 0 16 -7 16 -15 0 -8 7 -15 15 -15 8 0 14 -6 12 -12 -1 -7 4
-12 11 -11 6 2 12 -4 12 -12 0 -8 7 -15 16 -15 8 0 12 -4 9 -10 -3 -5 0 -10 8
-10 7 0 20 -11 27 -25 7 -14 19 -25 27 -25 7 0 13 -7 13 -16 0 -8 5 -12 10 -9
6 3 10 -1 10 -9 0 -9 7 -16 15 -16 8 0 15 -7 15 -16 0 -8 5 -12 10 -9 6 3 10
-1 10 -9 0 -9 7 -16 15 -16 8 0 15 -7 15 -16 0 -8 5 -12 10 -9 6 3 10 -1 10
-9 0 -9 5 -16 11 -16 14 0 39 -25 39 -39 0 -6 7 -11 15 -11 8 0 15 -7 15 -16
0 -8 5 -12 10 -9 6 3 10 2 10 -4 0 -12 58 -71 71 -71 5 0 8 -6 6 -12 -1 -7 4
-12 11 -11 6 2 12 -4 12 -12 0 -8 5 -15 11 -15 13 0 39 -25 39 -38 0 -5 11
-15 25 -22 14 -7 25 -17 25 -22 0 -12 26 -38 38 -38 5 0 15 -11 22 -25 7 -14
19 -25 27 -25 7 0 13 -5 13 -11 0 -13 25 -39 38 -39 5 0 15 -11 22 -25 7 -14
19 -25 27 -25 7 0 13 -5 13 -10 0 -14 57 -69 64 -62 3 3 6 -2 6 -11 0 -9 6
-17 13 -17 8 0 20 -11 27 -25 7 -14 20 -25 27 -25 8 0 12 -4 8 -9 -3 -5 -1
-12 5 -16 6 -3 13 1 16 9 3 9 12 16 19 16 8 0 12 10 10 25 -1 14 2 25 6 25 13
0 48 37 42 44 -4 3 -1 6 5 6 7 0 21 9 31 19 11 11 17 22 14 25 -4 3 -1 6 6 6
19 0 37 22 45 53 3 15 11 25 16 22 6 -3 10 1 10 9 0 9 7 16 16 16 8 0 12 5 9
10 -3 6 1 10 9 10 9 0 16 4 16 10 0 15 33 50 42 44 4 -3 8 -1 8 5 0 5 27 36
60 69 65 66 73 91 35 112 -14 7 -25 17 -25 22 0 13 -26 38 -39 38 -6 0 -11 7
-11 16 0 8 -4 12 -10 9 -5 -3 -10 1 -10 9 0 9 -7 16 -16 16 -8 0 -12 5 -9 10
3 6 -1 10 -9 10 -9 0 -16 4 -16 9 0 5 -14 23 -31 40 -17 17 -35 31 -40 31 -5
0 -9 7 -9 16 0 8 -4 12 -10 9 -5 -3 -10 -1 -10 4 0 15 -37 51 -44 44 -3 -4 -6
1 -6 10 0 10 -7 17 -16 17 -8 0 -12 5 -9 10 3 6 -1 10 -9 10 -9 0 -16 7 -16
15 0 8 -7 15 -17 15 -9 0 -14 3 -10 6 7 7 -29 44 -44 44 -5 0 -7 5 -4 10 3 6
-1 10 -9 10 -9 0 -16 5 -16 11 0 6 -6 17 -14 25 -8 8 -19 14 -25 14 -6 0 -11
5 -11 11 0 6 -6 17 -14 25 -8 8 -19 14 -25 14 -6 0 -11 5 -11 10 0 14 -57 69
-64 62 -3 -3 -6 2 -6 11 0 10 -7 17 -15 17 -8 0 -15 7 -15 16 0 8 -4 12 -10 9
-5 -3 -10 -2 -10 4 0 14 -56 71 -70 71 -5 0 -10 5 -10 10 0 14 -57 69 -64 62
-3 -3 -6 0 -6 6 0 15 -56 72 -71 72 -7 0 -10 3 -6 6 7 7 -29 44 -44 44 -5 0
-7 5 -4 10 3 6 -1 10 -9 10 -9 0 -16 5 -16 10 0 14 -37 50 -44 43 -3 -4 -6 1
-6 10 0 10 -4 17 -10 17 -5 0 -10 7 -10 15 0 9 -6 12 -15 9 -8 -4 -15 -2 -15
3 0 13 -77 93 -89 93 -6 0 -11 3 -11 8 0 13 -57 71 -64 65 -3 -4 -6 1 -6 10 0
10 -7 17 -15 17 -8 0 -15 5 -15 10 0 14 -57 69 -64 62 -3 -3 -6 2 -6 11 0 10
-7 17 -17 17 -9 0 -14 3 -10 6 5 5 -27 44 -37 44 -2 0 -7 -7 -10 -16z"/>
<path d="M5 4135 c-6 -19 -2 -45 7 -45 12 0 68 -58 68 -70 0 -6 4 -9 8 -7 10
3 62 -49 62 -63 0 -6 4 -9 8 -6 9 6 42 -29 42 -44 0 -6 5 -10 10 -10 14 0 66
-52 62 -62 -1 -4 2 -8 8 -8 13 0 96 -82 92 -92 -1 -4 5 -8 13 -8 8 0 15 -7 15
-15 0 -8 3 -14 8 -13 9 4 112 -99 112 -112 0 -6 5 -10 11 -10 6 0 25 -16 43
-35 19 -19 38 -35 44 -35 6 0 9 -7 6 -15 -4 -8 -1 -15 5 -15 15 0 71 -57 63
-64 -3 -3 0 -6 6 -6 15 0 102 -87 94 -94 -3 -3 2 -6 11 -6 10 0 17 -7 17 -16
0 -10 6 -14 15 -10 8 3 15 1 15 -4 0 -16 33 -49 42 -44 5 3 7 1 6 -4 -2 -5 9
-21 24 -35 15 -14 24 -28 21 -31 -4 -3 1 -6 10 -6 10 0 17 -7 17 -17 0 -9 3
-14 6 -10 7 7 44 -29 44 -43 0 -5 3 -9 8 -8 9 4 162 -149 162 -162 0 -6 6 -10
13 -10 8 0 20 -11 27 -25 7 -14 17 -25 22 -25 11 0 88 -78 88 -90 0 -6 3 -9 8
-8 9 4 92 -81 92 -94 0 -5 4 -7 8 -4 9 6 42 -29 42 -44 0 -15 8 -12 30 10 11
11 20 29 20 40 0 11 7 20 16 20 8 0 12 5 9 10 -3 6 1 10 9 10 9 0 16 5 16 10
0 12 77 90 89 90 11 0 41 62 35 72 -3 4 0 8 5 8 14 0 91 77 91 91 0 6 7 9 15
5 8 -3 15 0 15 6 0 6 16 25 35 44 19 18 35 37 35 43 0 6 7 11 15 11 16 0 19 9
9 34 -3 9 -10 13 -15 10 -5 -3 -9 0 -9 6 0 6 -49 60 -110 120 -60 59 -110 114
-110 120 0 6 -4 9 -9 6 -4 -3 -19 8 -31 24 -12 16 -27 27 -33 23 -6 -4 -8 0
-4 10 3 10 2 17 -4 17 -13 0 -289 277 -289 290 0 5 -3 9 -7 8 -10 -4 -169 155
-165 165 1 4 -5 7 -13 7 -8 0 -15 7 -15 15 0 8 -4 14 -8 12 -4 -1 -52 43 -106
97 l-98 99 -450 1 c-293 1 -452 -3 -453 -9z"/>
<path d="M5445 4095 c-27 -27 -53 -49 -57 -47 -5 1 -8 -4 -8 -12 0 -8 -7 -16
-15 -19 -8 -4 -12 -15 -10 -27 2 -13 -1 -20 -11 -20 -8 0 -14 -7 -14 -15 0 -8
-6 -14 -12 -12 -7 1 -12 -4 -10 -10 1 -7 -5 -13 -13 -13 -8 0 -15 -7 -15 -17
0 -9 -3 -13 -7 -10 -3 4 -16 -7 -28 -23 -12 -16 -25 -27 -28 -23 -4 3 -8 1 -8
-5 -1 -7 -3 -16 -4 -22 -1 -5 -3 -15 -4 -21 0 -5 -5 -7 -11 -4 -5 3 -10 1 -10
-4 0 -16 -32 -51 -42 -45 -4 3 -8 0 -8 -5 0 -16 -32 -51 -42 -45 -4 3 -8 0 -8
-5 0 -6 -21 -32 -47 -58 -26 -25 -48 -53 -50 -62 -1 -9 -7 -17 -12 -19 -6 -2
-11 -10 -11 -18 0 -8 -5 -14 -11 -14 -6 0 -17 -6 -25 -14 -8 -8 -14 -19 -14
-25 0 -6 -7 -11 -16 -11 -8 0 -12 -4 -9 -10 3 -5 -1 -10 -9 -10 -9 0 -16 -7
-16 -15 0 -8 -7 -15 -16 -15 -8 0 -12 -4 -9 -10 3 -5 -1 -10 -9 -10 -9 0 -16
-9 -16 -20 0 -11 -22 -42 -50 -69 -31 -30 -50 -58 -50 -72 0 -12 -3 -20 -6
-16 -7 7 -44 -29 -44 -45 0 -6 -3 -9 -6 -5 -7 7 -44 -29 -44 -44 0 -5 -4 -7
-10 -4 -5 3 -10 -1 -10 -9 0 -9 -7 -16 -15 -16 -9 0 -15 -9 -15 -25 0 -14 -4
-25 -10 -25 -5 0 -10 -7 -10 -15 0 -9 -6 -12 -15 -9 -8 4 -15 1 -15 -5 0 -6
-34 -45 -76 -86 -42 -41 -73 -79 -69 -85 3 -5 -1 -13 -9 -16 -9 -3 -16 -12
-16 -18 0 -7 -11 -19 -25 -26 -14 -7 -25 -19 -25 -27 0 -7 -7 -13 -16 -13 -8
0 -12 -4 -9 -10 4 -6 -7 -10 -25 -10 -18 0 -29 4 -25 10 3 6 -1 10 -9 10 -9 0
-16 4 -16 10 0 11 -80 90 -92 90 -4 0 -8 5 -8 10 0 12 -79 90 -91 90 -5 0 -9
7 -9 16 0 8 -4 12 -10 9 -5 -3 -10 1 -10 9 0 9 -7 16 -15 16 -8 0 -14 6 -13
13 2 6 -3 11 -9 9 -7 -1 -13 5 -13 13 0 8 -7 15 -15 15 -8 0 -15 5 -15 11 0
14 -25 39 -39 39 -6 0 -10 6 -9 13 2 6 -3 11 -9 9 -7 -1 -13 2 -13 8 0 14 -37
50 -44 43 -3 -4 -6 1 -6 10 0 10 -7 17 -15 17 -8 0 -14 6 -13 13 2 6 -3 11 -9
9 -7 -1 -13 3 -13 9 0 14 -25 39 -39 39 -6 0 -11 5 -11 10 0 13 -57 70 -70 70
-6 0 -9 6 -8 13 2 6 -3 11 -9 9 -7 -1 -13 4 -13 11 0 8 -11 20 -25 27 -13 7
-22 16 -20 20 5 8 -31 40 -45 40 -6 0 -10 5 -10 10 0 5 -18 28 -40 50 -22 22
-45 40 -50 40 -5 0 -10 7 -10 16 0 8 -4 12 -10 9 -5 -3 -10 -1 -10 4 0 17 -37
50 -52 47 -23 -3 -148 -135 -148 -156 0 -11 -5 -20 -11 -20 -11 0 -39 -25 -39
-35 0 -10 -28 -35 -39 -35 -6 0 -11 -7 -11 -16 0 -8 -4 -12 -10 -9 -5 3 -10
-1 -10 -9 0 -9 -7 -16 -15 -16 -8 0 -15 -7 -15 -16 0 -8 -4 -12 -10 -9 -5 3
-10 -1 -10 -9 0 -9 -7 -16 -15 -16 -8 0 -15 -7 -15 -16 0 -8 -4 -12 -10 -9 -5
3 -10 -3 -10 -15 0 -11 -17 -37 -37 -57 -21 -20 -37 -40 -35 -45 1 -4 -2 -8
-8 -8 -18 0 -70 -59 -70 -80 0 -11 -7 -20 -15 -20 -8 0 -15 -7 -15 -16 0 -8
-5 -12 -10 -9 -5 3 -10 1 -10 -4 0 -6 -9 -20 -20 -31 -11 -11 -20 -17 -20 -13
0 11 -32 -36 -34 -50 -2 -16 -83 -97 -96 -97 -6 0 -9 -3 -8 -7 4 -10 -105
-119 -114 -115 -5 1 -8 -5 -8 -13 0 -8 -4 -15 -10 -15 -5 0 -10 -11 -10 -25 0
-14 -5 -25 -11 -25 -12 0 -39 -25 -39 -35 0 -4 -11 -16 -25 -27 -14 -11 -25
-28 -25 -39 0 -10 -7 -19 -15 -19 -8 0 -14 -3 -13 -7 4 -11 -178 -193 -191
-193 -7 0 -9 -11 -7 -25 3 -17 0 -25 -10 -25 -8 0 -14 -7 -14 -15 0 -8 -7 -15
-16 -15 -8 0 -12 -4 -9 -10 3 -5 0 -10 -8 -10 -7 0 -20 -11 -27 -25 -7 -14
-19 -25 -27 -25 -18 0 -17 -19 2 -26 8 -4 12 -10 9 -15 -3 -5 0 -9 5 -9 15 0
51 -37 43 -44 -3 -3 2 -6 11 -6 9 0 17 -7 17 -15 0 -8 6 -14 13 -12 6 1 11 -4
10 -10 -2 -7 4 -13 12 -13 8 0 15 -7 15 -15 0 -8 6 -14 13 -12 6 1 11 -4 10
-10 -2 -7 4 -13 12 -13 8 0 15 -7 15 -16 0 -8 5 -12 10 -9 6 3 10 -1 10 -9 0
-9 5 -16 11 -16 14 0 39 -25 39 -39 0 -6 6 -11 13 -11 8 0 20 -11 27 -25 7
-14 17 -25 22 -25 13 0 38 -26 38 -39 0 -6 4 -11 9 -11 12 0 91 -78 91 -90 0
-16 14 -12 33 10 9 11 17 30 17 42 0 12 3 19 6 15 7 -7 44 29 44 43 0 6 5 10
11 10 14 0 39 25 39 39 0 6 6 10 13 8 6 -1 11 4 10 11 -2 6 4 12 12 12 8 0 15
7 15 15 0 8 7 15 16 15 10 0 14 6 10 15 -3 10 28 48 90 110 52 52 98 95 103
95 4 0 6 11 3 25 -2 15 0 25 8 25 14 0 40 25 40 39 0 6 5 11 11 11 15 0 39 26
39 44 0 17 104 126 120 126 5 0 9 6 8 13 -2 6 3 11 10 9 6 -1 12 4 12 12 0 8
7 16 15 19 8 4 12 15 10 27 -2 13 1 20 11 20 8 0 14 8 14 17 0 9 3 14 6 11 7
-8 122 105 117 115 -2 4 3 7 11 7 9 0 16 6 16 13 0 25 37 11 78 -30 23 -23 42
-46 42 -52 0 -6 4 -10 8 -9 10 4 168 -154 164 -164 -1 -4 3 -8 9 -8 14 0 89
-76 89 -91 0 -6 7 -9 15 -5 8 3 15 1 15 -4 0 -13 82 -96 92 -92 4 1 8 -3 8 -8
0 -6 16 -26 35 -44 19 -19 35 -39 35 -46 0 -6 4 -9 9 -6 4 3 19 -8 31 -24 12
-16 27 -27 31 -24 5 3 9 0 9 -6 0 -6 27 -37 60 -70 33 -33 60 -64 60 -70 0 -6
4 -9 8 -6 9 6 42 -29 42 -44 0 -6 3 -9 8 -8 4 2 31 -21 59 -49 29 -29 54 -53
56 -53 14 0 58 50 53 59 -4 6 0 14 8 17 9 3 16 13 16 22 0 8 3 13 6 9 7 -7 44
29 44 44 0 5 5 7 10 4 6 -3 10 1 10 9 0 9 7 16 15 16 8 0 15 7 15 15 0 8 6 14
13 13 6 -2 11 3 9 10 -1 6 5 12 13 12 8 0 15 7 15 16 0 8 5 12 10 9 6 -3 10 3
10 14 0 12 35 55 87 107 48 48 88 94 90 103 1 9 7 17 12 19 6 2 11 10 11 18 0
8 7 14 16 14 8 0 12 4 9 10 -3 5 1 10 9 10 9 0 16 7 16 15 0 8 7 15 16 15 8 0
12 4 9 10 -3 6 1 10 9 10 9 0 16 7 16 15 0 8 7 15 16 15 8 0 12 5 9 10 -3 6
-1 10 4 10 18 0 46 34 46 55 1 11 6 19 13 17 7 -1 12 2 12 8 0 13 82 96 92 93
4 -2 8 2 8 8 0 6 18 28 40 50 24 24 37 45 34 54 -4 8 -1 15 6 15 14 0 40 25
40 39 0 6 5 11 11 11 14 0 39 25 39 39 0 6 7 11 16 11 8 0 12 5 9 10 -3 6 1
10 9 10 9 0 16 7 16 15 0 8 7 15 15 15 8 0 15 7 15 16 0 8 5 12 10 9 6 -3 10
3 10 15 0 22 50 80 69 80 6 0 10 4 8 8 -1 4 19 29 46 54 26 25 47 52 47 58 0
7 7 10 15 6 11 -4 15 1 15 17 1 25 22 57 39 57 6 0 11 7 11 16 0 8 5 12 10 9
6 -3 10 1 10 9 0 9 7 16 15 16 8 0 15 7 15 16 0 8 5 12 10 9 6 -3 10 1 10 9 0
9 7 16 16 16 8 0 12 5 9 10 -3 6 1 10 9 10 9 0 16 11 18 28 2 15 8 26 16 25 6
-2 12 1 12 6 0 13 127 141 140 141 6 0 8 5 5 10 -3 6 1 13 9 16 9 3 16 17 16
30 0 13 5 24 10 24 14 0 69 57 62 64 -3 3 2 6 11 6 9 0 17 7 17 15 0 8 7 15
16 15 8 0 12 5 9 10 -3 6 -1 10 4 10 15 0 51 37 44 44 -4 3 1 6 10 6 10 0 17
8 17 20 0 20 128 157 143 152 4 -1 7 3 7 8 0 6 20 30 43 53 24 23 52 59 61 80
10 20 23 37 28 37 24 0 54 55 36 66 -6 4 -205 8 -442 8 l-431 1 -50 -50z"/>
<path d="M1760 1415 c0 -15 6 -25 14 -25 10 0 13 -11 12 -35 -1 -22 3 -35 11
-35 7 0 13 -11 13 -24 0 -13 7 -27 16 -30 9 -3 14 -13 11 -20 -3 -8 1 -20 9
-26 8 -7 14 -28 14 -46 0 -21 5 -33 12 -31 7 1 13 -9 14 -23 1 -13 7 -26 13
-28 6 -2 11 -15 11 -28 0 -15 6 -24 16 -24 10 0 14 -7 12 -22 -2 -14 2 -22 10
-20 8 1 12 -11 12 -37 0 -26 5 -41 16 -45 8 -3 13 -10 10 -15 -4 -5 1 -16 9
-24 8 -9 15 -25 15 -36 0 -12 6 -21 15 -21 8 0 14 -5 13 -12 -2 -8 14 -12 47
-12 41 -1 50 2 47 15 -1 9 5 22 13 29 8 7 15 19 15 27 0 8 7 21 16 30 8 9 13
21 10 28 -3 8 2 16 10 19 8 3 14 14 14 25 0 11 5 21 10 23 6 2 12 13 13 25 0
13 7 25 14 27 7 3 13 14 13 25 0 11 5 21 10 23 6 2 12 13 13 26 0 12 7 22 14
22 7 0 13 7 13 15 0 8 5 15 10 15 6 0 10 -11 10 -24 0 -13 7 -27 16 -30 8 -3
13 -10 10 -15 -4 -5 1 -16 9 -24 8 -9 15 -25 15 -36 0 -13 6 -21 16 -21 10 0
14 -6 10 -15 -3 -8 1 -21 9 -29 8 -8 15 -31 15 -50 0 -24 4 -35 13 -33 6 1 12
-5 12 -14 0 -9 5 -23 12 -30 6 -8 13 -23 15 -34 3 -17 11 -20 61 -20 54 0 61
4 58 33 -1 6 5 12 14 12 11 0 15 11 15 40 0 29 4 40 15 40 8 0 12 6 9 14 -3 7
2 20 10 29 9 9 16 25 16 36 0 12 6 21 15 21 8 0 12 6 9 14 -3 7 2 20 10 29 9
9 16 27 16 42 0 15 7 33 15 41 8 8 12 21 9 29 -4 9 0 15 10 15 10 0 16 9 16
24 0 13 6 26 13 29 6 2 12 19 12 38 0 22 5 33 13 32 7 -2 12 9 12 28 0 16 4
28 9 24 5 -3 11 7 13 22 2 17 8 27 16 25 8 -1 12 3 10 10 -3 9 -34 14 -101 16
-82 2 -97 0 -97 -13 0 -8 -6 -14 -12 -12 -8 1 -12 -7 -11 -20 2 -15 -3 -23
-12 -23 -11 0 -15 -11 -15 -40 0 -28 -4 -40 -14 -40 -9 0 -13 -9 -11 -25 1
-16 -3 -25 -11 -25 -8 0 -14 -11 -14 -25 0 -14 -6 -25 -14 -25 -9 0 -13 -11
-11 -35 1 -23 -3 -35 -12 -35 -7 0 -13 11 -13 25 0 15 -6 25 -14 25 -9 0 -13
9 -11 25 1 16 -3 25 -11 25 -8 0 -14 11 -14 26 0 14 -4 23 -10 19 -10 -6 -14
7 -11 33 1 7 -5 15 -14 18 -8 3 -15 17 -15 31 0 13 -4 21 -10 18 -5 -3 -10 3
-10 14 0 42 -34 61 -110 61 -51 0 -69 -3 -68 -12 2 -7 -3 -12 -9 -10 -7 1 -13
-7 -13 -19 0 -11 -7 -27 -16 -36 -8 -9 -13 -22 -10 -29 3 -8 -1 -14 -9 -14
-11 0 -15 -11 -15 -39 0 -26 -5 -41 -16 -45 -8 -3 -13 -10 -10 -15 4 -5 -1
-16 -9 -24 -8 -9 -15 -24 -15 -35 0 -14 -7 -19 -25 -19 -19 0 -25 5 -25 22 0
13 -6 25 -13 28 -8 3 -13 19 -12 42 2 27 -1 35 -11 31 -10 -4 -14 4 -14 25 0
18 -4 28 -10 24 -5 -3 -11 1 -11 9 -3 36 -5 41 -18 38 -7 -1 -12 6 -11 15 7
64 9 63 -100 63 l-100 0 0 -25z"/>
<path d="M2930 1423 c-1 -25 -1 -606 -1 -619 1 -8 158 -12 191 -5 3 0 5 53 5
117 -1 94 2 117 15 123 18 10 42 3 34 -10 -3 -5 8 -9 24 -9 25 0 29 -3 27 -25
-2 -16 2 -25 11 -25 8 0 14 -10 14 -25 0 -14 6 -25 14 -25 8 0 12 -9 11 -25
-2 -16 2 -25 11 -25 8 0 14 -9 14 -20 0 -43 29 -55 128 -55 67 0 92 3 92 12 0
7 -6 13 -14 13 -9 0 -12 8 -8 25 3 18 0 25 -12 25 -12 0 -16 10 -16 40 0 27
-4 40 -13 40 -8 0 -13 10 -13 23 1 12 -4 21 -11 19 -8 -1 -13 8 -13 23 0 14
-4 25 -10 25 -5 0 -10 7 -10 15 0 8 -7 15 -15 15 -22 0 -19 7 24 48 l39 37 1
93 c1 75 -2 92 -14 92 -8 0 -15 7 -15 16 0 8 -4 12 -10 9 -5 -3 -10 1 -10 9 0
9 -7 16 -15 16 -8 0 -15 7 -15 16 0 8 -4 12 -10 9 -5 -3 -10 1 -10 9 0 14 -26
16 -210 16 -193 0 -210 -1 -210 -17z m293 -112 c5 0 5 -5 2 -11 -3 -5 -1 -10
5 -10 18 0 38 -24 42 -51 2 -15 -2 -23 -9 -21 -7 1 -13 -5 -13 -13 0 -8 -7
-15 -16 -15 -8 0 -12 -4 -9 -10 4 -6 -14 -10 -48 -10 l-53 0 2 73 c1 39 2 72
3 73 1 1 84 -3 94 -5z"/>
<path d="M3570 1120 c0 -176 3 -321 8 -321 4 -1 49 -2 100 -3 l92 -2 0 123 c0
105 2 123 16 123 8 0 12 -4 9 -10 -3 -5 1 -10 9 -10 9 0 16 -6 16 -14 0 -8 7
-16 15 -19 8 -4 12 -15 10 -26 -2 -11 -1 -20 3 -18 13 4 122 -114 122 -131 0
-16 13 -17 120 -17 87 0 121 3 125 12 2 7 -2 13 -10 13 -8 0 -15 7 -15 15 0 8
-7 15 -16 15 -8 0 -12 5 -9 10 3 6 -1 10 -9 10 -9 0 -16 9 -16 20 0 21 -34 62
-44 52 -3 -3 -6 0 -6 7 0 13 -56 71 -69 71 -5 0 -6 11 -3 25 2 15 0 25 -8 25
-15 0 -40 25 -40 40 0 7 -7 10 -15 6 -11 -4 -15 2 -15 25 0 17 4 28 8 25 12
-7 42 31 42 54 0 11 6 20 13 20 16 0 46 51 40 68 -3 7 -1 11 4 10 10 -3 73 59
72 70 -3 20 2 33 11 27 6 -3 10 1 10 9 0 13 -16 16 -100 16 -84 0 -100 -3
-100 -16 0 -8 -4 -12 -10 -9 -5 3 -10 -1 -10 -9 0 -9 -7 -16 -16 -16 -10 0
-14 -6 -10 -15 3 -9 -10 -30 -34 -54 -22 -22 -40 -49 -40 -60 0 -12 -6 -21
-15 -21 -8 0 -14 -4 -12 -9 1 -5 -2 -9 -8 -10 -6 -1 -11 43 -13 109 l-3 110
-99 0 -100 0 0 -320z"/>
<path d="M4240 1117 l0 -322 98 0 97 0 3 122 c2 94 6 122 17 127 8 3 21 -2 30
-10 8 -8 24 -16 35 -17 15 -1 20 -7 16 -20 -2 -10 2 -21 10 -24 8 -3 14 -16
14 -29 0 -15 6 -24 15 -24 9 0 15 -9 15 -25 0 -14 5 -25 10 -25 6 0 10 -9 10
-20 0 -43 28 -55 127 -55 67 -1 94 3 97 12 3 7 -1 13 -9 13 -9 0 -15 9 -15 21
0 11 -7 27 -15 36 -9 8 -13 23 -10 33 3 9 -1 23 -10 30 -8 7 -15 21 -15 32 0
10 -6 21 -14 24 -8 3 -12 13 -9 25 4 13 0 19 -11 19 -9 0 -16 5 -16 11 0 7 -8
18 -17 25 -17 13 -17 13 0 14 9 0 17 7 17 15 0 8 7 15 16 15 8 0 12 5 9 10 -3
6 1 10 9 10 13 0 16 16 16 95 l0 95 -55 55 -55 55 -205 0 -205 0 0 -323z m293
185 c-2 -7 2 -12 9 -12 19 0 48 -31 48 -52 0 -10 -7 -18 -16 -18 -10 0 -14 -6
-10 -15 3 -9 0 -15 -9 -15 -8 0 -15 -4 -15 -10 0 -5 -22 -10 -50 -10 l-50 0 0
74 0 74 48 -2 c29 -2 46 -7 45 -14z"/>
</g>
</svg>
