<svg width="54" height="60" viewBox="0 0 54 60" fill="none" xmlns="http://www.w3.org/2000/svg">
<path d="M41.388 1.08479e-05C34.5131 1.08479e-05 28.9128 5.58728 28.9128 12.4625V23.6247L2.50101 23.6251C1.12581 23.6251 0.000976562 24.75 0.000976562 26.1252V29.8753H43.7884V26.1252C43.7884 24.75 42.6635 23.6251 41.2884 23.6251H36.4134V12.4629C36.4134 9.72528 38.6509 7.49998 41.3885 7.49998C44.1257 7.49998 46.351 9.72481 46.351 12.4624V21.1251C46.351 21.8125 46.9137 22.3752 47.6011 22.3752H52.6011C53.2885 22.3752 53.8512 21.8125 53.8512 21.1251V12.4624C53.8508 5.58761 48.2635 0 41.3888 0L41.388 1.08479e-05Z" fill="#BFDCFF"/>
<path d="M0.000917424 53.75C0.000917424 57.1999 2.80064 60.0001 6.25106 60.0001H37.5377C40.9877 60.0001 43.7879 57.2004 43.7879 53.75L43.7874 32.3745H0L0.000917424 53.75ZM21.901 38.1502C24.6508 38.1502 26.9011 40.3876 26.9011 43.1502C26.9011 45.4626 25.3011 47.4127 23.151 47.9753V52.5001C23.151 53.1875 22.5883 53.7502 21.9009 53.7502C21.2009 53.7502 20.6508 53.1875 20.6508 52.5001V47.9753C18.5009 47.4126 16.9007 45.4629 16.9007 43.1502C16.9012 40.3876 19.1382 38.1502 21.9008 38.1502H21.901Z" fill="#BFDCFF"/>
</svg>
