<svg width="72" height="60" viewBox="0 0 72 60" fill="none" xmlns="http://www.w3.org/2000/svg">
<path d="M29.7764 0H41.3368V20.6956H29.7764V0Z" fill="#BFDCFF"/>
<path d="M44.1561 14.0974V23.6278H26.8994V14.0974H0V60H71.0542V14.0974H44.1561ZM18.2156 24.6427C21.712 24.6427 24.588 27.4623 24.588 31.0151C24.588 34.5114 21.7684 37.3875 18.2156 37.3875C14.7193 37.3311 11.8433 34.5115 11.8433 30.9587C11.8433 27.4624 14.7192 24.6428 18.2156 24.6428V24.6427ZM5.01923 54.0233C5.01923 46.7487 10.9405 40.8269 18.2156 40.8269C25.4908 40.8269 31.4121 46.7482 31.4121 54.0233H5.01923ZM65.2461 53.9669H38.1211C37.3316 53.9669 36.6549 53.3466 36.6549 52.5008C36.6549 51.7113 37.2752 51.0346 38.1211 51.0346H65.2461C66.0356 51.0346 66.7123 51.6549 66.7123 52.5008C66.6559 53.3466 66.0356 53.9669 65.2461 53.9669ZM65.2461 42.2374H38.1211C37.3316 42.2374 36.6549 41.6171 36.6549 40.7712C36.6549 39.9817 37.2752 39.305 38.1211 39.305H65.2461C66.0356 39.305 66.7123 39.9253 66.7123 40.7712C66.6559 41.5607 66.0356 42.2374 65.2461 42.2374ZM65.2461 30.4513H38.1211C37.3316 30.4513 36.6549 29.831 36.6549 28.9851C36.6549 28.1957 37.2752 27.5189 38.1211 27.5189H65.2461C66.0356 27.5189 66.7123 28.1393 66.7123 28.9851C66.6559 29.7746 66.0356 30.4513 65.2461 30.4513Z" fill="#BFDCFF"/>
</svg>
