<svg width="60" height="78" viewBox="0 0 60 78" fill="none" xmlns="http://www.w3.org/2000/svg">
<path fill-rule="evenodd" clip-rule="evenodd" d="M0 11.3979H30.7536C29.6781 21.0754 37.4201 29.4621 47.3123 29.2482V74.4093H0V11.3979ZM9.89231 64.0863C7.74188 64.0863 7.74188 60.8605 9.89231 60.8605H37.4197C39.5702 60.8605 39.5702 64.0863 37.4197 64.0863H9.89231ZM9.89231 52.2584C7.74188 52.2584 7.74188 49.0327 9.89231 49.0327H37.4197C39.5702 49.0327 39.5702 52.2584 37.4197 52.2584H9.89231ZM9.89231 40.4306C7.74188 40.4306 7.74188 37.2048 9.89231 37.2048H37.4197C39.5702 37.2048 39.5702 40.4306 37.4197 40.4306H9.89231ZM9.89231 28.6027C7.74188 28.6027 7.74188 25.3769 9.89231 25.3769H23.8706C26.021 25.3769 26.021 28.6027 23.8706 28.6027H9.89231Z" fill="#BFDCFF"/>
<path fill-rule="evenodd" clip-rule="evenodd" d="M46.8819 0C53.9787 0 60.0001 5.80644 60.0001 13.1182C60.0001 20.215 53.9788 26.2364 46.8819 26.2364C39.5702 26.2364 33.7637 20.2151 33.7637 13.1182C33.7637 5.80658 39.5701 0 46.8819 0ZM39.3549 14.1936C38.0645 12.6884 40.2149 10.5374 41.7207 12.0431L44.7316 15.054L52.0432 7.74241C53.3335 6.23722 55.6994 8.60246 54.1937 10.1082L45.8065 18.2805C45.1614 18.9257 44.3013 18.9257 43.6561 18.2805L39.3549 14.1946V14.1936Z" fill="#BFDCFF"/>
<path d="M0.720152 77.5913C0.682781 77.611 0.643853 77.6256 0.603887 77.6349C0.563402 77.6442 0.521361 77.6494 0.477243 77.6494C0.346964 77.6494 0.243678 77.6136 0.1679 77.5415C0.0916012 77.4683 0.0537109 77.3691 0.0537109 77.2446C0.0537109 77.119 0.0916012 77.0198 0.1679 76.9477C0.243679 76.8745 0.346974 76.8376 0.477243 76.8376C0.521361 76.8376 0.563403 76.8428 0.603887 76.8522C0.643853 76.862 0.682781 76.8766 0.720152 76.8958V77.0577C0.682781 77.0318 0.64541 77.0131 0.60804 77.0017C0.571707 76.9892 0.533818 76.983 0.493851 76.983C0.421704 76.983 0.365129 77.0069 0.323613 77.0536C0.28209 77.0992 0.261329 77.1631 0.261329 77.2446C0.261329 77.325 0.28209 77.3889 0.323613 77.4356C0.365136 77.4813 0.421711 77.5041 0.493851 77.5041C0.533816 77.5041 0.571707 77.4989 0.60804 77.4875C0.64541 77.475 0.682781 77.4558 0.720152 77.4294V77.5913Z" fill="#BFDCFF"/>
</svg>
