<svg width="62" height="80" viewBox="0 0 62 80" fill="none" xmlns="http://www.w3.org/2000/svg">
<path fill-rule="evenodd" clip-rule="evenodd" d="M0 11.7429H31.6845C30.5765 21.7133 38.5528 30.3539 48.7444 30.1335V76.6616H0V11.7429ZM10.1917 66.0262C7.97623 66.0262 7.97623 62.7027 10.1917 62.7027H38.5524C40.7679 62.7027 40.7679 66.0262 38.5524 66.0262H10.1917ZM10.1917 53.8403C7.97623 53.8403 7.97623 50.5168 10.1917 50.5168H38.5524C40.7679 50.5168 40.7679 53.8403 38.5524 53.8403H10.1917ZM10.1917 41.6543C7.97623 41.6543 7.97623 38.3309 10.1917 38.3309H38.5524C40.7679 38.3309 40.7679 41.6543 38.5524 41.6543H10.1917ZM10.1917 29.4684C7.97623 29.4684 7.97623 26.145 10.1917 26.145H24.5932C26.8087 26.145 26.8087 29.4684 24.5932 29.4684H10.1917Z" fill="white"/>
<path fill-rule="evenodd" clip-rule="evenodd" d="M48.3009 0C55.6125 0 61.8162 5.9822 61.8162 13.5153C61.8162 20.8269 55.6127 27.0306 48.3009 27.0306C40.768 27.0306 34.7856 20.827 34.7856 13.5153C34.7856 5.98234 40.7678 0 48.3009 0ZM40.5461 14.6232C39.2167 13.0724 41.4322 10.8564 42.9835 12.4077L46.0856 15.5097L53.6185 7.97677C54.9479 6.42602 57.3853 8.86286 55.834 10.4142L47.193 18.8338C46.5283 19.4985 45.6423 19.4985 44.9775 18.8338L40.5461 14.6243V14.6232Z" fill="white"/>
<path d="M0.742034 79.94C0.703532 79.9604 0.663426 79.9753 0.62225 79.985C0.580539 79.9946 0.537226 79.9999 0.491772 79.9999C0.35755 79.9999 0.251137 79.963 0.173065 79.8887C0.0944571 79.8133 0.0554199 79.7112 0.0554199 79.5828C0.0554199 79.4534 0.0944571 79.3513 0.173065 79.2769C0.251138 79.2015 0.35756 79.1636 0.491772 79.1636C0.537226 79.1636 0.580541 79.1689 0.62225 79.1785C0.663426 79.1887 0.703532 79.2037 0.742034 79.2235V79.3903C0.703532 79.3636 0.66503 79.3443 0.626528 79.3326C0.589095 79.3197 0.55006 79.3133 0.508883 79.3133C0.434552 79.3133 0.376265 79.3379 0.333492 79.386C0.290712 79.4331 0.269322 79.4989 0.269322 79.5828C0.269322 79.6657 0.290712 79.7315 0.333492 79.7796C0.376272 79.8267 0.434559 79.8502 0.508883 79.8502C0.550058 79.8502 0.589095 79.8449 0.626528 79.8331C0.66503 79.8203 0.703532 79.8005 0.742034 79.7732V79.94Z" fill="white"/>
</svg>
