<svg width="56" height="60" viewBox="0 0 56 60" fill="none" xmlns="http://www.w3.org/2000/svg">
<path fill-rule="evenodd" clip-rule="evenodd" d="M41.6456 36.8083C43.9362 34.2775 47.87 34.082 50.4046 36.3776C52.9368 38.672 53.1298 42.6046 50.8366 45.1367C48.5446 47.6663 44.6109 47.8618 42.0775 45.5674C39.5479 43.2767 39.3512 39.3429 41.6456 36.8083ZM52.6836 33.859C48.7548 30.2973 42.6911 30.5974 39.1277 34.5311C36.1142 37.8576 35.8179 42.8038 38.3597 46.4509L36.0486 48.7671L35.4463 48.1648L27.2392 56.386L30.8499 60L39.0557 51.7749L38.4534 51.1727L40.7658 48.8544C44.7113 51.6024 50.1032 51.0048 53.3563 47.4143C56.9139 43.483 56.6117 37.418 52.6829 33.8583L52.6836 33.859ZM4.42678 34.3989C1.66653 36.8289 0 40.3487 0 45.168V54.6996H26.6276L35.4439 45.8653L36.0462 46.4675L36.3116 46.2034C34.136 42.0826 34.7325 36.9635 37.9246 33.4404C38.3026 33.0227 38.706 32.641 39.1283 32.2945C36.6501 31.0957 33.7221 30.4655 30.5697 30.3132V30.234C35.1468 27.2399 37.3031 21.5817 37.3943 16.2806C37.5479 7.82712 32.6263 0 23.3798 0C14.131 0 9.2099 7.82659 9.36311 16.2806C9.45435 21.5821 11.6107 27.2404 16.1877 30.234V30.3132C11.5374 30.5387 7.37794 31.7989 4.4275 34.3993L4.42678 34.3989Z" fill="#BFDCFF"/>
</svg>
