<svg width="60" height="60" viewBox="0 0 60 60" fill="none" xmlns="http://www.w3.org/2000/svg">
<path fill-rule="evenodd" clip-rule="evenodd" d="M26.5385 53.0772C26.5385 53.7144 26.0219 54.231 25.3847 54.231C24.7475 54.231 24.2308 53.7144 24.2308 53.0772C24.2308 52.44 24.7475 51.9233 25.3847 51.9233C26.0219 51.9233 26.5385 52.44 26.5385 53.0772Z" fill="#BFDCFF"/>
<path fill-rule="evenodd" clip-rule="evenodd" d="M40.3846 53.0772C40.3846 53.7144 39.8679 54.231 39.2308 54.231C38.5936 54.231 38.0769 53.7144 38.0769 53.0772C38.0769 52.44 38.5936 51.9233 39.2308 51.9233C39.8679 51.9233 40.3846 52.44 40.3846 53.0772Z" fill="#BFDCFF"/>
<path fill-rule="evenodd" clip-rule="evenodd" d="M54.2308 53.0772C54.2308 53.7144 53.7141 54.231 53.0769 54.231C52.4398 54.231 51.9231 53.7144 51.9231 53.0772C51.9231 52.44 52.4398 51.9233 53.0769 51.9233C53.7141 51.9233 54.2308 52.44 54.2308 53.0772Z" fill="#BFDCFF"/>
<path fill-rule="evenodd" clip-rule="evenodd" d="M60 1.15385C60 0.517174 59.4828 0 58.8462 0H1.15385C0.517174 0 0 0.517174 0 1.15385V58.8462C0 59.4828 0.517174 60 1.15385 60H58.8462C59.4828 60 60 59.4828 60 58.8462V1.15385ZM17.3077 50.7692V55.3846C17.3077 56.0213 17.8249 56.5385 18.4615 56.5385C19.0982 56.5385 19.6154 56.0213 19.6154 55.3846V50.7692C19.6154 50.1326 19.0982 49.6154 18.4615 49.6154C17.8249 49.6154 17.3077 50.1326 17.3077 50.7692ZM10.3846 50.7692V55.3846C10.3846 56.0213 10.9018 56.5385 11.5385 56.5385C12.1751 56.5385 12.6923 56.0213 12.6923 55.3846V50.7692C12.6923 50.1326 12.1751 49.6154 11.5385 49.6154C10.9018 49.6154 10.3846 50.1326 10.3846 50.7692ZM31.1538 50.7692V55.3846C31.1538 56.0213 31.671 56.5385 32.3077 56.5385C32.9444 56.5385 33.4615 56.0213 33.4615 55.3846V50.7692C33.4615 50.1326 32.9444 49.6154 32.3077 49.6154C31.671 49.6154 31.1538 50.1326 31.1538 50.7692ZM3.46154 50.7692V55.3846C3.46154 56.0213 3.97871 56.5385 4.61539 56.5385C5.25206 56.5385 5.76923 56.0213 5.76923 55.3846V50.7692C5.76923 50.1326 5.25206 49.6154 4.61539 49.6154C3.97871 49.6154 3.46154 50.1326 3.46154 50.7692ZM45 50.7692V55.3846C45 56.0213 45.5172 56.5385 46.1538 56.5385C46.7905 56.5385 47.3077 56.0213 47.3077 55.3846V50.7692C47.3077 50.1326 46.7905 49.6154 46.1538 49.6154C45.5172 49.6154 45 50.1326 45 50.7692ZM25.3846 49.6154C23.4741 49.6154 21.9231 51.1664 21.9231 53.0769C21.9231 54.9874 23.4741 56.5385 25.3846 56.5385C27.2951 56.5385 28.8462 54.9874 28.8462 53.0769C28.8462 51.1664 27.2951 49.6154 25.3846 49.6154ZM39.2308 49.6154C37.3203 49.6154 35.7692 51.1664 35.7692 53.0769C35.7692 54.9874 37.3203 56.5385 39.2308 56.5385C41.1413 56.5385 42.6923 54.9874 42.6923 53.0769C42.6923 51.1664 41.1413 49.6154 39.2308 49.6154ZM53.0769 49.6154C51.1664 49.6154 49.6154 51.1664 49.6154 53.0769C49.6154 54.9874 51.1664 56.5385 53.0769 56.5385C54.9874 56.5385 56.5385 54.9874 56.5385 53.0769C56.5385 51.1664 54.9874 49.6154 53.0769 49.6154ZM17.3077 36.9231V41.5385C17.3077 42.1751 17.8249 42.6923 18.4615 42.6923C19.0982 42.6923 19.6154 42.1751 19.6154 41.5385V36.9231C19.6154 36.2864 19.0982 35.7692 18.4615 35.7692C17.8249 35.7692 17.3077 36.2864 17.3077 36.9231ZM31.1538 36.9231V41.5385C31.1538 42.1751 31.671 42.6923 32.3077 42.6923C32.9444 42.6923 33.4615 42.1751 33.4615 41.5385V36.9231C33.4615 36.2864 32.9444 35.7692 32.3077 35.7692C31.671 35.7692 31.1538 36.2864 31.1538 36.9231ZM3.46154 36.9231V41.5385C3.46154 42.1751 3.97871 42.6923 4.61539 42.6923C5.25206 42.6923 5.76923 42.1751 5.76923 41.5385V36.9231C5.76923 36.2864 5.25206 35.7692 4.61539 35.7692C3.97871 35.7692 3.46154 36.2864 3.46154 36.9231ZM45 36.9231V41.5385C45 42.1751 45.5172 42.6923 46.1538 42.6923C46.7905 42.6923 47.3077 42.1751 47.3077 41.5385V36.9231C47.3077 36.2864 46.7905 35.7692 46.1538 35.7692C45.5172 35.7692 45 36.2864 45 36.9231ZM38.0769 36.9231V41.5385C38.0769 42.1751 38.5941 42.6923 39.2308 42.6923C39.8674 42.6923 40.3846 42.1751 40.3846 41.5385V36.9231C40.3846 36.2864 39.8674 35.7692 39.2308 35.7692C38.5941 35.7692 38.0769 36.2864 38.0769 36.9231ZM11.5385 35.7692C9.62796 35.7692 8.07692 37.3203 8.07692 39.2308C8.07692 41.1413 9.62796 42.6923 11.5385 42.6923C13.449 42.6923 15 41.1413 15 39.2308C15 37.3203 13.449 35.7692 11.5385 35.7692ZM25.3846 35.7692C23.4741 35.7692 21.9231 37.3203 21.9231 39.2308C21.9231 41.1413 23.4741 42.6923 25.3846 42.6923C27.2951 42.6923 28.8462 41.1413 28.8462 39.2308C28.8462 37.3203 27.2951 35.7692 25.3846 35.7692ZM53.0769 35.7692C51.1664 35.7692 49.6154 37.3203 49.6154 39.2308C49.6154 41.1413 51.1664 42.6923 53.0769 42.6923C54.9874 42.6923 56.5385 41.1413 56.5385 39.2308C56.5385 37.3203 54.9874 35.7692 53.0769 35.7692ZM24.2308 12.6923V9.23077C24.2308 6.04484 26.8141 3.46154 30 3.46154C33.1859 3.46154 35.7692 6.04484 35.7692 9.23077V12.6923H36.9231C38.8352 12.6923 40.3846 14.2418 40.3846 16.1538V25.3846C40.3846 27.2967 38.8352 28.8462 36.9231 28.8462H23.0769C21.1648 28.8462 19.6154 27.2967 19.6154 25.3846V16.1538C19.6154 14.2418 21.1648 12.6923 23.0769 12.6923H24.2308Z" fill="#BFDCFF"/>
<path fill-rule="evenodd" clip-rule="evenodd" d="M12.6923 39.2305C12.6923 39.8677 12.1757 40.3844 11.5385 40.3844C10.9013 40.3844 10.3846 39.8677 10.3846 39.2305C10.3846 38.5933 10.9013 38.0767 11.5385 38.0767C12.1757 38.0767 12.6923 38.5933 12.6923 39.2305Z" fill="#BFDCFF"/>
<path fill-rule="evenodd" clip-rule="evenodd" d="M26.5385 39.2305C26.5385 39.8677 26.0219 40.3844 25.3847 40.3844C24.7475 40.3844 24.2308 39.8677 24.2308 39.2305C24.2308 38.5933 24.7475 38.0767 25.3847 38.0767C26.0219 38.0767 26.5385 38.5933 26.5385 39.2305Z" fill="#BFDCFF"/>
<path fill-rule="evenodd" clip-rule="evenodd" d="M54.2308 39.2305C54.2308 39.8677 53.7141 40.3844 53.0769 40.3844C52.4398 40.3844 51.9231 39.8677 51.9231 39.2305C51.9231 38.5933 52.4398 38.0767 53.0769 38.0767C53.7141 38.0767 54.2308 38.5933 54.2308 39.2305Z" fill="#BFDCFF"/>
<path fill-rule="evenodd" clip-rule="evenodd" d="M36.9231 15H23.0769C22.4403 15 21.9231 15.5172 21.9231 16.1538V25.3846C21.9231 26.0213 22.4403 26.5385 23.0769 26.5385H36.9231C37.5598 26.5385 38.0769 26.0213 38.0769 25.3846V16.1538C38.0769 15.5172 37.5598 15 36.9231 15ZM28.8462 21.614C28.1559 21.2148 27.6923 20.4694 27.6923 19.6154C27.6923 18.3415 28.7261 17.3077 30 17.3077C31.2739 17.3077 32.3077 18.3415 32.3077 19.6154C32.3077 20.4694 31.8441 21.2148 31.1539 21.614V23.0769C31.1539 23.7136 30.6367 24.2308 30 24.2308C29.3633 24.2308 28.8462 23.7136 28.8462 23.0769V21.614Z" fill="#BFDCFF"/>
<path fill-rule="evenodd" clip-rule="evenodd" d="M33.4614 12.6924V9.23083C33.4614 7.31874 31.912 5.76929 29.9999 5.76929C28.0878 5.76929 26.5383 7.31874 26.5383 9.23083V12.6924H33.4614Z" fill="#BFDCFF"/>
</svg>
