<svg width="66" height="60" viewBox="0 0 66 60" fill="none" xmlns="http://www.w3.org/2000/svg">
<path d="M15.9206 36.3081C16.8954 35.7162 18.1333 35.8653 18.9298 36.6729C21.3811 39.1571 24.9766 40.5819 28.7942 40.5819C32.6118 40.5819 36.2073 39.1569 38.6586 36.6729C39.4542 35.8667 40.6911 35.7162 41.6673 36.3081C43.1688 37.22 44.5143 38.2798 45.6894 39.4526C47.9219 37.469 50.8501 36.2528 54.0643 36.2528C54.9112 36.2528 55.7372 36.3396 56.5379 36.4994C57.218 34.0462 57.5888 31.4641 57.5888 28.7944C57.5888 12.8913 44.6975 0 28.7944 0C12.8913 0 0 12.8913 0 28.7944C0 36.0182 2.66608 42.6147 7.05994 47.6703C8.2798 43.1277 11.3998 39.0553 15.9211 36.3085L15.9206 36.3081ZM28.7942 8.86126C36.3851 8.86126 42.5602 15.0369 42.5602 22.6272C42.5602 30.2176 36.3845 36.3932 28.7942 36.3932C21.2039 36.3932 15.0282 30.2176 15.0282 22.6272C15.0282 15.0369 21.2039 8.86126 28.7942 8.86126ZM41.429 48.8873C41.429 50.7425 41.8408 52.4995 42.5621 54.0883C38.472 56.3194 33.7818 57.5877 28.7949 57.5877C20.9787 57.5877 13.8942 54.4687 8.7062 49.4132C9.51885 44.873 12.4689 40.7289 16.9518 38.0047C17.1375 37.892 17.3697 37.9179 17.517 38.0666C20.3386 40.9265 24.4494 42.5661 28.7948 42.5661C33.1402 42.5661 37.2505 40.926 40.0721 38.0666C40.2194 37.9165 40.4521 37.892 40.6364 38.0047C42.0081 38.8381 43.2336 39.8059 44.3021 40.8757C42.5087 43.0579 41.4296 45.8486 41.4296 48.8872L41.429 48.8873ZM17.014 22.6272C17.014 16.121 22.2884 10.8466 28.7947 10.8466C35.3009 10.8466 40.5753 16.121 40.5753 22.6272C40.5753 29.1335 35.3009 34.4079 28.7947 34.4079C22.2884 34.4079 17.014 29.1335 17.014 22.6272ZM57.5602 38.346C57.3201 38.2661 57.0749 38.1996 56.8279 38.1359C56.5832 38.0731 56.338 38.0135 56.0873 37.9673C55.4302 37.8459 54.7561 37.7739 54.0645 37.7739C51.2479 37.7739 48.6811 38.8354 46.7201 40.5688C46.2201 41.0111 45.7588 41.4946 45.3451 42.0191C43.8513 43.9118 42.9514 46.2943 42.9514 48.887C42.9514 50.4629 43.2857 51.9603 43.88 53.3196C43.9811 53.551 44.0919 53.7768 44.2083 53.9998C44.326 54.2256 44.4548 54.444 44.5874 54.6605C46.5414 57.8557 50.0529 60 54.0644 60C60.1921 60 65.177 55.0146 65.177 48.8875C65.1775 43.9811 61.979 39.8153 57.5602 38.3461L57.5602 38.346ZM60.1755 49.8795H55.0576V54.9974C55.0576 55.5455 54.6129 55.9901 54.0649 55.9901C53.5168 55.9901 53.0722 55.5455 53.0722 54.9974V49.8795H47.9538C47.4058 49.8795 46.9611 49.4349 46.9611 48.8868C46.9611 48.3387 47.4058 47.8941 47.9538 47.8941H53.0722V42.7758C53.0722 42.2277 53.5168 41.783 54.0649 41.783C54.2015 41.783 54.3322 41.8108 54.4504 41.8611C54.7058 41.9687 54.9029 42.182 54.9962 42.4438C55.0336 42.5481 55.0576 42.659 55.0576 42.7762V47.8946H60.1755C60.7235 47.8946 61.1682 48.3392 61.1682 48.8873C61.1682 49.4349 60.7235 49.8796 60.1755 49.8796V49.8795Z" fill="#BFDCFF"/>
</svg>
