<svg width="80" height="80" viewBox="0 0 80 80" fill="none" xmlns="http://www.w3.org/2000/svg">
<path fill-rule="evenodd" clip-rule="evenodd" d="M35.3847 70.7694C35.3847 71.619 34.6958 72.3079 33.8462 72.3079C32.9966 72.3079 32.3077 71.619 32.3077 70.7694C32.3077 69.9198 32.9966 69.231 33.8462 69.231C34.6958 69.231 35.3847 69.9198 35.3847 70.7694Z" fill="white"/>
<path fill-rule="evenodd" clip-rule="evenodd" d="M53.8462 70.7694C53.8462 71.619 53.1573 72.3079 52.3077 72.3079C51.4582 72.3079 50.7693 71.619 50.7693 70.7694C50.7693 69.9198 51.4582 69.231 52.3077 69.231C53.1573 69.231 53.8462 69.9198 53.8462 70.7694Z" fill="white"/>
<path fill-rule="evenodd" clip-rule="evenodd" d="M72.3076 70.7694C72.3076 71.619 71.6188 72.3079 70.7692 72.3079C69.9196 72.3079 69.2307 71.619 69.2307 70.7694C69.2307 69.9198 69.9196 69.231 70.7692 69.231C71.6188 69.231 72.3076 69.9198 72.3076 70.7694Z" fill="white"/>
<path fill-rule="evenodd" clip-rule="evenodd" d="M80 1.53846C80 0.689565 79.3104 0 78.4615 0H1.53846C0.689565 0 0 0.689565 0 1.53846V78.4615C0 79.3104 0.689565 80 1.53846 80H78.4615C79.3104 80 80 79.3104 80 78.4615V1.53846ZM23.0769 67.6923V73.8462C23.0769 74.6951 23.7665 75.3846 24.6154 75.3846C25.4643 75.3846 26.1538 74.6951 26.1538 73.8462V67.6923C26.1538 66.8434 25.4643 66.1538 24.6154 66.1538C23.7665 66.1538 23.0769 66.8434 23.0769 67.6923ZM13.8462 67.6923V73.8462C13.8462 74.6951 14.5357 75.3846 15.3846 75.3846C16.2335 75.3846 16.9231 74.6951 16.9231 73.8462V67.6923C16.9231 66.8434 16.2335 66.1538 15.3846 66.1538C14.5357 66.1538 13.8462 66.8434 13.8462 67.6923ZM41.5385 67.6923V73.8462C41.5385 74.6951 42.228 75.3846 43.0769 75.3846C43.9258 75.3846 44.6154 74.6951 44.6154 73.8462V67.6923C44.6154 66.8434 43.9258 66.1538 43.0769 66.1538C42.228 66.1538 41.5385 66.8434 41.5385 67.6923ZM4.61538 67.6923V73.8462C4.61538 74.6951 5.30495 75.3846 6.15385 75.3846C7.00274 75.3846 7.69231 74.6951 7.69231 73.8462V67.6923C7.69231 66.8434 7.00274 66.1538 6.15385 66.1538C5.30495 66.1538 4.61538 66.8434 4.61538 67.6923ZM60 67.6923V73.8462C60 74.6951 60.6896 75.3846 61.5385 75.3846C62.3874 75.3846 63.0769 74.6951 63.0769 73.8462V67.6923C63.0769 66.8434 62.3874 66.1538 61.5385 66.1538C60.6896 66.1538 60 66.8434 60 67.6923ZM33.8462 66.1538C31.2988 66.1538 29.2308 68.2219 29.2308 70.7692C29.2308 73.3166 31.2988 75.3846 33.8462 75.3846C36.3935 75.3846 38.4615 73.3166 38.4615 70.7692C38.4615 68.2219 36.3935 66.1538 33.8462 66.1538ZM52.3077 66.1538C49.7604 66.1538 47.6923 68.2219 47.6923 70.7692C47.6923 73.3166 49.7604 75.3846 52.3077 75.3846C54.855 75.3846 56.9231 73.3166 56.9231 70.7692C56.9231 68.2219 54.855 66.1538 52.3077 66.1538ZM70.7692 66.1538C68.2219 66.1538 66.1538 68.2219 66.1538 70.7692C66.1538 73.3166 68.2219 75.3846 70.7692 75.3846C73.3166 75.3846 75.3846 73.3166 75.3846 70.7692C75.3846 68.2219 73.3166 66.1538 70.7692 66.1538ZM23.0769 49.2308V55.3846C23.0769 56.2335 23.7665 56.9231 24.6154 56.9231C25.4643 56.9231 26.1538 56.2335 26.1538 55.3846V49.2308C26.1538 48.3819 25.4643 47.6923 24.6154 47.6923C23.7665 47.6923 23.0769 48.3819 23.0769 49.2308ZM41.5385 49.2308V55.3846C41.5385 56.2335 42.228 56.9231 43.0769 56.9231C43.9258 56.9231 44.6154 56.2335 44.6154 55.3846V49.2308C44.6154 48.3819 43.9258 47.6923 43.0769 47.6923C42.228 47.6923 41.5385 48.3819 41.5385 49.2308ZM4.61538 49.2308V55.3846C4.61538 56.2335 5.30495 56.9231 6.15385 56.9231C7.00274 56.9231 7.69231 56.2335 7.69231 55.3846V49.2308C7.69231 48.3819 7.00274 47.6923 6.15385 47.6923C5.30495 47.6923 4.61538 48.3819 4.61538 49.2308ZM60 49.2308V55.3846C60 56.2335 60.6896 56.9231 61.5385 56.9231C62.3874 56.9231 63.0769 56.2335 63.0769 55.3846V49.2308C63.0769 48.3819 62.3874 47.6923 61.5385 47.6923C60.6896 47.6923 60 48.3819 60 49.2308ZM50.7692 49.2308V55.3846C50.7692 56.2335 51.4588 56.9231 52.3077 56.9231C53.1566 56.9231 53.8462 56.2335 53.8462 55.3846V49.2308C53.8462 48.3819 53.1566 47.6923 52.3077 47.6923C51.4588 47.6923 50.7692 48.3819 50.7692 49.2308ZM15.3846 47.6923C12.8373 47.6923 10.7692 49.7604 10.7692 52.3077C10.7692 54.855 12.8373 56.9231 15.3846 56.9231C17.932 56.9231 20 54.855 20 52.3077C20 49.7604 17.932 47.6923 15.3846 47.6923ZM33.8462 47.6923C31.2988 47.6923 29.2308 49.7604 29.2308 52.3077C29.2308 54.855 31.2988 56.9231 33.8462 56.9231C36.3935 56.9231 38.4615 54.855 38.4615 52.3077C38.4615 49.7604 36.3935 47.6923 33.8462 47.6923ZM70.7692 47.6923C68.2219 47.6923 66.1538 49.7604 66.1538 52.3077C66.1538 54.855 68.2219 56.9231 70.7692 56.9231C73.3166 56.9231 75.3846 54.855 75.3846 52.3077C75.3846 49.7604 73.3166 47.6923 70.7692 47.6923ZM32.3077 16.9231V12.3077C32.3077 8.05978 35.7521 4.61538 40 4.61538C44.2479 4.61538 47.6923 8.05978 47.6923 12.3077V16.9231H49.2308C51.7802 16.9231 53.8462 18.989 53.8462 21.5385V33.8462C53.8462 36.3956 51.7802 38.4615 49.2308 38.4615H30.7692C28.2198 38.4615 26.1538 36.3956 26.1538 33.8462V21.5385C26.1538 18.989 28.2198 16.9231 30.7692 16.9231H32.3077Z" fill="white"/>
<path fill-rule="evenodd" clip-rule="evenodd" d="M16.9231 52.3075C16.9231 53.1571 16.2342 53.846 15.3847 53.846C14.5351 53.846 13.8462 53.1571 13.8462 52.3075C13.8462 51.4579 14.5351 50.769 15.3847 50.769C16.2342 50.769 16.9231 51.4579 16.9231 52.3075Z" fill="white"/>
<path fill-rule="evenodd" clip-rule="evenodd" d="M35.3847 52.3075C35.3847 53.1571 34.6958 53.846 33.8462 53.846C32.9966 53.846 32.3077 53.1571 32.3077 52.3075C32.3077 51.4579 32.9966 50.769 33.8462 50.769C34.6958 50.769 35.3847 51.4579 35.3847 52.3075Z" fill="white"/>
<path fill-rule="evenodd" clip-rule="evenodd" d="M72.3076 52.3075C72.3076 53.1571 71.6188 53.846 70.7692 53.846C69.9196 53.846 69.2307 53.1571 69.2307 52.3075C69.2307 51.4579 69.9196 50.769 70.7692 50.769C71.6188 50.769 72.3076 51.4579 72.3076 52.3075Z" fill="white"/>
<path fill-rule="evenodd" clip-rule="evenodd" d="M49.2307 20H30.7692C29.9203 20 29.2307 20.6896 29.2307 21.5385V33.8462C29.2307 34.6951 29.9203 35.3846 30.7692 35.3846H49.2307C50.0796 35.3846 50.7692 34.6951 50.7692 33.8462V21.5385C50.7692 20.6896 50.0796 20 49.2307 20ZM38.4615 28.8186C37.5411 28.2864 36.923 27.2925 36.923 26.1538C36.923 24.4553 38.3014 23.0769 39.9999 23.0769C41.6984 23.0769 43.0769 24.4553 43.0769 26.1538C43.0769 27.2926 42.4587 28.2864 41.5384 28.8186V30.7692C41.5384 31.6181 40.8488 32.3077 39.9999 32.3077C39.151 32.3077 38.4615 31.6181 38.4615 30.7692V28.8186Z" fill="white"/>
<path fill-rule="evenodd" clip-rule="evenodd" d="M44.6153 16.9232V12.3078C44.6153 9.75832 42.5494 7.69238 39.9999 7.69238C37.4505 7.69238 35.3845 9.75832 35.3845 12.3078V16.9232H44.6153Z" fill="white"/>
</svg>
