<svg width="87" height="80" viewBox="0 0 87 80" fill="none" xmlns="http://www.w3.org/2000/svg">
<path d="M21.2275 48.4108C22.5272 47.6216 24.1777 47.8204 25.2397 48.8972C28.5081 52.2094 33.3021 54.1092 38.3923 54.1092C43.4824 54.1092 48.2764 52.2092 51.5448 48.8972C52.6056 47.8223 54.2549 47.6216 55.5564 48.4108C57.5584 49.6267 59.3524 51.0397 60.9192 52.6034C63.8959 49.9587 67.8002 48.3371 72.0858 48.3371C73.2149 48.3371 74.3162 48.4528 75.3838 48.6658C76.2907 45.3949 76.785 41.9522 76.785 38.3925C76.785 17.1884 59.5966 0 38.3925 0C17.1884 0 0 17.1884 0 38.3925C0 48.0242 3.55477 56.8197 9.41326 63.5604C11.0397 57.5037 15.1997 52.0737 21.2281 48.4113L21.2275 48.4108ZM38.3923 11.815C48.5135 11.815 56.7469 20.0492 56.7469 30.1697C56.7469 40.2901 48.5127 48.5243 38.3923 48.5243C28.2718 48.5243 20.0376 40.2901 20.0376 30.1697C20.0376 20.0492 28.2718 11.815 38.3923 11.815ZM55.2386 65.1831C55.2386 67.6567 55.7878 69.9994 56.7494 72.1177C51.296 75.0925 45.0424 76.7836 38.3932 76.7836C27.9716 76.7836 18.5255 72.6249 11.6083 65.8843C12.6918 59.8307 16.6251 54.3052 22.6025 50.6729C22.8499 50.5227 23.1596 50.5572 23.356 50.7554C27.1182 54.5687 32.5992 56.7548 38.3931 56.7548C44.1869 56.7548 49.6673 54.568 53.4295 50.7554C53.6259 50.5553 53.9362 50.5227 54.1818 50.6729C56.0108 51.7842 57.6449 53.0745 59.0694 54.501C56.6783 57.4105 55.2395 61.1314 55.2395 65.183L55.2386 65.1831ZM22.6854 30.1697C22.6854 21.4946 29.7178 14.4621 38.3929 14.4621C47.0679 14.4621 54.1004 21.4946 54.1004 30.1697C54.1004 38.8447 47.0679 45.8772 38.3929 45.8772C29.7178 45.8772 22.6854 38.8447 22.6854 30.1697ZM76.7469 51.1279C76.4268 51.0214 76.0999 50.9328 75.7705 50.8478C75.4442 50.7641 75.1173 50.6847 74.783 50.6231C73.907 50.4612 73.0081 50.3652 72.086 50.3652C68.3305 50.3652 64.9082 51.7805 62.2935 54.0917C61.6268 54.6815 61.0117 55.3261 60.4601 56.0255C58.4684 58.5491 57.2686 61.7258 57.2686 65.1827C57.2686 67.2839 57.7143 69.2804 58.5066 71.0929C58.6415 71.4013 58.7892 71.7023 58.9444 71.9997C59.1014 72.3008 59.2731 72.5919 59.4498 72.8807C62.0552 77.1409 66.7371 80 72.0859 80C80.2561 80 86.9027 73.3529 86.9027 65.1833C86.9033 58.6414 82.6387 53.0871 76.7469 51.1281L76.7469 51.1279ZM80.2339 66.5061H73.4101V73.3299C73.4101 74.0606 72.8173 74.6535 72.0865 74.6535C71.3557 74.6535 70.7629 74.0606 70.7629 73.3299V66.5061H63.9384C63.2077 66.5061 62.6148 65.9132 62.6148 65.1824C62.6148 64.4517 63.2077 63.8588 63.9384 63.8588H70.7629V57.0344C70.7629 56.3036 71.3557 55.7107 72.0865 55.7107C72.2687 55.7107 72.443 55.7477 72.6006 55.8148C72.941 55.9582 73.2039 56.2426 73.3282 56.5917C73.3781 56.7309 73.4101 56.8786 73.4101 57.035V63.8594H80.2339C80.9647 63.8594 81.5576 64.4523 81.5576 65.1831C81.5576 65.9132 80.9647 66.5061 80.2339 66.5061V66.5061Z" fill="white"/>
</svg>
