<svg width="140" height="40" viewBox="0 0 140 40" fill="none" xmlns="http://www.w3.org/2000/svg">
<path fill-rule="evenodd" clip-rule="evenodd" d="M120 37C129.389 37 137 29.3888 137 20C137 10.6112 129.389 3 120 3C110.611 3 103 10.6112 103 20C103 29.3888 110.611 37 120 37ZM120 40C131.046 40 140 31.0457 140 20C140 8.9543 131.046 0 120 0C108.954 0 100 8.9543 100 20V17H0V20H100C100 31.0457 108.954 40 120 40ZM120 27.9998C124.418 27.9998 128 24.4181 128 19.9998C128 15.5816 124.418 11.9998 120 11.9998C115.582 11.9998 112 15.5816 112 19.9998C112 24.4181 115.582 27.9998 120 27.9998Z" fill="#BFDCFF"/>
</svg>
