<svg width="40" height="140" viewBox="0 0 40 140" fill="none" xmlns="http://www.w3.org/2000/svg">
<path fill-rule="evenodd" clip-rule="evenodd" d="M3 120C3 129.389 10.6112 137 20 137C29.3888 137 37 129.389 37 120C37 110.611 29.3888 103 20 103C10.6112 103 3 110.611 3 120ZM0 120C0 131.046 8.95431 140 20 140C31.0457 140 40 131.046 40 120C40 108.954 31.0457 100 20 100H23L23 0L20 0L20 100C8.95431 100 0 108.954 0 120ZM12.0002 120C12.0002 124.418 15.5819 128 20.0002 128C24.4184 128 28.0002 124.418 28.0002 120C28.0002 115.582 24.4184 112 20.0002 112C15.5819 112 12.0002 115.582 12.0002 120Z" fill="#BFDCFF"/>
</svg>
