<svg width="140" height="40" viewBox="0 0 140 40" fill="none" xmlns="http://www.w3.org/2000/svg">
<path fill-rule="evenodd" clip-rule="evenodd" d="M20 3C10.6112 3 3 10.6112 3 20C3 29.3888 10.6112 37 20 37C29.3888 37 37 29.3888 37 20C37 10.6112 29.3888 3 20 3ZM20 0C8.9543 0 0 8.95431 0 20C0 31.0457 8.9543 40 20 40C31.0457 40 40 31.0457 40 20V23L140 23V20L40 20C40 8.95431 31.0457 0 20 0ZM20 12.0002C15.5818 12.0002 12 15.5819 12 20.0002C12 24.4184 15.5818 28.0002 20 28.0002C24.4183 28.0002 28 24.4184 28 20.0002C28 15.5819 24.4183 12.0002 20 12.0002Z" fill="#BFDCFF"/>
</svg>
