<svg width="60" height="60" viewBox="0 0 60 60" fill="none" xmlns="http://www.w3.org/2000/svg">
<circle cx="30" cy="30" r="30" fill="#BFDCFF"/>
<path d="M29.9999 13.125C25.3975 13.125 21.6664 16.8557 21.6664 21.4578C21.6664 26.0602 25.3973 29.7913 29.9999 29.7913C34.6024 29.7913 38.3334 26.0603 38.3334 21.4578C38.3334 16.8554 34.6024 13.125 29.9999 13.125Z" fill="#02000B"/>
<path d="M26.6663 31.4578C20.223 31.4578 15 36.6812 15 43.1248V44.7914C15 45.7118 15.7461 46.4579 16.6666 46.4579H43.3334C44.2539 46.4579 45 45.7118 45 44.7914V43.1248C45 36.6815 39.7768 31.4578 33.3337 31.4578H26.6663Z" fill="#02000B"/>
</svg>
