<svg width="103" height="24" viewBox="0 0 103 24" fill="red" xmlns="http://www.w3.org/2000/svg">
<path d="M6.94246 24L0.436 0.523077H6.57354L10.0615 16.7557L13.6502 0.523077H20.7268L24.3825 16.7222L27.8705 0.523077H34.0415L27.5686 24H21.1963L17.2388 8.43815L13.2142 24H6.94246ZM56.5566 24H49.5135L44.8181 15.2129H42.5711V24H36.5677L36.5006 0.523077H46.1261C48.4738 0.523077 50.352 1.19385 51.7606 2.53538C53.1692 3.85456 53.8735 5.6321 53.8735 7.868C53.8735 9.09774 53.594 10.2381 53.0351 11.2889C52.4984 12.3398 51.7382 13.2006 50.7544 13.8714L56.5566 24ZM42.5711 5.62092V10.1151H45.0529C45.9696 10.1151 46.6739 9.92503 47.1658 9.54492C47.6577 9.14246 47.9037 8.58349 47.9037 7.868C47.9037 7.15251 47.6577 6.60472 47.1658 6.22462C46.6739 5.82215 45.9696 5.62092 45.0529 5.62092H42.5711ZM73.1571 24L66.9189 14.3409L64.9066 16.4538V24H58.9032V0.523077H64.9066V8.47169L72.218 0.523077H80.0325L71.0777 9.98092L80.7368 24H73.1571ZM102.901 24H95.8582L91.1628 15.2129H88.9157V24H82.9123L82.8452 0.523077H92.4708C94.8185 0.523077 96.6966 1.19385 98.1052 2.53538C99.5139 3.85456 100.218 5.6321 100.218 7.868C100.218 9.09774 99.9387 10.2381 99.3797 11.2889C98.8431 12.3398 98.0829 13.2006 97.0991 13.8714L102.901 24ZM88.9157 5.62092V10.1151H91.3975C92.3143 10.1151 93.0186 9.92503 93.5105 9.54492C94.0024 9.14246 94.2483 8.58349 94.2483 7.868C94.2483 7.15251 94.0024 6.60472 93.5105 6.22462C93.0186 5.82215 92.3143 5.62092 91.3975 5.62092H88.9157Z" fill="white"/>
</svg>
